Monoto-Light.ufo
<glyph name="quotedbl" format="2">
  <advance width="500"/>
  <unicode hex="0022"/>
  <outline>
    <contour>
      <point x="313" y="456" type="line"/>
      <point x="333" y="456" type="line"/>
      <point x="337" y="714" type="line"/>
      <point x="309" y="714" type="line"/>
    </contour>
    <contour>
      <point x="167" y="456" type="line"/>
      <point x="187" y="456" type="line"/>
      <point x="191" y="714" type="line"/>
      <point x="163" y="714" type="line"/>
    </contour>
  </outline>
</glyph>
<glyph name="dollar" format="2">
  <advance width="500"/>
  <unicode hex="0024"/>
  <outline>
    <contour>
      <point x="252" y="-58" type="line"/>
      <point x="276" y="-58" type="line"/>
      <point x="276" y="26" type="line"/>
      <point x="385" y="34"/>
      <point x="453" y="91"/>
      <point x="453" y="187" type="curve" smooth="yes"/>
      <point x="453" y="283"/>
      <point x="387" y="325"/>
      <point x="276" y="371" type="curve"/>
      <point x="276" y="670" type="line"/>
      <point x="320" y="670"/>
      <point x="365" y="659"/>
      <point x="411" y="636" type="curve"/>
      <point x="423" y="660" type="line"/>
      <point x="376" y="683"/>
      <point x="327" y="695"/>
      <point x="276" y="696" type="curve"/>
      <point x="276" y="760" type="line"/>
      <point x="252" y="760" type="line"/>
      <point x="252" y="695" type="line"/>
      <point x="156" y="689"/>
      <point x="85" y="633"/>
      <point x="85" y="537" type="curve" smooth="yes"/>
      <point x="85" y="436"/>
      <point x="156" y="395"/>
      <point x="252" y="354" type="curve"/>
      <point x="252" y="51" type="line"/>
      <point x="193" y="52"/>
      <point x="128" y="68"/>
      <point x="87" y="86" type="curve"/>
      <point x="87" y="57" type="line"/>
      <point x="125" y="42"/>
      <point x="184" y="27"/>
      <point x="252" y="26" type="curve"/>
    </contour>
    <contour>
      <point x="276" y="52" type="curve"/>
      <point x="276" y="343" type="line"/>
      <point x="374" y="300"/>
      <point x="427" y="266"/>
      <point x="427" y="187" type="curve" smooth="yes"/>
      <point x="427" y="101"/>
      <point x="364" y="57"/>
    </contour>
    <contour>
      <point x="252" y="381" type="line"/>
      <point x="173" y="416"/>
      <point x="112" y="451"/>
      <point x="112" y="538" type="curve" smooth="yes"/>
      <point x="112" y="621"/>
      <point x="174" y="665"/>
      <point x="252" y="670" type="curve"/>
    </contour>
  </outline>
</glyph>
<glyph name="comma" format="2">
  <advance width="500"/>
  <unicode hex="002C"/>
  <outline>
    <contour>
      <point x="208" y="-129" type="curve"/>
      <point x="230" y="-129" type="line"/>
      <point x="258" y="-60"/>
      <point x="280" y="30"/>
      <point x="295" y="104" type="curve"/>
      <point x="292" y="116" type="line"/>
      <point x="264" y="116" type="line"/>
      <point x="253" y="40"/>
      <point x="237" y="-32"/>
    </contour>
  </outline>
</glyph>
<glyph name="three" format="2">
  <advance width="500"/>
  <unicode hex="0033"/>
  <outline>
    <contour>
      <point x="228" y="-10" type="curve" smooth="yes"/>
      <point x="368" y="-10"/>
      <point x="438" y="71"/>
      <point x="438" y="189" type="curve" smooth="yes"/>
      <point x="438" y="296"/>
      <point x="381" y="355"/>
      <point x="289" y="372" type="curve"/>
      <point x="289" y="374" type="line"/>
      <point x="361" y="392"/>
      <point x="423" y="455"/>
      <point x="423" y="553" type="curve" smooth="yes"/>
      <point x="423" y="660"/>
      <point x="349" y="724"/>
      <point x="245" y="724" type="curve" smooth="yes"/>
      <point x="170" y="724"/>
      <point x="113" y="697"/>
      <point x="66" y="658" type="curve"/>
      <point x="81" y="638" type="line"/>
      <point x="130" y="677"/>
      <point x="182" y="700"/>
      <point x="245" y="700" type="curve" smooth="yes"/>
      <point x="335" y="700"/>
      <point x="396" y="649"/>
      <point x="396" y="553" type="curve" smooth="yes"/>
      <point x="396" y="441"/>
      <point x="312" y="384"/>
      <point x="218" y="384" type="curve" smooth="yes"/>
      <point x="155" y="384" type="line"/>
      <point x="155" y="359" type="line"/>
      <point x="217" y="359" type="line" smooth="yes"/>
      <point x="326" y="359"/>
      <point x="411" y="314"/>
      <point x="411" y="189" type="curve" smooth="yes"/>
      <point x="411" y="81"/>
      <point x="347" y="15"/>
      <point x="228" y="15" type="curve" smooth="yes"/>
      <point x="168" y="15"/>
      <point x="106" y="33"/>
      <point x="64" y="53" type="curve"/>
      <point x="64" y="26" type="line"/>
      <point x="109" y="5"/>
      <point x="168" y="-10"/>
    </contour>
  </outline>
</glyph>
<glyph name="six" format="2">
  <advance width="500"/>
  <unicode hex="0036"/>
  <outline>
    <contour>
      <point x="252" y="-12" type="curve" smooth="yes"/>
      <point x="367" y="-12"/>
      <point x="432" y="80"/>
      <point x="432" y="221" type="curve" smooth="yes"/>
      <point x="432" y="350"/>
      <point x="371" y="438"/>
      <point x="258" y="438" type="curve" smooth="yes"/>
      <point x="156" y="438"/>
      <point x="103" y="374"/>
      <point x="86" y="328" type="curve"/>
      <point x="85" y="328" type="line"/>
      <point x="88" y="586"/>
      <point x="177" y="698"/>
      <point x="308" y="698" type="curve" smooth="yes"/>
      <point x="340" y="698"/>
      <point x="371" y="692"/>
      <point x="393" y="684" type="curve"/>
      <point x="393" y="710" type="line"/>
      <point x="371" y="718"/>
      <point x="341" y="723"/>
      <point x="308" y="723" type="curve" smooth="yes"/>
      <point x="167" y="723"/>
      <point x="59" y="617"/>
      <point x="59" y="305" type="curve" smooth="yes"/>
      <point x="59" y="119"/>
      <point x="113" y="-12"/>
    </contour>
    <contour>
      <point x="252" y="13" type="curve" smooth="yes"/>
      <point x="119" y="13"/>
      <point x="90" y="169"/>
      <point x="90" y="248" type="curve" smooth="yes"/>
      <point x="90" y="335"/>
      <point x="152" y="413"/>
      <point x="255" y="413" type="curve" smooth="yes"/>
      <point x="361" y="413"/>
      <point x="405" y="337"/>
      <point x="405" y="222" type="curve" smooth="yes"/>
      <point x="405" y="90"/>
      <point x="352" y="13"/>
    </contour>
  </outline>
</glyph>
<glyph name="seven" format="2">
  <advance width="500"/>
  <unicode hex="0037"/>
  <outline>
    <contour>
      <point x="144" y="0" type="line"/>
      <point x="173" y="0" type="line"/>
      <point x="428" y="695" type="line"/>
      <point x="428" y="714" type="line"/>
      <point x="53" y="714" type="line"/>
      <point x="53" y="689" type="line"/>
      <point x="400" y="689" type="line"/>
    </contour>
  </outline>
</glyph>
<glyph name="nine" format="2">
  <advance width="500"/>
  <unicode hex="0039"/>
  <outline>
    <contour>
      <point x="190" y="-10" type="curve" smooth="yes"/>
      <point x="331" y="-10"/>
      <point x="439" y="96"/>
      <point x="439" y="408" type="curve" smooth="yes"/>
      <point x="439" y="594"/>
      <point x="385" y="725"/>
      <point x="246" y="725" type="curve" smooth="yes"/>
      <point x="131" y="725"/>
      <point x="66" y="636"/>
      <point x="66" y="492" type="curve" smooth="yes"/>
      <point x="66" y="363"/>
      <point x="127" y="276"/>
      <point x="242" y="276" type="curve" smooth="yes"/>
      <point x="342" y="276"/>
      <point x="393" y="336"/>
      <point x="411" y="380" type="curve"/>
      <point x="413" y="380" type="line"/>
      <point x="410" y="131"/>
      <point x="320" y="16"/>
      <point x="190" y="16" type="curve" smooth="yes"/>
      <point x="156" y="16"/>
      <point x="121" y="22"/>
      <point x="100" y="30" type="curve"/>
      <point x="100" y="3" type="line"/>
      <point x="122" y="-5"/>
      <point x="156" y="-10"/>
    </contour>
    <contour>
      <point x="242" y="301" type="curve" smooth="yes"/>
      <point x="141" y="301"/>
      <point x="93" y="376"/>
      <point x="93" y="491" type="curve" smooth="yes"/>
      <point x="93" y="623"/>
      <point x="147" y="700"/>
      <point x="247" y="700" type="curve" smooth="yes"/>
      <point x="381" y="700"/>
      <point x="408" y="545"/>
      <point x="408" y="466" type="curve" smooth="yes"/>
      <point x="408" y="379"/>
      <point x="348" y="301"/>
    </contour>
  </outline>
</glyph>
<glyph name="colon" format="2">
  <advance width="500"/>
  <unicode hex="003A"/>
  <outline>
    <contour>
      <point x="251" y="463" type="curve" smooth="yes"/>
      <point x="273" y="463"/>
      <point x="279" y="479"/>
      <point x="279" y="498" type="curve" smooth="yes"/>
      <point x="279" y="516"/>
      <point x="273" y="533"/>
      <point x="251" y="533" type="curve" smooth="yes"/>
      <point x="227" y="533"/>
      <point x="221" y="516"/>
      <point x="221" y="498" type="curve" smooth="yes"/>
      <point x="221" y="479"/>
      <point x="227" y="463"/>
    </contour>
    <contour>
      <point x="251" y="-12" type="curve" smooth="yes"/>
      <point x="273" y="-12"/>
      <point x="279" y="4"/>
      <point x="279" y="23" type="curve" smooth="yes"/>
      <point x="279" y="41"/>
      <point x="273" y="58"/>
      <point x="251" y="58" type="curve" smooth="yes"/>
      <point x="227" y="58"/>
      <point x="221" y="41"/>
      <point x="221" y="23" type="curve" smooth="yes"/>
      <point x="221" y="4"/>
      <point x="227" y="-12"/>
    </contour>
  </outline>
</glyph>
<glyph name="A" format="2">
  <advance width="500"/>
  <unicode hex="0041"/>
  <anchor x="250" y="0" name="bottom"/>
  <anchor x="450" y="10" name="ogonek"/>
  <anchor x="250" y="714" name="top"/>
  <anchor x="480" y="714" name="topright"/>
  <outline>
    <contour>
      <point x="20" y="0" type="line"/>
      <point x="47" y="0" type="line"/>
      <point x="224" y="603" type="line" smooth="yes"/>
      <point x="233" y="633"/>
      <point x="241" y="659"/>
      <point x="249" y="689" type="curve"/>
      <point x="259" y="656"/>
      <point x="267" y="631"/>
      <point x="275" y="603" type="curve" smooth="yes"/>
      <point x="453" y="0" type="line"/>
      <point x="480" y="0" type="line"/>
      <point x="266" y="715" type="line"/>
      <point x="234" y="715" type="line"/>
    </contour>
    <contour>
      <point x="119" y="276" type="line"/>
      <point x="380" y="276" type="line"/>
      <point x="371" y="301" type="line"/>
      <point x="128" y="301" type="line"/>
    </contour>
  </outline>
</glyph>
<glyph name="G" format="2">
  <advance width="500"/>
  <unicode hex="0047"/>
  <anchor x="280" y="0" name="bottom"/>
  <anchor x="265" y="714" name="top"/>
  <anchor x="480" y="714" name="topright"/>
  <outline>
    <contour>
      <point x="295" y="-10" type="curve" smooth="yes"/>
      <point x="347" y="-10"/>
      <point x="403" y="2"/>
      <point x="435" y="24" type="curve"/>
      <point x="435" y="351" type="line"/>
      <point x="272" y="351" type="line"/>
      <point x="272" y="326" type="line"/>
      <point x="410" y="326" type="line"/>
      <point x="410" y="40" type="line"/>
      <point x="390" y="27"/>
      <point x="345" y="15"/>
      <point x="297" y="15" type="curve" smooth="yes"/>
      <point x="138" y="15"/>
      <point x="76" y="156"/>
      <point x="76" y="362" type="curve" smooth="yes"/>
      <point x="76" y="556"/>
      <point x="131" y="699"/>
      <point x="290" y="699" type="curve" smooth="yes"/>
      <point x="327" y="699"/>
      <point x="369" y="691"/>
      <point x="405" y="661" type="curve"/>
      <point x="418" y="681" type="line"/>
      <point x="379" y="715"/>
      <point x="328" y="724"/>
      <point x="287" y="724" type="curve" smooth="yes"/>
      <point x="119" y="724"/>
      <point x="50" y="574"/>
      <point x="50" y="358" type="curve" smooth="yes"/>
      <point x="50" y="141"/>
      <point x="119" y="-10"/>
    </contour>
  </outline>
</glyph>
<glyph name="H" format="2">
  <advance width="500"/>
  <unicode hex="0048"/>
  <anchor x="250" y="0" name="bottom"/>
  <anchor x="250" y="375" name="center"/>
  <anchor x="250" y="714" name="top"/>
  <anchor x="20" y="714" name="topleft"/>
  <anchor x="500" y="714" name="topright"/>
  <outline>
    <contour>
      <point x="65" y="0" type="line"/>
      <point x="91" y="0" type="line"/>
      <point x="91" y="363" type="line"/>
      <point x="409" y="363" type="line"/>
      <point x="409" y="0" type="line"/>
      <point x="435" y="0" type="line"/>
      <point x="435" y="714" type="line"/>
      <point x="409" y="714" type="line"/>
      <point x="409" y="388" type="line"/>
      <point x="91" y="388" type="line"/>
      <point x="91" y="714" type="line"/>
      <point x="65" y="714" type="line"/>
    </contour>
  </outline>
</glyph>
<glyph name="I" format="2">
  <advance width="500"/>
  <unicode hex="0049"/>
  <anchor x="250" y="0" name="bottom"/>
  <anchor x="285" y="10" name="ogonek"/>
  <anchor x="250" y="714" name="top"/>
  <anchor x="20" y="714" name="topleft"/>
  <anchor x="480" y="714" name="topright"/>
  <outline>
    <contour>
      <point x="120" y="0" type="line"/>
      <point x="380" y="0" type="line"/>
      <point x="380" y="20" type="line"/>
      <point x="263" y="23" type="line"/>
      <point x="263" y="690" type="line"/>
      <point x="380" y="694" type="line"/>
      <point x="380" y="714" type="line"/>
      <point x="120" y="714" type="line"/>
      <point x="120" y="694" type="line"/>
      <point x="237" y="690" type="line"/>
      <point x="237" y="23" type="line"/>
      <point x="120" y="20" type="line"/>
    </contour>
  </outline>
</glyph>
<glyph name="M" format="2">
  <advance width="500"/>
  <unicode hex="004D"/>
  <anchor x="250" y="0" name="bottom"/>
  <anchor x="255" y="714" name="top"/>
  <anchor x="500" y="714" name="topright"/>
  <outline>
    <contour>
      <point x="40" y="0" type="line"/>
      <point x="66" y="0" type="line"/>
      <point x="66" y="581" type="line" smooth="yes"/>
      <point x="66" y="611"/>
      <point x="66" y="622"/>
      <point x="64" y="670" type="curve"/>
      <point x="66" y="670" type="line"/>
      <point x="231" y="187" type="line"/>
      <point x="264" y="187" type="line"/>
      <point x="432" y="669" type="line"/>
      <point x="434" y="669" type="line"/>
      <point x="434" y="638"/>
      <point x="434" y="608"/>
      <point x="434" y="577" type="curve" smooth="yes"/>
      <point x="434" y="0" type="line"/>
      <point x="460" y="0" type="line"/>
      <point x="460" y="714" type="line"/>
      <point x="420" y="714" type="line"/>
      <point x="249" y="219" type="line"/>
      <point x="246" y="219" type="line"/>
      <point x="78" y="714" type="line"/>
      <point x="40" y="714" type="line"/>
    </contour>
  </outline>
</glyph>
<glyph name="N" format="2">
  <advance width="500"/>
  <unicode hex="004E"/>
  <anchor x="250" y="0" name="bottom"/>
  <anchor x="255" y="714" name="top"/>
  <anchor x="500" y="714" name="topright"/>
  <outline>
    <contour>
      <point x="65" y="0" type="line"/>
      <point x="91" y="0" type="line"/>
      <point x="91" y="548" type="line" smooth="yes"/>
      <point x="91" y="604"/>
      <point x="91" y="637"/>
      <point x="90" y="664" type="curve"/>
      <point x="92" y="664" type="line"/>
      <point x="407" y="0" type="line"/>
      <point x="435" y="0" type="line"/>
      <point x="435" y="714" type="line"/>
      <point x="409" y="714" type="line"/>
      <point x="409" y="181" type="line" smooth="yes"/>
      <point x="409" y="152"/>
      <point x="410" y="99"/>
      <point x="410" y="54" type="curve"/>
      <point x="408" y="54" type="line"/>
      <point x="94" y="714" type="line"/>
      <point x="65" y="714" type="line"/>
    </contour>
  </outline>
</glyph>
<glyph name="Q" format="2">
  <advance width="500"/>
  <unicode hex="0051"/>
  <anchor x="250" y="-210" name="bottom"/>
  <anchor x="250" y="714" name="top"/>
  <anchor x="500" y="714" name="topright"/>
  <anchor x="20" y="714" name="topleft"/>
  <anchor x="251" y="10" name="ogonek"/>
  <anchor x="250" y="357" name="center"/>
  <outline>
    <contour>
      <point x="397" y="-170" type="line"/>
      <point x="427" y="-170" type="line"/>
      <point x="337" y="16" type="line"/>
      <point x="311" y="12" type="line"/>
    </contour>
    <component base="O"/>
  </outline>
</glyph>
<glyph name="R" format="2">
  <advance width="500"/>
  <unicode hex="0052"/>
  <anchor x="276" y="0" name="bottom"/>
  <anchor x="250" y="714" name="top"/>
  <anchor x="480" y="714" name="topright"/>
  <outline>
    <contour>
      <point x="95" y="0" type="line"/>
      <point x="121" y="0" type="line"/>
      <point x="121" y="321" type="line"/>
      <point x="268" y="321" type="line"/>
      <point x="436" y="0" type="line"/>
      <point x="468" y="0" type="line"/>
      <point x="295" y="328" type="line"/>
      <point x="388" y="352"/>
      <point x="440" y="416"/>
      <point x="440" y="525" type="curve" smooth="yes"/>
      <point x="440" y="671"/>
      <point x="360" y="714"/>
      <point x="219" y="714" type="curve" smooth="yes"/>
      <point x="95" y="714" type="line"/>
    </contour>
    <contour>
      <point x="121" y="347" type="line"/>
      <point x="121" y="689" type="line"/>
      <point x="212" y="689" type="line" smooth="yes"/>
      <point x="352" y="689"/>
      <point x="413" y="647"/>
      <point x="413" y="526" type="curve" smooth="yes"/>
      <point x="413" y="404"/>
      <point x="336" y="347"/>
      <point x="229" y="347" type="curve" smooth="yes"/>
    </contour>
  </outline>
</glyph>
<glyph name="S" format="2">
  <advance width="500"/>
  <unicode hex="0053"/>
  <anchor x="250" y="0" name="bottom"/>
  <anchor x="257" y="714" name="top"/>
  <anchor x="480" y="714" name="topright"/>
  <outline>
    <contour>
      <point x="228" y="-10" type="curve" smooth="yes"/>
      <point x="345" y="-10"/>
      <point x="418" y="55"/>
      <point x="418" y="183" type="curve" smooth="yes"/>
      <point x="418" y="298"/>
      <point x="359" y="328"/>
      <point x="253" y="376" type="curve" smooth="yes"/>
      <point x="176" y="411"/>
      <point x="112" y="441"/>
      <point x="112" y="546" type="curve" smooth="yes"/>
      <point x="112" y="647"/>
      <point x="171" y="699"/>
      <point x="263" y="699" type="curve" smooth="yes"/>
      <point x="294" y="699"/>
      <point x="337" y="693"/>
      <point x="387" y="669" type="curve"/>
      <point x="398" y="692" type="line"/>
      <point x="355" y="712"/>
      <point x="308" y="724"/>
      <point x="262" y="724" type="curve" smooth="yes"/>
      <point x="157" y="724"/>
      <point x="85" y="664"/>
      <point x="85" y="543" type="curve" smooth="yes"/>
      <point x="85" y="427"/>
      <point x="152" y="394"/>
      <point x="240" y="353" type="curve" smooth="yes"/>
      <point x="341" y="306"/>
      <point x="391" y="282"/>
      <point x="391" y="182" type="curve" smooth="yes"/>
      <point x="391" y="74"/>
      <point x="331" y="16"/>
      <point x="229" y="16" type="curve" smooth="yes"/>
      <point x="180" y="16"/>
      <point x="123" y="30"/>
      <point x="83" y="46" type="curve"/>
      <point x="83" y="17" type="line"/>
      <point x="129" y="1"/>
      <point x="180" y="-10"/>
    </contour>
  </outline>
</glyph>
<glyph name="bracketleft" format="2">
  <advance width="500"/>
  <unicode hex="005B"/>
  <outline>
    <contour>
      <point x="206" y="-158" type="line"/>
      <point x="399" y="-158" type="line"/>
      <point x="399" y="-134" type="line"/>
      <point x="231" y="-134" type="line"/>
      <point x="231" y="690" type="line"/>
      <point x="399" y="690" type="line"/>
      <point x="399" y="714" type="line"/>
      <point x="206" y="714" type="line"/>
    </contour>
  </outline>
</glyph>
<glyph name="asciicircum" format="2">
  <advance width="500"/>
  <unicode hex="005E"/>
  <outline>
    <contour>
      <point x="41" y="325" type="line"/>
      <point x="71" y="325" type="line"/>
      <point x="257" y="684" type="line"/>
      <point x="430" y="325" type="line"/>
      <point x="460" y="325" type="line"/>
      <point x="270" y="716" type="line"/>
      <point x="247" y="716" type="line"/>
    </contour>
  </outline>
</glyph>
<glyph name="b" format="2">
  <advance width="500"/>
  <unicode hex="0062"/>
  <anchor x="250" y="0" name="bottom"/>
  <anchor x="250" y="760" name="top"/>
  <anchor x="480" y="760" name="topright"/>
  <outline>
    <contour>
      <point x="253" y="-10" type="curve" smooth="yes"/>
      <point x="381" y="-10"/>
      <point x="440" y="99"/>
      <point x="440" y="268" type="curve" smooth="yes"/>
      <point x="440" y="445"/>
      <point x="381" y="538"/>
      <point x="263" y="538" type="curve" smooth="yes"/>
      <point x="183" y="538"/>
      <point x="128" y="486"/>
      <point x="112" y="412" type="curve"/>
      <point x="110" y="412" type="line"/>
      <point x="111" y="437"/>
      <point x="111" y="476"/>
      <point x="111" y="503" type="curve" smooth="yes"/>
      <point x="111" y="760" type="line"/>
      <point x="85" y="760" type="line"/>
      <point x="85" y="0" type="line"/>
      <point x="107" y="0" type="line"/>
      <point x="111" y="101" type="line"/>
      <point x="113" y="101" type="line"/>
      <point x="133" y="36"/>
      <point x="178" y="-10"/>
    </contour>
    <contour>
      <point x="253" y="16" type="curve" smooth="yes"/>
      <point x="156" y="16"/>
      <point x="111" y="98"/>
      <point x="111" y="262" type="curve" smooth="yes"/>
      <point x="111" y="426"/>
      <point x="159" y="513"/>
      <point x="263" y="513" type="curve" smooth="yes"/>
      <point x="366" y="513"/>
      <point x="413" y="430"/>
      <point x="413" y="268" type="curve" smooth="yes"/>
      <point x="413" y="101"/>
      <point x="357" y="16"/>
    </contour>
  </outline>
</glyph>
<glyph name="d" format="2">
  <advance width="500"/>
  <unicode hex="0064"/>
  <anchor x="250" y="0" name="bottom"/>
  <anchor x="250" y="264" name="center"/>
  <anchor x="250" y="760" name="top"/>
  <anchor x="480" y="760" name="topright"/>
  <outline>
    <contour>
      <point x="232" y="-10" type="curve" smooth="yes"/>
      <point x="326" y="-10"/>
      <point x="371" y="49"/>
      <point x="389" y="110" type="curve"/>
      <point x="391" y="110" type="line"/>
      <point x="394" y="0" type="line"/>
      <point x="415" y="0" type="line"/>
      <point x="415" y="760" type="line"/>
      <point x="389" y="760" type="line"/>
      <point x="389" y="520" type="line" smooth="yes"/>
      <point x="389" y="488"/>
      <point x="390" y="457"/>
      <point x="391" y="422" type="curve"/>
      <point x="389" y="422" type="line"/>
      <point x="373" y="482"/>
      <point x="325" y="538"/>
      <point x="238" y="538" type="curve" smooth="yes"/>
      <point x="124" y="538"/>
      <point x="60" y="439"/>
      <point x="60" y="255" type="curve" smooth="yes"/>
      <point x="60" y="83"/>
      <point x="116" y="-10"/>
    </contour>
    <contour>
      <point x="233" y="15" type="curve" smooth="yes"/>
      <point x="132" y="15"/>
      <point x="87" y="99"/>
      <point x="87" y="255" type="curve" smooth="yes"/>
      <point x="87" y="426"/>
      <point x="140" y="513"/>
      <point x="239" y="513" type="curve" smooth="yes"/>
      <point x="339" y="513"/>
      <point x="389" y="429"/>
      <point x="389" y="291" type="curve" smooth="yes"/>
      <point x="389" y="242" type="line" smooth="yes"/>
      <point x="389" y="102"/>
      <point x="343" y="15"/>
    </contour>
  </outline>
</glyph>
<glyph name="j" format="2">
  <advance width="500"/>
  <unicode hex="006A"/>
  <anchor x="192" y="-248" name="bottom"/>
  <anchor x="291" y="724" name="top"/>
  <anchor x="480" y="724" name="topright"/>
  <outline>
    <contour>
      <point x="164" y="-248" type="curve" smooth="yes"/>
      <point x="249" y="-248"/>
      <point x="306" y="-196"/>
      <point x="306" y="-88" type="curve" smooth="yes"/>
      <point x="306" y="528" type="line"/>
      <point x="111" y="528" type="line"/>
      <point x="111" y="507" type="line"/>
      <point x="280" y="503" type="line"/>
      <point x="280" y="-81" type="line" smooth="yes"/>
      <point x="280" y="-168"/>
      <point x="242" y="-222"/>
      <point x="164" y="-222" type="curve" smooth="yes"/>
      <point x="126" y="-222"/>
      <point x="69" y="-210"/>
      <point x="50" y="-201" type="curve"/>
      <point x="50" y="-228" type="line"/>
      <point x="65" y="-234"/>
      <point x="117" y="-248"/>
    </contour>
    <contour>
      <point x="290" y="650" type="curve" smooth="yes"/>
      <point x="316" y="650"/>
      <point x="320" y="669"/>
      <point x="320" y="687" type="curve" smooth="yes"/>
      <point x="320" y="706"/>
      <point x="314" y="724"/>
      <point x="290" y="724" type="curve" smooth="yes"/>
      <point x="264" y="724"/>
      <point x="258" y="706"/>
      <point x="258" y="687" type="curve" smooth="yes"/>
      <point x="258" y="667"/>
      <point x="265" y="650"/>
    </contour>
  </outline>
</glyph>
<glyph name="l" format="2">
  <advance width="500"/>
  <unicode hex="006C"/>
  <anchor x="255" y="0" name="bottom"/>
  <anchor x="255" y="376" name="center"/>
  <anchor x="250" y="760" name="top"/>
  <anchor x="396" y="760" name="topright"/>
  <outline>
    <contour>
      <point x="82" y="0" type="line"/>
      <point x="432" y="0" type="line"/>
      <point x="432" y="21" type="line"/>
      <point x="269" y="25" type="line"/>
      <point x="269" y="760" type="line"/>
      <point x="94" y="760" type="line"/>
      <point x="94" y="739" type="line"/>
      <point x="243" y="735" type="line"/>
      <point x="243" y="25" type="line"/>
      <point x="82" y="21" type="line"/>
    </contour>
  </outline>
</glyph>
<glyph name="o" format="2">
  <advance width="500"/>
  <unicode hex="006F"/>
  <anchor x="250" y="0" name="bottom"/>
  <anchor x="250" y="264" name="center"/>
  <anchor x="251" y="15" name="ogonek"/>
  <anchor x="250" y="528" name="top"/>
  <anchor x="480" y="528" name="topright"/>
  <outline>
    <contour>
      <point x="251" y="-10" type="curve" smooth="yes"/>
      <point x="381" y="-10"/>
      <point x="440" y="93"/>
      <point x="440" y="264" type="curve" smooth="yes"/>
      <point x="440" y="425"/>
      <point x="389" y="537"/>
      <point x="253" y="537" type="curve" smooth="yes"/>
      <point x="127" y="537"/>
      <point x="60" y="438"/>
      <point x="60" y="265" type="curve" smooth="yes"/>
      <point x="60" y="94"/>
      <point x="123" y="-10"/>
    </contour>
    <contour>
      <point x="251" y="15" type="curve" smooth="yes"/>
      <point x="138" y="15"/>
      <point x="86" y="110"/>
      <point x="86" y="265" type="curve" smooth="yes"/>
      <point x="86" y="422"/>
      <point x="141" y="512"/>
      <point x="253" y="512" type="curve" smooth="yes"/>
      <point x="372" y="512"/>
      <point x="414" y="410"/>
      <point x="414" y="265" type="curve" smooth="yes"/>
      <point x="414" y="107"/>
      <point x="365" y="15"/>
    </contour>
  </outline>
</glyph>
<glyph name="r" format="2">
  <advance width="500"/>
  <unicode hex="0072"/>
  <anchor x="226" y="0" name="bottom"/>
  <anchor x="279" y="528" name="top"/>
  <anchor x="480" y="528" name="topright"/>
  <outline>
    <contour>
      <point x="65" y="0" type="line"/>
      <point x="395" y="0" type="line"/>
      <point x="395" y="21" type="line"/>
      <point x="238" y="25" type="line"/>
      <point x="238" y="303" type="line" smooth="yes"/>
      <point x="238" y="434"/>
      <point x="288" y="510"/>
      <point x="381" y="510" type="curve" smooth="yes"/>
      <point x="405" y="510"/>
      <point x="434" y="505"/>
      <point x="456" y="497" type="curve"/>
      <point x="462" y="523" type="line"/>
      <point x="443" y="530"/>
      <point x="409" y="536"/>
      <point x="381" y="536" type="curve" smooth="yes"/>
      <point x="300" y="536"/>
      <point x="257" y="484"/>
      <point x="240" y="427" type="curve"/>
      <point x="238" y="427" type="line"/>
      <point x="234" y="528" type="line"/>
      <point x="83" y="528" type="line"/>
      <point x="83" y="507" type="line"/>
      <point x="212" y="503" type="line"/>
      <point x="212" y="25" type="line"/>
      <point x="65" y="21" type="line"/>
    </contour>
  </outline>
</glyph>
<glyph name="u" format="2">
  <advance width="500"/>
  <unicode hex="0075"/>
  <anchor x="250" y="0" name="bottom"/>
  <anchor x="450" y="10" name="ogonek"/>
  <anchor x="250" y="528" name="top"/>
  <anchor x="480" y="528" name="topright"/>
  <outline>
    <contour>
      <point x="233" y="-10" type="curve" smooth="yes"/>
      <point x="327" y="-10"/>
      <point x="372" y="52"/>
      <point x="390" y="112" type="curve"/>
      <point x="392" y="112" type="line"/>
      <point x="395" y="0" type="line"/>
      <point x="415" y="0" type="line"/>
      <point x="415" y="528" type="line"/>
      <point x="389" y="528" type="line"/>
      <point x="389" y="227" type="line" smooth="yes"/>
      <point x="389" y="82"/>
      <point x="325" y="15"/>
      <point x="234" y="15" type="curve" smooth="yes"/>
      <point x="154" y="15"/>
      <point x="106" y="64"/>
      <point x="106" y="177" type="curve" smooth="yes"/>
      <point x="106" y="528" type="line"/>
      <point x="80" y="528" type="line"/>
      <point x="80" y="171" type="line" smooth="yes"/>
      <point x="80" y="51"/>
      <point x="131" y="-10"/>
    </contour>
  </outline>
</glyph>
<glyph name="v" format="2">
  <advance width="500"/>
  <unicode hex="0076"/>
  <anchor x="250" y="0" name="bottom"/>
  <anchor x="250" y="528" name="top"/>
  <anchor x="480" y="528" name="topright"/>
  <outline>
    <contour>
      <point x="236" y="0" type="line"/>
      <point x="263" y="0" type="line"/>
      <point x="435" y="528" type="line"/>
      <point x="409" y="528" type="line"/>
      <point x="284" y="145" type="line" smooth="yes"/>
      <point x="271" y="105"/>
      <point x="261" y="73"/>
      <point x="251" y="36" type="curve"/>
      <point x="248" y="36" type="line"/>
      <point x="239" y="73"/>
      <point x="229" y="105"/>
      <point x="216" y="145" type="curve" smooth="yes"/>
      <point x="91" y="528" type="line"/>
      <point x="65" y="528" type="line"/>
    </contour>
  </outline>
</glyph>
<glyph name="x" format="2">
  <advance width="500"/>
  <unicode hex="0078"/>
  <anchor x="250" y="0" name="bottom"/>
  <anchor x="250" y="528" name="top"/>
  <anchor x="480" y="528" name="topright"/>
  <outline>
    <contour>
      <point x="65" y="0" type="line"/>
      <point x="94" y="0" type="line"/>
      <point x="250" y="252" type="line"/>
      <point x="405" y="0" type="line"/>
      <point x="435" y="0" type="line"/>
      <point x="266" y="270" type="line"/>
      <point x="427" y="528" type="line"/>
      <point x="398" y="528" type="line"/>
      <point x="251" y="291" type="line"/>
      <point x="103" y="528" type="line"/>
      <point x="74" y="528" type="line"/>
      <point x="234" y="271" type="line"/>
    </contour>
  </outline>
</glyph>
<glyph name="z" format="2">
  <advance width="500"/>
  <unicode hex="007A"/>
  <anchor x="260" y="0" name="bottom"/>
  <anchor x="260" y="528" name="top"/>
  <anchor x="480" y="528" name="topright"/>
  <outline>
    <contour>
      <point x="95" y="0" type="line"/>
      <point x="404" y="0" type="line"/>
      <point x="404" y="25" type="line"/>
      <point x="127" y="25" type="line"/>
      <point x="404" y="509" type="line"/>
      <point x="404" y="528" type="line"/>
      <point x="116" y="528" type="line"/>
      <point x="116" y="503" type="line"/>
      <point x="371" y="503" type="line"/>
      <point x="95" y="21" type="line"/>
    </contour>
  </outline>
</glyph>
<glyph name="asciitilde" format="2">
  <advance width="500"/>
  <unicode hex="007E"/>
  <outline>
    <contour>
      <point x="51" y="311" type="line"/>
      <point x="84" y="354"/>
      <point x="119" y="371"/>
      <point x="156" y="371" type="curve" smooth="yes"/>
      <point x="195" y="371"/>
      <point x="219" y="358"/>
      <point x="250" y="341" type="curve" smooth="yes"/>
      <point x="281" y="324"/>
      <point x="307" y="311"/>
      <point x="347" y="311" type="curve" smooth="yes"/>
      <point x="390" y="311"/>
      <point x="427" y="331"/>
      <point x="449" y="356" type="curve"/>
      <point x="449" y="387" type="line"/>
      <point x="417" y="350"/>
      <point x="381" y="336"/>
      <point x="347" y="336" type="curve" smooth="yes"/>
      <point x="313" y="336"/>
      <point x="290" y="348"/>
      <point x="259" y="365" type="curve" smooth="yes"/>
      <point x="227" y="383"/>
      <point x="201" y="396"/>
      <point x="156" y="396" type="curve" smooth="yes"/>
      <point x="114" y="396"/>
      <point x="77" y="374"/>
      <point x="51" y="343" type="curve"/>
    </contour>
  </outline>
</glyph>
<glyph name="copyright" format="2">
  <advance width="500"/>
  <unicode hex="00A9"/>
  <outline>
    <contour>
      <point x="246" y="147" type="curve" smooth="yes"/>
      <point x="368" y="147"/>
      <point x="464" y="233"/>
      <point x="464" y="360" type="curve" smooth="yes"/>
      <point x="464" y="483"/>
      <point x="374" y="575"/>
      <point x="250" y="575" type="curve" smooth="yes"/>
      <point x="132" y="575"/>
      <point x="35" y="489"/>
      <point x="35" y="359" type="curve" smooth="yes"/>
      <point x="35" y="234"/>
      <point x="125" y="147"/>
    </contour>
    <contour>
      <point x="253" y="222" type="curve" smooth="yes"/>
      <point x="280" y="222"/>
      <point x="303" y="227"/>
      <point x="324" y="235" type="curve"/>
      <point x="324" y="258" type="line"/>
      <point x="299" y="248"/>
      <point x="277" y="244"/>
      <point x="259" y="244" type="curve" smooth="yes"/>
      <point x="188" y="244"/>
      <point x="144" y="282"/>
      <point x="144" y="357" type="curve" smooth="yes"/>
      <point x="144" y="432"/>
      <point x="187" y="475"/>
      <point x="259" y="475" type="curve" smooth="yes"/>
      <point x="283" y="475"/>
      <point x="307" y="469"/>
      <point x="327" y="461" type="curve"/>
      <point x="334" y="483" type="line"/>
      <point x="313" y="494"/>
      <point x="287" y="498"/>
      <point x="261" y="498" type="curve" smooth="yes"/>
      <point x="170" y="498"/>
      <point x="119" y="444"/>
      <point x="119" y="357" type="curve" smooth="yes"/>
      <point x="119" y="269"/>
      <point x="173" y="222"/>
    </contour>
    <contour>
      <point x="248" y="171" type="curve" smooth="yes"/>
      <point x="137" y="171"/>
      <point x="60" y="253"/>
      <point x="60" y="361" type="curve" smooth="yes"/>
      <point x="60" y="472"/>
      <point x="143" y="550"/>
      <point x="250" y="550" type="curve" smooth="yes"/>
      <point x="360" y="550"/>
      <point x="439" y="467"/>
      <point x="439" y="360" type="curve" smooth="yes"/>
      <point x="439" y="250"/>
      <point x="357" y="171"/>
    </contour>
  </outline>
</glyph>
<glyph name="ordfeminine" format="2">
  <advance width="500"/>
  <unicode hex="00AA"/>
  <outline>
    <contour>
      <point x="233" y="396" type="curve" smooth="yes"/>
      <point x="283" y="396"/>
      <point x="318" y="417"/>
      <point x="335" y="451" type="curve"/>
      <point x="338" y="400" type="line"/>
      <point x="358" y="400" type="line"/>
      <point x="358" y="629" type="line" smooth="yes"/>
      <point x="358" y="689"/>
      <point x="326" y="724"/>
      <point x="254" y="724" type="curve" smooth="yes"/>
      <point x="216" y="724"/>
      <point x="187" y="714"/>
      <point x="161" y="700" type="curve"/>
      <point x="170" y="680" type="line"/>
      <point x="194" y="694"/>
      <point x="220" y="702"/>
      <point x="252" y="702" type="curve" smooth="yes"/>
      <point x="305" y="702"/>
      <point x="335" y="679"/>
      <point x="335" y="623" type="curve" smooth="yes"/>
      <point x="335" y="584" type="line"/>
      <point x="279" y="581" type="line" smooth="yes"/>
      <point x="183" y="576"/>
      <point x="135" y="547"/>
      <point x="135" y="483" type="curve" smooth="yes"/>
      <point x="135" y="425"/>
      <point x="175" y="396"/>
    </contour>
    <contour>
      <point x="235" y="417" type="curve" smooth="yes"/>
      <point x="188" y="417"/>
      <point x="157" y="440"/>
      <point x="157" y="482" type="curve" smooth="yes"/>
      <point x="157" y="536"/>
      <point x="201" y="558"/>
      <point x="284" y="561" type="curve" smooth="yes"/>
      <point x="335" y="563" type="line"/>
      <point x="335" y="524" type="line" smooth="yes"/>
      <point x="335" y="461"/>
      <point x="300" y="417"/>
    </contour>
  </outline>
</glyph>
<glyph name="guillemotleft" format="2">
  <advance width="500"/>
  <unicode hex="00AB"/>
  <outline>
    <contour>
      <point x="399" y="82" type="line"/>
      <point x="416" y="92" type="line"/>
      <point x="286" y="268" type="line"/>
      <point x="416" y="444" type="line"/>
      <point x="399" y="455" type="line"/>
      <point x="253" y="274" type="line"/>
      <point x="253" y="261" type="line"/>
    </contour>
    <contour>
      <point x="230" y="82" type="line"/>
      <point x="247" y="92" type="line"/>
      <point x="116" y="268" type="line"/>
      <point x="246" y="444" type="line"/>
      <point x="230" y="455" type="line"/>
      <point x="83" y="274" type="line"/>
      <point x="83" y="261" type="line"/>
    </contour>
  </outline>
</glyph>
<glyph name="plusminus" format="2">
  <advance width="500"/>
  <unicode hex="00B1"/>
  <outline>
    <contour>
      <point x="231" y="123" type="line"/>
      <point x="255" y="123" type="line"/>
      <point x="255" y="340" type="line"/>
      <point x="442" y="340" type="line"/>
      <point x="442" y="364" type="line"/>
      <point x="255" y="364" type="line"/>
      <point x="255" y="583" type="line"/>
      <point x="231" y="583" type="line"/>
      <point x="231" y="364" type="line"/>
      <point x="42" y="364" type="line"/>
      <point x="42" y="340" type="line"/>
      <point x="231" y="340" type="line"/>
    </contour>
    <contour>
      <point x="42" y="1" type="line"/>
      <point x="436" y="1" type="line"/>
      <point x="436" y="26" type="line"/>
      <point x="42" y="26" type="line"/>
    </contour>
  </outline>
</glyph>
<glyph name="threesuperior" format="2">
  <advance width="500"/>
  <unicode hex="00B3"/>
  <outline>
    <contour>
      <point x="219" y="411" type="curve" smooth="yes"/>
      <point x="309" y="411"/>
      <point x="363" y="455"/>
      <point x="363" y="535" type="curve" smooth="yes"/>
      <point x="363" y="593"/>
      <point x="332" y="628"/>
      <point x="278" y="642" type="curve"/>
      <point x="278" y="643" type="line"/>
      <point x="320" y="655"/>
      <point x="352" y="691"/>
      <point x="352" y="748" type="curve" smooth="yes"/>
      <point x="352" y="814"/>
      <point x="306" y="851"/>
      <point x="238" y="851" type="curve" smooth="yes"/>
      <point x="190" y="851"/>
      <point x="152" y="835"/>
      <point x="120" y="811" type="curve"/>
      <point x="132" y="790" type="line"/>
      <point x="163" y="812"/>
      <point x="195" y="827"/>
      <point x="238" y="827" type="curve" smooth="yes"/>
      <point x="295" y="827"/>
      <point x="326" y="797"/>
      <point x="326" y="748" type="curve" smooth="yes"/>
      <point x="326" y="689"/>
      <point x="288" y="652"/>
      <point x="223" y="652" type="curve" smooth="yes"/>
      <point x="173" y="652" type="line"/>
      <point x="173" y="628" type="line"/>
      <point x="223" y="628" type="line" smooth="yes"/>
      <point x="299" y="628"/>
      <point x="337" y="594"/>
      <point x="337" y="535" type="curve" smooth="yes"/>
      <point x="337" y="473"/>
      <point x="296" y="435"/>
      <point x="219" y="435" type="curve" smooth="yes"/>
      <point x="181" y="435"/>
      <point x="148" y="444"/>
      <point x="115" y="460" type="curve"/>
      <point x="115" y="432" type="line"/>
      <point x="143" y="419"/>
      <point x="180" y="411"/>
    </contour>
  </outline>
</glyph>
<glyph name="acute" format="2">
  <advance width="500"/>
  <unicode hex="00B4"/>
  <outline>
    <contour>
      <point x="222" y="606" type="line"/>
      <point x="240" y="606" type="line"/>
      <point x="286" y="647"/>
      <point x="343" y="711"/>
      <point x="377" y="758" type="curve"/>
      <point x="377" y="765" type="line"/>
      <point x="347" y="765" type="line"/>
      <point x="316" y="717"/>
      <point x="267" y="662"/>
      <point x="222" y="615" type="curve"/>
    </contour>
  </outline>
</glyph>
<glyph name="onesuperior" format="2">
  <advance width="500"/>
  <unicode hex="00B9"/>
  <outline>
    <contour>
      <point x="248" y="416" type="line"/>
      <point x="274" y="416" type="line"/>
      <point x="274" y="843" type="line"/>
      <point x="255" y="843" type="line"/>
      <point x="129" y="768" type="line"/>
      <point x="140" y="748" type="line"/>
      <point x="199" y="783" type="line" smooth="yes"/>
      <point x="220" y="795"/>
      <point x="233" y="802"/>
      <point x="250" y="814" type="curve"/>
      <point x="249" y="784"/>
      <point x="248" y="742"/>
      <point x="248" y="708" type="curve" smooth="yes"/>
    </contour>
    <contour>
      <point x="142" y="416" type="line"/>
      <point x="377" y="416" type="line"/>
      <point x="377" y="435" type="line"/>
      <point x="274" y="440" type="line"/>
      <point x="249" y="440" type="line"/>
      <point x="142" y="435" type="line"/>
    </contour>
  </outline>
</glyph>
<glyph name="ordmasculine" format="2">
  <advance width="500"/>
  <unicode hex="00BA"/>
  <outline>
    <contour>
      <point x="250" y="396" type="curve" smooth="yes"/>
      <point x="336" y="396"/>
      <point x="376" y="467"/>
      <point x="376" y="562" type="curve" smooth="yes"/>
      <point x="376" y="654"/>
      <point x="338" y="725"/>
      <point x="253" y="725" type="curve" smooth="yes"/>
      <point x="172" y="725"/>
      <point x="124" y="661"/>
      <point x="124" y="559" type="curve" smooth="yes"/>
      <point x="124" y="464"/>
      <point x="166" y="396"/>
    </contour>
    <contour>
      <point x="250" y="417" type="curve" smooth="yes"/>
      <point x="182" y="417"/>
      <point x="147" y="475"/>
      <point x="147" y="559" type="curve" smooth="yes"/>
      <point x="147" y="650"/>
      <point x="188" y="704"/>
      <point x="252" y="704" type="curve" smooth="yes"/>
      <point x="321" y="704"/>
      <point x="353" y="640"/>
      <point x="353" y="560" type="curve" smooth="yes"/>
      <point x="353" y="477"/>
      <point x="319" y="417"/>
    </contour>
  </outline>
</glyph>
<glyph name="AE" format="2">
  <advance width="500"/>
  <unicode hex="00C6"/>
  <anchor x="250" y="0" name="bottom"/>
  <anchor x="301" y="714" name="top"/>
  <outline>
    <contour>
      <point x="20" y="0" type="line"/>
      <point x="47" y="0" type="line"/>
      <point x="222" y="689" type="line"/>
      <point x="257" y="689" type="line"/>
      <point x="257" y="0" type="line"/>
      <point x="475" y="0" type="line"/>
      <point x="475" y="25" type="line"/>
      <point x="283" y="25" type="line"/>
      <point x="283" y="364" type="line"/>
      <point x="459" y="364" type="line"/>
      <point x="459" y="389" type="line"/>
      <point x="283" y="389" type="line"/>
      <point x="283" y="689" type="line"/>
      <point x="475" y="689" type="line"/>
      <point x="475" y="714" type="line"/>
      <point x="204" y="714" type="line"/>
    </contour>
    <contour>
      <point x="103" y="275" type="line"/>
      <point x="270" y="275" type="line"/>
      <point x="265" y="300" type="line"/>
      <point x="108" y="300" type="line"/>
    </contour>
  </outline>
</glyph>
<glyph name="Eth" format="2">
  <advance width="500"/>
  <unicode hex="00D0"/>
  <anchor x="250" y="0" name="bottom"/>
  <anchor x="250" y="714" name="top"/>
  <anchor x="509" y="714" name="topright"/>
  <anchor x="257" y="357" name="center"/>
  <outline>
    <contour>
      <point x="0" y="353" type="line"/>
      <point x="258" y="353" type="line"/>
      <point x="258" y="378" type="line"/>
      <point x="0" y="378" type="line"/>
    </contour>
    <component base="D" xOffset="9"/>
  </outline>
</glyph>
<glyph name="multiply" format="2">
  <advance width="500"/>
  <unicode hex="00D7"/>
  <outline>
    <contour>
      <point x="66" y="166" type="line"/>
      <point x="237" y="337" type="line"/>
      <point x="406" y="167" type="line"/>
      <point x="423" y="183" type="line"/>
      <point x="253" y="354" type="line"/>
      <point x="424" y="525" type="line"/>
      <point x="407" y="541" type="line"/>
      <point x="237" y="370" type="line"/>
      <point x="68" y="541" type="line"/>
      <point x="51" y="524" type="line"/>
      <point x="221" y="354" type="line"/>
      <point x="50" y="183" type="line"/>
    </contour>
  </outline>
</glyph>
<glyph name="germandbls" format="2">
  <advance width="500"/>
  <unicode hex="00DF"/>
  <anchor x="250" y="0" name="bottom"/>
  <anchor x="250" y="765" name="top"/>
  <outline>
    <contour>
      <point x="307" y="-10" type="curve" smooth="yes"/>
      <point x="406" y="-10"/>
      <point x="452" y="58"/>
      <point x="452" y="135" type="curve" smooth="yes"/>
      <point x="452" y="213"/>
      <point x="415" y="252"/>
      <point x="364" y="298" type="curve" smooth="yes"/>
      <point x="317" y="340"/>
      <point x="284" y="368"/>
      <point x="284" y="424" type="curve" smooth="yes"/>
      <point x="284" y="520"/>
      <point x="398" y="523"/>
      <point x="398" y="643" type="curve" smooth="yes"/>
      <point x="398" y="713"/>
      <point x="353" y="765"/>
      <point x="267" y="765" type="curve" smooth="yes"/>
      <point x="164" y="765"/>
      <point x="110" y="695"/>
      <point x="110" y="572" type="curve" smooth="yes"/>
      <point x="110" y="0" type="line"/>
      <point x="136" y="0" type="line"/>
      <point x="136" y="571" type="line" smooth="yes"/>
      <point x="136" y="676"/>
      <point x="176" y="740"/>
      <point x="267" y="740" type="curve" smooth="yes"/>
      <point x="336" y="740"/>
      <point x="371" y="700"/>
      <point x="371" y="643" type="curve" smooth="yes"/>
      <point x="371" y="535"/>
      <point x="257" y="532"/>
      <point x="257" y="424" type="curve" smooth="yes"/>
      <point x="257" y="360"/>
      <point x="297" y="325"/>
      <point x="345" y="281" type="curve" smooth="yes"/>
      <point x="390" y="240"/>
      <point x="425" y="204"/>
      <point x="425" y="135" type="curve" smooth="yes"/>
      <point x="425" y="65"/>
      <point x="384" y="15"/>
      <point x="307" y="15" type="curve" smooth="yes"/>
      <point x="269" y="15"/>
      <point x="235" y="24"/>
      <point x="200" y="43" type="curve"/>
      <point x="200" y="15" type="line"/>
      <point x="228" y="0"/>
      <point x="261" y="-10"/>
    </contour>
  </outline>
</glyph>
<glyph name="oslash" format="2">
  <advance width="500"/>
  <unicode hex="00F8"/>
  <anchor x="250" y="0" name="bottom"/>
  <anchor x="250" y="528" name="top"/>
  <anchor x="251" y="15" name="ogonek"/>
  <anchor x="480" y="528" name="topright"/>
  <anchor x="250" y="264" name="center"/>
  <outline>
    <contour>
      <point x="58" y="-54" type="line"/>
      <point x="461" y="557" type="line"/>
      <point x="441" y="570" type="line"/>
      <point x="38" y="-40" type="line"/>
    </contour>
    <component base="o"/>
  </outline>
</glyph>
<glyph name="thorn" format="2">
  <advance width="500"/>
  <unicode hex="00FE"/>
  <anchor x="264" y="-240" name="bottom"/>
  <anchor x="264" y="714" name="top"/>
  <outline>
    <contour>
      <point x="85" y="-240" type="line"/>
      <point x="111" y="-240" type="line"/>
      <point x="111" y="11" type="line" smooth="yes"/>
      <point x="111" y="48"/>
      <point x="111" y="83"/>
      <point x="109" y="112" type="curve"/>
      <point x="112" y="112" type="line"/>
      <point x="129" y="50"/>
      <point x="172" y="-10"/>
      <point x="258" y="-10" type="curve" smooth="yes"/>
      <point x="371" y="-10"/>
      <point x="440" y="83"/>
      <point x="440" y="270" type="curve" smooth="yes"/>
      <point x="440" y="448"/>
      <point x="380" y="537"/>
      <point x="265" y="537" type="curve" smooth="yes"/>
      <point x="173" y="537"/>
      <point x="129" y="472"/>
      <point x="109" y="403" type="curve"/>
      <point x="107" y="403" type="line"/>
      <point x="110" y="444"/>
      <point x="111" y="486"/>
      <point x="111" y="527" type="curve" smooth="yes"/>
      <point x="111" y="714" type="line"/>
      <point x="85" y="714" type="line"/>
    </contour>
    <contour>
      <point x="259" y="15" type="curve" smooth="yes"/>
      <point x="171" y="15"/>
      <point x="111" y="95"/>
      <point x="111" y="241" type="curve" smooth="yes"/>
      <point x="111" y="279" type="line" smooth="yes"/>
      <point x="111" y="419"/>
      <point x="165" y="512"/>
      <point x="264" y="512" type="curve" smooth="yes"/>
      <point x="364" y="512"/>
      <point x="414" y="429"/>
      <point x="414" y="270" type="curve" smooth="yes"/>
      <point x="414" y="90"/>
      <point x="350" y="15"/>
    </contour>
  </outline>
</glyph>
<glyph name="eng" format="2">
  <advance width="500"/>
  <unicode hex="014B"/>
  <anchor x="260" y="-241" name="bottom"/>
  <anchor x="255" y="528" name="top"/>
  <anchor x="480" y="528" name="topright"/>
  <outline>
    <contour>
      <point x="321" y="-241" type="curve" smooth="yes"/>
      <point x="380" y="-241"/>
      <point x="420" y="-202"/>
      <point x="420" y="-116" type="curve" smooth="yes"/>
      <point x="419" y="270" type="line" smooth="yes"/>
      <point x="393" y="266" type="line"/>
      <point x="395" y="-114" type="line" smooth="yes"/>
      <point x="395" y="-178"/>
      <point x="371" y="-216"/>
      <point x="321" y="-216" type="curve" smooth="yes"/>
      <point x="304" y="-216"/>
      <point x="281" y="-214"/>
      <point x="266" y="-207" type="curve"/>
      <point x="266" y="-233" type="line"/>
      <point x="278" y="-238"/>
      <point x="299" y="-241"/>
    </contour>
    <component base="n"/>
  </outline>
</glyph>
<glyph name="Uogonek" format="2">
  <advance width="500"/>
  <unicode hex="0172"/>
  <anchor x="275" y="-217" name="bottom"/>
  <anchor x="250" y="714" name="top"/>
  <anchor x="450" y="10" name="ogonek"/>
  <anchor x="480" y="714" name="topright"/>
  <outline>
    <contour>
      <point x="273" y="-217" type="curve" smooth="yes"/>
      <point x="288" y="-217"/>
      <point x="304" y="-214"/>
      <point x="313" y="-210" type="curve"/>
      <point x="313" y="-187" type="line"/>
      <point x="305" y="-190"/>
      <point x="287" y="-193"/>
      <point x="274" y="-193" type="curve" smooth="yes"/>
      <point x="238" y="-193"/>
      <point x="221" y="-172"/>
      <point x="221" y="-135" type="curve" smooth="yes"/>
      <point x="221" y="-79"/>
      <point x="266" y="-32"/>
      <point x="337" y="13" type="curve"/>
      <point x="309" y="20" type="line"/>
      <point x="228" y="-31"/>
      <point x="194" y="-84"/>
      <point x="194" y="-138" type="curve" smooth="yes"/>
      <point x="194" y="-190"/>
      <point x="226" y="-217"/>
    </contour>
    <component base="U"/>
  </outline>
</glyph>
<glyph name="uni0191" format="2">
  <advance width="500"/>
  <unicode hex="0191"/>
  <anchor x="263" y="-148" name="bottom"/>
  <anchor x="257" y="714" name="top"/>
  <outline>
    <contour>
      <point x="32" y="-153" type="curve" smooth="yes"/>
      <point x="93" y="-153"/>
      <point x="121" y="-106"/>
      <point x="121" y="-9" type="curve" smooth="yes"/>
      <point x="121" y="329" type="line"/>
      <point x="389" y="329" type="line"/>
      <point x="389" y="354" type="line"/>
      <point x="121" y="354" type="line"/>
      <point x="121" y="689" type="line"/>
      <point x="405" y="689" type="line"/>
      <point x="405" y="714" type="line"/>
      <point x="95" y="714" type="line"/>
      <point x="95" y="-3" type="line" smooth="yes"/>
      <point x="95" y="-86"/>
      <point x="77" y="-128"/>
      <point x="32" y="-128" type="curve" smooth="yes"/>
      <point x="9" y="-128"/>
      <point x="-5" y="-120"/>
      <point x="-21" y="-114" type="curve"/>
      <point x="-21" y="-140" type="line"/>
      <point x="-7" y="-148"/>
      <point x="12" y="-153"/>
    </contour>
  </outline>
</glyph>
<glyph name="uni0193" format="2">
  <advance width="500"/>
  <unicode hex="0193"/>
  <anchor x="250" y="0" name="bottom"/>
  <anchor x="250" y="853" name="top"/>
  <anchor x="480" y="714" name="topright"/>
  <outline>
    <contour>
      <point x="393" y="681" type="line"/>
      <point x="418" y="681" type="line"/>
      <point x="418" y="771" type="line" smooth="yes"/>
      <point x="418" y="817"/>
      <point x="432" y="829"/>
      <point x="454" y="829" type="curve" smooth="yes"/>
      <point x="471" y="829"/>
      <point x="483" y="822"/>
      <point x="488" y="818" type="curve"/>
      <point x="488" y="844" type="line"/>
      <point x="478" y="850"/>
      <point x="467" y="853"/>
      <point x="453" y="853" type="curve" smooth="yes"/>
      <point x="414" y="853"/>
      <point x="393" y="832"/>
      <point x="393" y="769" type="curve" smooth="yes"/>
    </contour>
    <component base="G"/>
  </outline>
</glyph>
<glyph name="uni0194" format="2">
  <advance width="500"/>
  <unicode hex="0194"/>
  <anchor x="250" y="-242" name="bottom"/>
  <anchor x="250" y="714" name="top"/>
  <outline>
    <contour>
      <point x="250" y="-242" type="curve" smooth="yes"/>
      <point x="307" y="-242"/>
      <point x="329" y="-193"/>
      <point x="329" y="-132" type="curve" smooth="yes"/>
      <point x="329" y="-63"/>
      <point x="301" y="15"/>
      <point x="261" y="119" type="curve"/>
      <point x="465" y="714" type="line"/>
      <point x="440" y="714" type="line"/>
      <point x="271" y="223" type="line" smooth="yes"/>
      <point x="264" y="204"/>
      <point x="256" y="179"/>
      <point x="249" y="158" type="curve"/>
      <point x="242" y="180"/>
      <point x="234" y="201"/>
      <point x="227" y="223" type="curve" smooth="yes"/>
      <point x="60" y="714" type="line"/>
      <point x="35" y="714" type="line"/>
      <point x="237" y="120" type="line"/>
      <point x="212" y="53"/>
      <point x="172" y="-48"/>
      <point x="172" y="-131" type="curve" smooth="yes"/>
      <point x="172" y="-190"/>
      <point x="192" y="-242"/>
    </contour>
    <contour>
      <point x="251" y="-221" type="curve" smooth="yes"/>
      <point x="207" y="-221"/>
      <point x="196" y="-175"/>
      <point x="196" y="-127" type="curve" smooth="yes"/>
      <point x="196" y="-59"/>
      <point x="219" y="11"/>
      <point x="249" y="84" type="curve"/>
      <point x="284" y="-2"/>
      <point x="305" y="-66"/>
      <point x="305" y="-130" type="curve" smooth="yes"/>
      <point x="305" y="-175"/>
      <point x="295" y="-221"/>
    </contour>
  </outline>
</glyph>
<glyph name="uni0196" format="2">
  <advance width="500"/>
  <unicode hex="0196"/>
  <anchor x="286" y="0" name="bottom"/>
  <anchor x="189" y="714" name="top"/>
  <outline>
    <contour>
      <point x="313" y="-10" type="curve" smooth="yes"/>
      <point x="340" y="-10"/>
      <point x="371" y="-5"/>
      <point x="402" y="4" type="curve"/>
      <point x="402" y="29" type="line"/>
      <point x="366" y="20"/>
      <point x="344" y="15"/>
      <point x="317" y="15" type="curve" smooth="yes"/>
      <point x="245" y="15"/>
      <point x="203" y="50"/>
      <point x="203" y="175" type="curve" smooth="yes"/>
      <point x="203" y="714" type="line"/>
      <point x="177" y="714" type="line"/>
      <point x="177" y="166" type="line" smooth="yes"/>
      <point x="177" y="37"/>
      <point x="230" y="-10"/>
    </contour>
  </outline>
</glyph>
<glyph name="uni0198" format="2">
  <advance width="500"/>
  <unicode hex="0198"/>
  <anchor x="250" y="0" name="bottom"/>
  <anchor x="250" y="714" name="top"/>
  <outline>
    <contour>
      <point x="65" y="0" type="line"/>
      <point x="91" y="0" type="line"/>
      <point x="91" y="283" type="line"/>
      <point x="183" y="391" type="line"/>
      <point x="410" y="0" type="line"/>
      <point x="438" y="0" type="line"/>
      <point x="200" y="411" type="line"/>
      <point x="380" y="634" type="line" smooth="yes"/>
      <point x="417" y="680"/>
      <point x="437" y="693"/>
      <point x="458" y="693" type="curve" smooth="yes"/>
      <point x="466" y="693"/>
      <point x="475" y="691"/>
      <point x="480" y="688" type="curve"/>
      <point x="480" y="714" type="line"/>
      <point x="473" y="717"/>
      <point x="466" y="718"/>
      <point x="458" y="718" type="curve" smooth="yes"/>
      <point x="432" y="718"/>
      <point x="407" y="707"/>
      <point x="359" y="648" type="curve" smooth="yes"/>
      <point x="153" y="395" type="line" smooth="yes"/>
      <point x="127" y="363"/>
      <point x="112" y="346"/>
      <point x="91" y="321" type="curve"/>
      <point x="91" y="714" type="line"/>
      <point x="65" y="714" type="line"/>
    </contour>
  </outline>
</glyph>
<glyph name="uni019D" format="2">
  <advance width="500"/>
  <unicode hex="019D"/>
  <anchor x="250" y="-144" name="bottom"/>
  <anchor x="250" y="714" name="top"/>
  <anchor x="500" y="714" name="topright"/>
  <outline>
    <contour>
      <point x="25" y="-144" type="curve" smooth="yes"/>
      <point x="68" y="-144"/>
      <point x="91" y="-111"/>
      <point x="91" y="-34" type="curve" smooth="yes"/>
      <point x="91" y="68" type="line"/>
      <point x="65" y="68" type="line"/>
      <point x="65" y="-30" type="line" smooth="yes"/>
      <point x="65" y="-92"/>
      <point x="52" y="-119"/>
      <point x="25" y="-119" type="curve" smooth="yes"/>
      <point x="13" y="-119"/>
      <point x="-2" y="-116"/>
      <point x="-13" y="-110" type="curve"/>
      <point x="-13" y="-136" type="line"/>
      <point x="-3" y="-141"/>
      <point x="10" y="-144"/>
    </contour>
    <component base="N"/>
  </outline>
</glyph>
<glyph name="uni01A2" format="2">
  <advance width="500"/>
  <unicode hex="01A2"/>
  <anchor x="85" y="0" name="bottom"/>
  <anchor x="102" y="10" name="ogonek"/>
  <anchor x="260" y="714" name="top"/>
  <anchor x="-146" y="714" name="topleft"/>
  <anchor x="691" y="714" name="topright"/>
  <outline>
    <contour>
      <point x="82" y="-10" type="curve" smooth="yes"/>
      <point x="249" y="-10"/>
      <point x="315" y="152"/>
      <point x="315" y="361" type="curve" smooth="yes"/>
      <point x="315" y="553"/>
      <point x="260" y="724"/>
      <point x="86" y="724" type="curve" smooth="yes"/>
      <point x="-72" y="724"/>
      <point x="-161" y="586"/>
      <point x="-161" y="360" type="curve" smooth="yes"/>
      <point x="-161" y="160"/>
      <point x="-91" y="-10"/>
    </contour>
    <contour>
      <point x="83" y="15" type="curve" smooth="yes"/>
      <point x="-59" y="15"/>
      <point x="-135" y="150"/>
      <point x="-135" y="356" type="curve" smooth="yes"/>
      <point x="-135" y="564"/>
      <point x="-58" y="700"/>
      <point x="84" y="700" type="curve" smooth="yes"/>
      <point x="217" y="700"/>
      <point x="288" y="578"/>
      <point x="288" y="358" type="curve" smooth="yes"/>
      <point x="288" y="146"/>
      <point x="222" y="15"/>
    </contour>
    <contour>
      <point x="635" y="0" type="line"/>
      <point x="661" y="0" type="line"/>
      <point x="661" y="518" type="line" smooth="yes"/>
      <point x="661" y="655"/>
      <point x="588" y="724"/>
      <point x="466" y="724" type="curve" smooth="yes"/>
      <point x="367" y="724"/>
      <point x="299" y="678"/>
      <point x="256" y="620" type="curve"/>
      <point x="269" y="597" type="line"/>
      <point x="311" y="660"/>
      <point x="380" y="699"/>
      <point x="465" y="699" type="curve" smooth="yes"/>
      <point x="569" y="699"/>
      <point x="635" y="641"/>
      <point x="635" y="513" type="curve" smooth="yes"/>
    </contour>
  </outline>
</glyph>
<glyph name="uni01A4" format="2">
  <advance width="500"/>
  <unicode hex="01A4"/>
  <anchor x="286" y="0" name="bottom"/>
  <anchor x="286" y="714" name="top"/>
  <outline>
    <contour>
      <point x="135" y="0" type="line"/>
      <point x="161" y="0" type="line"/>
      <point x="161" y="306" type="line"/>
      <point x="250" y="306" type="line" smooth="yes"/>
      <point x="385" y="306"/>
      <point x="455" y="372"/>
      <point x="455" y="514" type="curve" smooth="yes"/>
      <point x="455" y="663"/>
      <point x="378" y="714"/>
      <point x="243" y="714" type="curve" smooth="yes"/>
      <point x="135" y="714" type="line" smooth="yes"/>
      <point x="61" y="714"/>
      <point x="21" y="664"/>
      <point x="21" y="595" type="curve" smooth="yes"/>
      <point x="21" y="579"/>
      <point x="23" y="559"/>
      <point x="27" y="544" type="curve"/>
      <point x="53" y="544" type="line"/>
      <point x="51" y="556"/>
      <point x="47" y="577"/>
      <point x="47" y="596" type="curve" smooth="yes"/>
      <point x="47" y="652"/>
      <point x="81" y="687"/>
      <point x="135" y="689" type="curve"/>
    </contour>
    <contour>
      <point x="161" y="331" type="line"/>
      <point x="161" y="689" type="line"/>
      <point x="234" y="689" type="line" smooth="yes"/>
      <point x="367" y="689"/>
      <point x="428" y="645"/>
      <point x="428" y="516" type="curve" smooth="yes"/>
      <point x="428" y="385"/>
      <point x="366" y="331"/>
      <point x="241" y="331" type="curve" smooth="yes"/>
    </contour>
  </outline>
</glyph>
<glyph name="uni01A6" format="2">
  <advance width="500"/>
  <unicode hex="01A6"/>
  <anchor x="266" y="-100" name="bottom"/>
  <anchor x="266" y="714" name="top"/>
  <outline>
    <contour>
      <point x="434" y="-100" type="line"/>
      <point x="463" y="-100" type="line"/>
      <point x="280" y="225" type="line"/>
      <point x="395" y="251"/>
      <point x="440" y="318"/>
      <point x="440" y="422" type="curve" smooth="yes"/>
      <point x="440" y="571"/>
      <point x="350" y="614"/>
      <point x="190" y="614" type="curve" smooth="yes"/>
      <point x="121" y="614" type="line"/>
      <point x="121" y="714" type="line"/>
      <point x="95" y="714" type="line"/>
      <point x="95" y="0" type="line"/>
      <point x="121" y="0" type="line"/>
      <point x="121" y="220" type="line"/>
      <point x="253" y="220" type="line"/>
    </contour>
    <contour>
      <point x="121" y="245" type="line"/>
      <point x="121" y="589" type="line"/>
      <point x="186" y="589" type="line" smooth="yes"/>
      <point x="334" y="589"/>
      <point x="413" y="550"/>
      <point x="413" y="424" type="curve" smooth="yes"/>
      <point x="413" y="301"/>
      <point x="332" y="245"/>
      <point x="216" y="245" type="curve" smooth="yes"/>
    </contour>
  </outline>
</glyph>
<glyph name="uni01AC" format="2">
  <advance width="500"/>
  <unicode hex="01AC"/>
  <anchor x="250" y="0" name="bottom"/>
  <anchor x="250" y="714" name="top"/>
  <outline>
    <contour>
      <point x="236" y="0" type="line"/>
      <point x="262" y="0" type="line"/>
      <point x="262" y="689" type="line"/>
      <point x="455" y="689" type="line"/>
      <point x="455" y="714" type="line"/>
      <point x="126" y="714" type="line" smooth="yes"/>
      <point x="64" y="714"/>
      <point x="30" y="665"/>
      <point x="30" y="596" type="curve" smooth="yes"/>
      <point x="30" y="579"/>
      <point x="32" y="559"/>
      <point x="36" y="544" type="curve"/>
      <point x="62" y="544" type="line"/>
      <point x="60" y="556"/>
      <point x="56" y="577"/>
      <point x="56" y="596" type="curve" smooth="yes"/>
      <point x="56" y="654"/>
      <point x="84" y="689"/>
      <point x="130" y="689" type="curve" smooth="yes"/>
      <point x="236" y="689" type="line"/>
    </contour>
  </outline>
</glyph>
<glyph name="uni01AD" format="2">
  <advance width="500"/>
  <unicode hex="01AD"/>
  <anchor x="250" y="0" name="bottom"/>
  <anchor x="250" y="765" name="top"/>
  <outline>
    <contour>
      <point x="351" y="-10" type="curve" smooth="yes"/>
      <point x="386" y="-10"/>
      <point x="408" y="-4"/>
      <point x="430" y="3" type="curve"/>
      <point x="430" y="28" type="line"/>
      <point x="408" y="20"/>
      <point x="384" y="15"/>
      <point x="351" y="15" type="curve" smooth="yes"/>
      <point x="265" y="15"/>
      <point x="241" y="75"/>
      <point x="241" y="183" type="curve" smooth="yes"/>
      <point x="241" y="503" type="line"/>
      <point x="418" y="503" type="line"/>
      <point x="418" y="528" type="line"/>
      <point x="241" y="528" type="line"/>
      <point x="241" y="597" type="line" smooth="yes"/>
      <point x="241" y="696"/>
      <point x="273" y="740"/>
      <point x="335" y="740" type="curve" smooth="yes"/>
      <point x="365" y="740"/>
      <point x="385" y="734"/>
      <point x="400" y="728" type="curve"/>
      <point x="400" y="754" type="line"/>
      <point x="386" y="759"/>
      <point x="368" y="765"/>
      <point x="336" y="765" type="curve" smooth="yes"/>
      <point x="254" y="765"/>
      <point x="215" y="707"/>
      <point x="215" y="602" type="curve" smooth="yes"/>
      <point x="215" y="528" type="line"/>
      <point x="84" y="524" type="line"/>
      <point x="84" y="503" type="line"/>
      <point x="215" y="503" type="line"/>
      <point x="215" y="180" type="line" smooth="yes"/>
      <point x="215" y="62"/>
      <point x="246" y="-10"/>
    </contour>
  </outline>
</glyph>
<glyph name="uni01AE" format="2">
  <advance width="500"/>
  <unicode hex="01AE"/>
  <anchor x="316" y="-152" name="bottom"/>
  <anchor x="250" y="714" name="top"/>
  <outline>
    <contour>
      <point x="335" y="-152" type="curve" smooth="yes"/>
      <point x="359" y="-152"/>
      <point x="382" y="-147"/>
      <point x="399" y="-139" type="curve"/>
      <point x="399" y="-113" type="line"/>
      <point x="380" y="-121"/>
      <point x="358" y="-127"/>
      <point x="337" y="-127" type="curve" smooth="yes"/>
      <point x="284" y="-127"/>
      <point x="262" y="-88"/>
      <point x="262" y="-3" type="curve" smooth="yes"/>
      <point x="262" y="689" type="line"/>
      <point x="455" y="689" type="line"/>
      <point x="455" y="714" type="line"/>
      <point x="45" y="714" type="line"/>
      <point x="45" y="689" type="line"/>
      <point x="236" y="689" type="line"/>
      <point x="236" y="-11" type="line" smooth="yes"/>
      <point x="236" y="-107"/>
      <point x="268" y="-152"/>
    </contour>
  </outline>
</glyph>
<glyph name="uni01B2" format="2">
  <advance width="500"/>
  <unicode hex="01B2"/>
  <anchor x="250" y="0" name="bottom"/>
  <anchor x="450" y="10" name="ogonek"/>
  <anchor x="250" y="714" name="top"/>
  <anchor x="480" y="714" name="topright"/>
  <outline>
    <contour>
      <point x="249" y="-10" type="curve" smooth="yes"/>
      <point x="356" y="-10"/>
      <point x="435" y="58"/>
      <point x="435" y="230" type="curve" smooth="yes"/>
      <point x="435" y="637" type="line" smooth="yes"/>
      <point x="435" y="700"/>
      <point x="409" y="724"/>
      <point x="369" y="724" type="curve" smooth="yes"/>
      <point x="350" y="724"/>
      <point x="335" y="717"/>
      <point x="327" y="710" type="curve"/>
      <point x="327" y="685" type="line"/>
      <point x="335" y="692"/>
      <point x="350" y="700"/>
      <point x="368" y="700" type="curve" smooth="yes"/>
      <point x="396" y="700"/>
      <point x="409" y="680"/>
      <point x="409" y="636" type="curve" smooth="yes"/>
      <point x="409" y="233" type="line" smooth="yes"/>
      <point x="409" y="78"/>
      <point x="345" y="15"/>
      <point x="250" y="15" type="curve" smooth="yes"/>
      <point x="149" y="15"/>
      <point x="91" y="84"/>
      <point x="91" y="239" type="curve" smooth="yes"/>
      <point x="91" y="714" type="line"/>
      <point x="65" y="714" type="line"/>
      <point x="65" y="236" type="line" smooth="yes"/>
      <point x="65" y="70"/>
      <point x="132" y="-10"/>
    </contour>
  </outline>
</glyph>
<glyph name="uni01B4" format="2">
  <advance width="500"/>
  <unicode hex="01B4"/>
  <anchor x="250" y="-243" name="bottom"/>
  <anchor x="250" y="528" name="top"/>
  <outline>
    <contour>
      <point x="93" y="-243" type="curve" smooth="yes"/>
      <point x="156" y="-243"/>
      <point x="191" y="-201"/>
      <point x="219" y="-112" type="curve" smooth="yes"/>
      <point x="400" y="470" type="line" smooth="yes"/>
      <point x="409" y="500"/>
      <point x="420" y="509"/>
      <point x="445" y="509" type="curve" smooth="yes"/>
      <point x="454" y="509"/>
      <point x="464" y="507"/>
      <point x="471" y="504" type="curve"/>
      <point x="471" y="529" type="line"/>
      <point x="465" y="531"/>
      <point x="452" y="533"/>
      <point x="443" y="533" type="curve" smooth="yes"/>
      <point x="405" y="533"/>
      <point x="389" y="516"/>
      <point x="375" y="472" type="curve" smooth="yes"/>
      <point x="275" y="155" type="line" smooth="yes"/>
      <point x="261" y="112"/>
      <point x="252" y="83"/>
      <point x="243" y="48" type="curve"/>
      <point x="241" y="48" type="line"/>
      <point x="235" y="69"/>
      <point x="228" y="92"/>
      <point x="207" y="156" type="curve" smooth="yes"/>
      <point x="84" y="528" type="line"/>
      <point x="58" y="528" type="line"/>
      <point x="230" y="10" type="line"/>
      <point x="192" y="-112" type="line" smooth="yes"/>
      <point x="167" y="-193"/>
      <point x="134" y="-217"/>
      <point x="93" y="-217" type="curve" smooth="yes"/>
      <point x="77" y="-217"/>
      <point x="63" y="-213"/>
      <point x="48" y="-207" type="curve"/>
      <point x="48" y="-234" type="line"/>
      <point x="64" y="-240"/>
      <point x="77" y="-243"/>
    </contour>
  </outline>
</glyph>
<glyph name="uni01B6" format="2">
  <advance width="500"/>
  <unicode hex="01B6"/>
  <anchor x="260" y="0" name="bottom"/>
  <anchor x="260" y="528" name="top"/>
  <anchor x="480" y="528" name="topright"/>
  <outline>
    <contour>
      <point x="116" y="260" type="line"/>
      <point x="393" y="260" type="line"/>
      <point x="393" y="283" type="line"/>
      <point x="116" y="283" type="line"/>
    </contour>
    <component base="z"/>
  </outline>
</glyph>
<glyph name="uni021C" format="2">
  <advance width="500"/>
  <unicode hex="021C"/>
  <anchor x="250" y="-80" name="bottom"/>
  <anchor x="250" y="714" name="top"/>
  <outline>
    <contour>
      <point x="67" y="-180" type="line"/>
      <point x="326" y="-103"/>
      <point x="429" y="-10"/>
      <point x="429" y="153" type="curve" smooth="yes"/>
      <point x="429" y="261"/>
      <point x="375" y="323"/>
      <point x="310" y="360" type="curve"/>
      <point x="378" y="398"/>
      <point x="418" y="450"/>
      <point x="418" y="544" type="curve" smooth="yes"/>
      <point x="418" y="669"/>
      <point x="344" y="724"/>
      <point x="252" y="724" type="curve" smooth="yes"/>
      <point x="181" y="724"/>
      <point x="126" y="695"/>
      <point x="72" y="648" type="curve"/>
      <point x="90" y="631" type="line"/>
      <point x="136" y="671"/>
      <point x="185" y="699"/>
      <point x="252" y="699" type="curve" smooth="yes"/>
      <point x="319" y="699"/>
      <point x="391" y="664"/>
      <point x="391" y="544" type="curve" smooth="yes"/>
      <point x="391" y="410"/>
      <point x="306" y="373"/>
      <point x="160" y="331" type="curve"/>
      <point x="168" y="307" type="line"/>
      <point x="212" y="320"/>
      <point x="252" y="333"/>
      <point x="287" y="349" type="curve"/>
      <point x="360" y="306"/>
      <point x="402" y="248"/>
      <point x="402" y="152" type="curve" smooth="yes"/>
      <point x="402" y="12"/>
      <point x="311" y="-78"/>
      <point x="67" y="-152" type="curve"/>
    </contour>
  </outline>
</glyph>
<glyph name="uni0221" format="2">
  <advance width="500"/>
  <unicode hex="0221"/>
  <anchor x="250" y="-98" name="bottom"/>
  <anchor x="250" y="760" name="top"/>
  <outline>
    <contour>
      <point x="332" y="-98" type="line"/>
      <point x="334" y="-59"/>
      <point x="337" y="-19"/>
      <point x="342" y="18" type="curve"/>
      <point x="365" y="5"/>
      <point x="385" y="0"/>
      <point x="408" y="0" type="curve" smooth="yes"/>
      <point x="466" y="0"/>
      <point x="495" y="47"/>
      <point x="495" y="113" type="curve" smooth="yes"/>
      <point x="495" y="177"/>
      <point x="466" y="213"/>
      <point x="417" y="213" type="curve" smooth="yes"/>
      <point x="356" y="213"/>
      <point x="334" y="152"/>
      <point x="323" y="59" type="curve"/>
      <point x="308" y="75"/>
      <point x="301" y="106"/>
      <point x="301" y="147" type="curve" smooth="yes"/>
      <point x="301" y="760" type="line"/>
      <point x="275" y="760" type="line"/>
      <point x="275" y="514" type="line" smooth="yes"/>
      <point x="275" y="492"/>
      <point x="276" y="470"/>
      <point x="277" y="455" type="curve"/>
      <point x="275" y="455" type="line"/>
      <point x="264" y="505"/>
      <point x="229" y="537"/>
      <point x="175" y="537" type="curve" smooth="yes"/>
      <point x="76" y="537"/>
      <point x="32" y="450"/>
      <point x="32" y="256" type="curve" smooth="yes"/>
      <point x="32" y="63"/>
      <point x="71" y="-10"/>
      <point x="171" y="-10" type="curve" smooth="yes"/>
      <point x="237" y="-10"/>
      <point x="268" y="39"/>
      <point x="280" y="92" type="curve"/>
      <point x="283" y="92" type="line"/>
      <point x="288" y="68"/>
      <point x="302" y="45"/>
      <point x="320" y="31" type="curve"/>
      <point x="314" y="-9"/>
      <point x="311" y="-51"/>
      <point x="308" y="-97" type="curve"/>
    </contour>
    <contour>
      <point x="173" y="15" type="curve" smooth="yes"/>
      <point x="90" y="15"/>
      <point x="58" y="82"/>
      <point x="58" y="256" type="curve" smooth="yes"/>
      <point x="58" y="436"/>
      <point x="92" y="512"/>
      <point x="176" y="512" type="curve" smooth="yes"/>
      <point x="233" y="512"/>
      <point x="275" y="456"/>
      <point x="275" y="315" type="curve" smooth="yes"/>
      <point x="275" y="211" type="line" smooth="yes"/>
      <point x="275" y="87"/>
      <point x="235" y="15"/>
    </contour>
    <contour>
      <point x="406" y="23" type="curve" smooth="yes"/>
      <point x="387" y="23"/>
      <point x="365" y="29"/>
      <point x="346" y="43" type="curve"/>
      <point x="355" y="122"/>
      <point x="365" y="190"/>
      <point x="417" y="190" type="curve" smooth="yes"/>
      <point x="456" y="190"/>
      <point x="470" y="153"/>
      <point x="470" y="113" type="curve" smooth="yes"/>
      <point x="470" y="52"/>
      <point x="443" y="23"/>
    </contour>
  </outline>
</glyph>
<glyph name="uni0222" format="2">
  <advance width="500"/>
  <unicode hex="0222"/>
  <anchor x="250" y="0" name="bottom"/>
  <anchor x="250" y="714" name="top"/>
  <outline>
    <contour>
      <point x="247" y="-10" type="curve" smooth="yes"/>
      <point x="400" y="-10"/>
      <point x="442" y="102"/>
      <point x="442" y="206" type="curve" smooth="yes"/>
      <point x="442" y="299"/>
      <point x="408" y="388"/>
      <point x="312" y="415" type="curve"/>
      <point x="376" y="443"/>
      <point x="412" y="496"/>
      <point x="412" y="620" type="curve" smooth="yes"/>
      <point x="412" y="714" type="line"/>
      <point x="386" y="714" type="line"/>
      <point x="386" y="624" type="line" smooth="yes"/>
      <point x="386" y="482"/>
      <point x="338" y="427"/>
      <point x="250" y="427" type="curve" smooth="yes"/>
      <point x="162" y="427"/>
      <point x="110" y="483"/>
      <point x="110" y="624" type="curve" smooth="yes"/>
      <point x="110" y="714" type="line"/>
      <point x="84" y="714" type="line"/>
      <point x="84" y="620" type="line" smooth="yes"/>
      <point x="84" y="503"/>
      <point x="121" y="440"/>
      <point x="186" y="415" type="curve"/>
      <point x="98" y="394"/>
      <point x="54" y="319"/>
      <point x="54" y="208" type="curve" smooth="yes"/>
      <point x="54" y="106"/>
      <point x="91" y="-10"/>
    </contour>
    <contour>
      <point x="248" y="15" type="curve" smooth="yes"/>
      <point x="139" y="15"/>
      <point x="81" y="83"/>
      <point x="81" y="208" type="curve" smooth="yes"/>
      <point x="81" y="332"/>
      <point x="138" y="400"/>
      <point x="250" y="400" type="curve" smooth="yes"/>
      <point x="358" y="400"/>
      <point x="415" y="334"/>
      <point x="415" y="208" type="curve" smooth="yes"/>
      <point x="415" y="82"/>
      <point x="357" y="15"/>
    </contour>
  </outline>
</glyph>
<glyph name="uni0223" format="2">
  <advance width="500"/>
  <unicode hex="0223"/>
  <anchor x="250" y="0" name="bottom"/>
  <anchor x="250" y="760" name="top"/>
  <outline>
    <contour>
      <point x="252" y="-12" type="curve" smooth="yes"/>
      <point x="361" y="-12"/>
      <point x="449" y="67"/>
      <point x="449" y="224" type="curve" smooth="yes"/>
      <point x="449" y="373"/>
      <point x="372" y="437"/>
      <point x="320" y="447" type="curve"/>
      <point x="365" y="460"/>
      <point x="422" y="506"/>
      <point x="422" y="638" type="curve" smooth="yes"/>
      <point x="422" y="760" type="line"/>
      <point x="396" y="760" type="line"/>
      <point x="396" y="645" type="line" smooth="yes"/>
      <point x="396" y="493"/>
      <point x="340" y="461"/>
      <point x="246" y="461" type="curve" smooth="yes"/>
      <point x="153" y="461"/>
      <point x="105" y="500"/>
      <point x="105" y="638" type="curve" smooth="yes"/>
      <point x="105" y="760" type="line"/>
      <point x="79" y="760" type="line"/>
      <point x="79" y="635" type="line" smooth="yes"/>
      <point x="79" y="501"/>
      <point x="131" y="461"/>
      <point x="181" y="447" type="curve"/>
      <point x="133" y="436"/>
      <point x="51" y="372"/>
      <point x="51" y="227" type="curve" smooth="yes"/>
      <point x="51" y="74"/>
      <point x="141" y="-12"/>
    </contour>
    <contour>
      <point x="252" y="13" type="curve" smooth="yes"/>
      <point x="160" y="13"/>
      <point x="78" y="89"/>
      <point x="78" y="227" type="curve" smooth="yes"/>
      <point x="78" y="366"/>
      <point x="153" y="436"/>
      <point x="246" y="436" type="curve" smooth="yes"/>
      <point x="357" y="436"/>
      <point x="422" y="369"/>
      <point x="422" y="224" type="curve" smooth="yes"/>
      <point x="422" y="86"/>
      <point x="344" y="13"/>
    </contour>
  </outline>
</glyph>
<glyph name="uni0234" format="2">
  <advance width="500"/>
  <unicode hex="0234"/>
  <anchor x="286" y="0" name="bottom"/>
  <anchor x="145" y="760" name="top"/>
  <outline>
    <contour>
      <point x="64" y="-22" type="line"/>
      <point x="77" y="19"/>
      <point x="110" y="73"/>
      <point x="139" y="96" type="curve"/>
      <point x="155" y="30"/>
      <point x="202" y="-10"/>
      <point x="291" y="-10" type="curve" smooth="yes"/>
      <point x="374" y="-10"/>
      <point x="426" y="26"/>
      <point x="426" y="91" type="curve" smooth="yes"/>
      <point x="426" y="147"/>
      <point x="386" y="185"/>
      <point x="293" y="185" type="curve" smooth="yes"/>
      <point x="235" y="185"/>
      <point x="185" y="162"/>
      <point x="159" y="143" type="curve"/>
      <point x="159" y="760" type="line"/>
      <point x="133" y="760" type="line"/>
      <point x="133" y="189" type="line" smooth="yes"/>
      <point x="133" y="167"/>
      <point x="133" y="144"/>
      <point x="135" y="126" type="curve"/>
      <point x="94" y="93"/>
      <point x="57" y="37"/>
      <point x="40" y="-14" type="curve"/>
    </contour>
    <contour>
      <point x="291" y="15" type="curve" smooth="yes"/>
      <point x="210" y="15"/>
      <point x="169" y="56"/>
      <point x="163" y="115" type="curve"/>
      <point x="192" y="141"/>
      <point x="242" y="160"/>
      <point x="291" y="160" type="curve" smooth="yes"/>
      <point x="366" y="160"/>
      <point x="400" y="133"/>
      <point x="400" y="89" type="curve" smooth="yes"/>
      <point x="400" y="46"/>
      <point x="365" y="15"/>
    </contour>
  </outline>
</glyph>
<glyph name="uni0236" format="2">
  <advance width="500"/>
  <unicode hex="0236"/>
  <anchor x="345" y="0" name="bottom"/>
  <anchor x="231" y="659" name="top"/>
  <outline>
    <contour>
      <point x="129" y="-22" type="line"/>
      <point x="146" y="26"/>
      <point x="182" y="77"/>
      <point x="209" y="104" type="curve"/>
      <point x="219" y="38"/>
      <point x="261" y="-10"/>
      <point x="341" y="-10" type="curve" smooth="yes"/>
      <point x="402" y="-10"/>
      <point x="457" y="26"/>
      <point x="457" y="89" type="curve" smooth="yes"/>
      <point x="457" y="148"/>
      <point x="418" y="185"/>
      <point x="345" y="185" type="curve" smooth="yes"/>
      <point x="291" y="185"/>
      <point x="251" y="164"/>
      <point x="230" y="150" type="curve"/>
      <point x="230" y="503" type="line"/>
      <point x="408" y="503" type="line"/>
      <point x="408" y="528" type="line"/>
      <point x="230" y="528" type="line"/>
      <point x="230" y="659" type="line"/>
      <point x="208" y="659" type="line"/>
      <point x="203" y="528" type="line"/>
      <point x="74" y="524" type="line"/>
      <point x="74" y="503" type="line"/>
      <point x="204" y="503" type="line"/>
      <point x="204" y="191" type="line" smooth="yes"/>
      <point x="204" y="167"/>
      <point x="204" y="151"/>
      <point x="205" y="132" type="curve"/>
      <point x="165" y="98"/>
      <point x="125" y="41"/>
      <point x="105" y="-14" type="curve"/>
    </contour>
    <contour>
      <point x="341" y="15" type="curve" smooth="yes"/>
      <point x="270" y="15"/>
      <point x="238" y="62"/>
      <point x="233" y="123" type="curve"/>
      <point x="257" y="140"/>
      <point x="296" y="160"/>
      <point x="344" y="160" type="curve" smooth="yes"/>
      <point x="399" y="160"/>
      <point x="430" y="133"/>
      <point x="430" y="89" type="curve" smooth="yes"/>
      <point x="430" y="46"/>
      <point x="395" y="15"/>
    </contour>
  </outline>
</glyph>
<glyph name="uni023F" format="2">
  <advance width="500"/>
  <unicode hex="023F"/>
  <anchor x="280" y="-240" name="bottom"/>
  <anchor x="250" y="528" name="top"/>
  <anchor x="480" y="528" name="topright"/>
  <outline>
    <contour>
      <point x="335" y="-232" type="curve" smooth="yes"/>
      <point x="356" y="-232"/>
      <point x="372" y="-227"/>
      <point x="381" y="-222" type="curve"/>
      <point x="381" y="-196" type="line"/>
      <point x="369" y="-203"/>
      <point x="354" y="-207"/>
      <point x="336" y="-207" type="curve" smooth="yes"/>
      <point x="276" y="-207"/>
      <point x="257" y="-156"/>
      <point x="242" y="-98" type="curve" smooth="yes"/>
      <point x="225" y="-33"/>
      <point x="213" y="-15"/>
      <point x="195" y="-3" type="curve"/>
      <point x="146" y="9" type="line"/>
      <point x="186" y="-11"/>
      <point x="199" y="-29"/>
      <point x="216" y="-97" type="curve" smooth="yes"/>
      <point x="234" y="-169"/>
      <point x="257" y="-232"/>
    </contour>
    <component base="s"/>
  </outline>
</glyph>
<glyph name="uni0241" format="2">
  <advance width="500"/>
  <unicode hex="0241"/>
  <anchor x="229" y="0" name="bottom"/>
  <anchor x="229" y="714" name="top"/>
  <outline>
    <contour>
      <point x="217" y="0" type="line"/>
      <point x="243" y="0" type="line"/>
      <point x="243" y="283" type="line"/>
      <point x="329" y="320"/>
      <point x="436" y="373"/>
      <point x="436" y="528" type="curve" smooth="yes"/>
      <point x="436" y="650"/>
      <point x="363" y="723"/>
      <point x="232" y="723" type="curve" smooth="yes"/>
      <point x="153" y="723"/>
      <point x="95" y="697"/>
      <point x="52" y="674" type="curve"/>
      <point x="62" y="651" type="line"/>
      <point x="98" y="670"/>
      <point x="157" y="698"/>
      <point x="231" y="698" type="curve" smooth="yes"/>
      <point x="345" y="698"/>
      <point x="409" y="638"/>
      <point x="409" y="526" type="curve" smooth="yes"/>
      <point x="409" y="385"/>
      <point x="313" y="338"/>
      <point x="217" y="299" type="curve"/>
    </contour>
  </outline>
</glyph>
<glyph name="uni0242" format="2">
  <advance width="500"/>
  <unicode hex="0242"/>
  <anchor x="245" y="0" name="bottom"/>
  <anchor x="257" y="528" name="top"/>
  <outline>
    <contour>
      <point x="215" y="0" type="line"/>
      <point x="241" y="0" type="line"/>
      <point x="241" y="125" type="line"/>
      <point x="319" y="179"/>
      <point x="401" y="239"/>
      <point x="401" y="362" type="curve" smooth="yes"/>
      <point x="401" y="473"/>
      <point x="334" y="537"/>
      <point x="234" y="537" type="curve" smooth="yes"/>
      <point x="176" y="537"/>
      <point x="135" y="521"/>
      <point x="99" y="500" type="curve"/>
      <point x="110" y="477" type="line"/>
      <point x="142" y="495"/>
      <point x="179" y="512"/>
      <point x="233" y="512" type="curve" smooth="yes"/>
      <point x="316" y="512"/>
      <point x="374" y="463"/>
      <point x="374" y="359" type="curve" smooth="yes"/>
      <point x="374" y="247"/>
      <point x="305" y="200"/>
      <point x="215" y="136" type="curve"/>
    </contour>
  </outline>
</glyph>
<glyph name="uni0249" format="2">
  <advance width="500"/>
  <unicode hex="0249"/>
  <anchor x="250" y="-248" name="bottom"/>
  <anchor x="290" y="724" name="top"/>
  <anchor x="480" y="724" name="topright"/>
  <outline>
    <contour>
      <point x="141" y="239" type="line"/>
      <point x="445" y="239" type="line"/>
      <point x="445" y="264" type="line"/>
      <point x="141" y="264" type="line"/>
    </contour>
    <component base="j"/>
  </outline>
</glyph>
<glyph name="uni024D" format="2">
  <advance width="500"/>
  <unicode hex="024D"/>
  <anchor x="250" y="0" name="bottom"/>
  <anchor x="250" y="528" name="top"/>
  <anchor x="480" y="528" name="topright"/>
  <outline>
    <contour>
      <point x="91" y="247" type="line"/>
      <point x="367" y="247" type="line"/>
      <point x="367" y="272" type="line"/>
      <point x="91" y="272" type="line"/>
    </contour>
    <component base="r"/>
  </outline>
</glyph>
<glyph name="uni024E" format="2">
  <advance width="500"/>
  <unicode hex="024E"/>
  <anchor x="250" y="0" name="bottom"/>
  <anchor x="250" y="714" name="top"/>
  <anchor x="20" y="714" name="topleft"/>
  <anchor x="480" y="714" name="topright"/>
  <outline>
    <contour>
      <point x="0" y="548" type="line"/>
      <point x="500" y="548" type="line"/>
      <point x="500" y="572" type="line"/>
      <point x="0" y="572" type="line"/>
    </contour>
    <component base="Y"/>
  </outline>
</glyph>
<glyph name="uni0255" format="2">
  <advance width="500"/>
  <unicode hex="0255"/>
  <anchor x="250" y="0" name="bottom"/>
  <anchor x="250" y="528" name="top"/>
  <outline>
    <contour>
      <point x="118" y="-18" type="line"/>
      <point x="123" y="3"/>
      <point x="140" y="40"/>
      <point x="151" y="59" type="curve"/>
      <point x="176" y="25"/>
      <point x="224" y="-10"/>
      <point x="302" y="-10" type="curve" smooth="yes"/>
      <point x="395" y="-10"/>
      <point x="434" y="35"/>
      <point x="434" y="92" type="curve" smooth="yes"/>
      <point x="434" y="148"/>
      <point x="395" y="188"/>
      <point x="309" y="188" type="curve" smooth="yes"/>
      <point x="231" y="188"/>
      <point x="181" y="146"/>
      <point x="152" y="104" type="curve"/>
      <point x="134" y="135"/>
      <point x="122" y="189"/>
      <point x="122" y="258" type="curve" smooth="yes"/>
      <point x="122" y="426"/>
      <point x="194" y="513"/>
      <point x="322" y="513" type="curve" smooth="yes"/>
      <point x="360" y="513"/>
      <point x="396" y="504"/>
      <point x="417" y="494" type="curve"/>
      <point x="426" y="518" type="line"/>
      <point x="399" y="530"/>
      <point x="361" y="538"/>
      <point x="322" y="538" type="curve" smooth="yes"/>
      <point x="177" y="538"/>
      <point x="95" y="436"/>
      <point x="95" y="258" type="curve" smooth="yes"/>
      <point x="95" y="182"/>
      <point x="109" y="123"/>
      <point x="135" y="81" type="curve"/>
      <point x="120" y="57"/>
      <point x="102" y="19"/>
      <point x="93" y="-11" type="curve"/>
    </contour>
    <contour>
      <point x="302" y="15" type="curve" smooth="yes"/>
      <point x="238" y="15"/>
      <point x="195" y="43"/>
      <point x="167" y="81" type="curve"/>
      <point x="194" y="124"/>
      <point x="239" y="165"/>
      <point x="307" y="165" type="curve" smooth="yes"/>
      <point x="377" y="165"/>
      <point x="407" y="135"/>
      <point x="407" y="92" type="curve" smooth="yes"/>
      <point x="407" y="49"/>
      <point x="381" y="15"/>
    </contour>
  </outline>
</glyph>
<glyph name="schwahook" format="2">
  <advance width="500"/>
  <unicode hex="025A"/>
  <anchor x="178" y="0" name="bottom"/>
  <anchor x="183" y="528" name="top"/>
  <outline>
    <contour>
      <point x="184" y="-10" type="curve" smooth="yes"/>
      <point x="303" y="-10"/>
      <point x="337" y="103"/>
      <point x="337" y="296" type="curve"/>
      <point x="363" y="304" type="line"/>
      <point x="375" y="219"/>
      <point x="396" y="190"/>
      <point x="446" y="190" type="curve" smooth="yes"/>
      <point x="468" y="190"/>
      <point x="488" y="198"/>
      <point x="503" y="211" type="curve"/>
      <point x="491" y="230" type="line"/>
      <point x="477" y="219"/>
      <point x="465" y="213"/>
      <point x="448" y="213" type="curve" smooth="yes"/>
      <point x="413" y="213"/>
      <point x="399" y="234"/>
      <point x="391" y="289" type="curve" smooth="yes"/>
      <point x="384" y="336" type="line"/>
      <point x="336" y="322" type="line"/>
      <point x="326" y="466"/>
      <point x="272" y="537"/>
      <point x="170" y="537" type="curve" smooth="yes"/>
      <point x="125" y="537"/>
      <point x="90" y="526"/>
      <point x="58" y="508" type="curve"/>
      <point x="58" y="479" type="line"/>
      <point x="87" y="498"/>
      <point x="124" y="512"/>
      <point x="168" y="512" type="curve" smooth="yes"/>
      <point x="260" y="512"/>
      <point x="302" y="436"/>
      <point x="309" y="315" type="curve"/>
      <point x="42" y="240" type="line"/>
      <point x="42" y="64"/>
      <point x="79" y="-10"/>
    </contour>
    <contour>
      <point x="184" y="15" type="curve" smooth="yes"/>
      <point x="94" y="15"/>
      <point x="69" y="90"/>
      <point x="69" y="222" type="curve"/>
      <point x="310" y="289" type="line"/>
      <point x="310" y="92"/>
      <point x="273" y="15"/>
    </contour>
  </outline>
</glyph>
<glyph name="eopenreversedhook" format="2">
  <advance width="500"/>
  <unicode hex="025D"/>
  <anchor x="204" y="0" name="bottom"/>
  <anchor x="204" y="527" name="top"/>
  <outline>
    <contour>
      <point x="461" y="301" type="curve" smooth="yes"/>
      <point x="483" y="301"/>
      <point x="503" y="309"/>
      <point x="518" y="322" type="curve"/>
      <point x="506" y="341" type="line"/>
      <point x="492" y="330"/>
      <point x="480" y="324"/>
      <point x="463" y="324" type="curve" smooth="yes"/>
      <point x="428" y="324"/>
      <point x="414" y="345"/>
      <point x="406" y="400" type="curve" smooth="yes"/>
      <point x="399" y="447" type="line"/>
      <point x="351" y="433" type="line"/>
      <point x="352" y="407" type="line"/>
      <point x="378" y="415" type="line"/>
      <point x="390" y="330"/>
      <point x="411" y="301"/>
    </contour>
    <component base="afii10073" xOffset="-39"/>
  </outline>
</glyph>
<glyph name="uni025F" format="2">
  <advance width="500"/>
  <unicode hex="025F"/>
  <anchor x="250" y="-240" name="bottom"/>
  <anchor x="257" y="528" name="top"/>
  <outline>
    <contour>
      <point x="193" y="-242" type="curve" smooth="yes"/>
      <point x="233" y="-242"/>
      <point x="266" y="-216"/>
      <point x="266" y="-125" type="curve" smooth="yes"/>
      <point x="266" y="263" type="line"/>
      <point x="335" y="263" type="line"/>
      <point x="335" y="288" type="line"/>
      <point x="266" y="288" type="line"/>
      <point x="266" y="527" type="line"/>
      <point x="240" y="527" type="line"/>
      <point x="240" y="288" type="line"/>
      <point x="173" y="288" type="line"/>
      <point x="173" y="263" type="line"/>
      <point x="240" y="263" type="line"/>
      <point x="240" y="-115" type="line" smooth="yes"/>
      <point x="240" y="-179"/>
      <point x="228" y="-216"/>
      <point x="192" y="-216" type="curve" smooth="yes"/>
      <point x="182" y="-216"/>
      <point x="171" y="-213"/>
      <point x="164" y="-209" type="curve"/>
      <point x="164" y="-236" type="line"/>
      <point x="170" y="-239"/>
      <point x="179" y="-242"/>
    </contour>
  </outline>
</glyph>
<glyph name="uni0260" format="2">
  <advance width="500"/>
  <unicode hex="0260"/>
  <anchor x="250" y="-241" name="bottom"/>
  <anchor x="250" y="765" name="top"/>
  <outline>
    <contour>
      <point x="215" y="-241" type="curve" smooth="yes"/>
      <point x="357" y="-241"/>
      <point x="415" y="-163"/>
      <point x="415" y="-30" type="curve" smooth="yes"/>
      <point x="415" y="665" type="line" smooth="yes"/>
      <point x="415" y="716"/>
      <point x="428" y="740"/>
      <point x="460" y="740" type="curve" smooth="yes"/>
      <point x="471" y="740"/>
      <point x="480" y="738"/>
      <point x="491" y="733" type="curve"/>
      <point x="491" y="759" type="line"/>
      <point x="483" y="762"/>
      <point x="473" y="765"/>
      <point x="458" y="765" type="curve" smooth="yes"/>
      <point x="416" y="765"/>
      <point x="389" y="740"/>
      <point x="389" y="668" type="curve" smooth="yes"/>
      <point x="389" y="498" type="line" smooth="yes"/>
      <point x="389" y="483"/>
      <point x="390" y="458"/>
      <point x="391" y="439" type="curve"/>
      <point x="388" y="439" type="line"/>
      <point x="366" y="492"/>
      <point x="324" y="538"/>
      <point x="237" y="538" type="curve" smooth="yes"/>
      <point x="116" y="538"/>
      <point x="60" y="432"/>
      <point x="60" y="259" type="curve" smooth="yes"/>
      <point x="60" y="79"/>
      <point x="121" y="-10"/>
      <point x="227" y="-10" type="curve" smooth="yes"/>
      <point x="313" y="-10"/>
      <point x="370" y="39"/>
      <point x="389" y="114" type="curve"/>
      <point x="392" y="114" type="line"/>
      <point x="389" y="74"/>
      <point x="389" y="50"/>
      <point x="389" y="15" type="curve" smooth="yes"/>
      <point x="389" y="-30" type="line" smooth="yes"/>
      <point x="389" y="-152"/>
      <point x="337" y="-216"/>
      <point x="215" y="-216" type="curve" smooth="yes"/>
      <point x="159" y="-216"/>
      <point x="114" y="-201"/>
      <point x="75" y="-179" type="curve"/>
      <point x="75" y="-208" type="line"/>
      <point x="113" y="-228"/>
      <point x="157" y="-241"/>
    </contour>
    <contour>
      <point x="227" y="15" type="curve" smooth="yes"/>
      <point x="135" y="15"/>
      <point x="86" y="96"/>
      <point x="86" y="259" type="curve" smooth="yes"/>
      <point x="86" y="414"/>
      <point x="131" y="513"/>
      <point x="237" y="513" type="curve" smooth="yes"/>
      <point x="350" y="513"/>
      <point x="389" y="423"/>
      <point x="389" y="312" type="curve" smooth="yes"/>
      <point x="389" y="234" type="line" smooth="yes"/>
      <point x="389" y="131"/>
      <point x="355" y="15"/>
    </contour>
  </outline>
</glyph>
<glyph name="uni0264" format="2">
  <advance width="500"/>
  <unicode hex="0264"/>
  <anchor x="250" y="0" name="bottom"/>
  <anchor x="250" y="528" name="top"/>
  <outline>
    <contour>
      <point x="247" y="-9" type="curve" smooth="yes"/>
      <point x="298" y="-9"/>
      <point x="321" y="30"/>
      <point x="321" y="87" type="curve" smooth="yes"/>
      <point x="321" y="140"/>
      <point x="301" y="189"/>
      <point x="264" y="260" type="curve"/>
      <point x="366" y="459" type="line" smooth="yes"/>
      <point x="385" y="495"/>
      <point x="399" y="512"/>
      <point x="427" y="512" type="curve" smooth="yes"/>
      <point x="441" y="512"/>
      <point x="452" y="508"/>
      <point x="461" y="502" type="curve"/>
      <point x="461" y="527" type="line"/>
      <point x="453" y="533"/>
      <point x="441" y="537"/>
      <point x="424" y="537" type="curve" smooth="yes"/>
      <point x="396" y="537"/>
      <point x="373" y="526"/>
      <point x="347" y="476" type="curve" smooth="yes"/>
      <point x="278" y="341" type="line" smooth="yes"/>
      <point x="265" y="316"/>
      <point x="258" y="301"/>
      <point x="251" y="284" type="curve"/>
      <point x="249" y="284" type="line"/>
      <point x="241" y="304"/>
      <point x="237" y="311"/>
      <point x="222" y="340" type="curve" smooth="yes"/>
      <point x="154" y="474" type="line" smooth="yes"/>
      <point x="129" y="523"/>
      <point x="110" y="537"/>
      <point x="79" y="537" type="curve" smooth="yes"/>
      <point x="61" y="537"/>
      <point x="46" y="532"/>
      <point x="38" y="525" type="curve"/>
      <point x="38" y="501" type="line"/>
      <point x="45" y="506"/>
      <point x="59" y="512"/>
      <point x="75" y="512" type="curve" smooth="yes"/>
      <point x="104" y="512"/>
      <point x="117" y="492"/>
      <point x="134" y="459" type="curve" smooth="yes"/>
      <point x="235" y="261" type="line"/>
      <point x="197" y="187"/>
      <point x="174" y="142"/>
      <point x="174" y="85" type="curve" smooth="yes"/>
      <point x="174" y="29"/>
      <point x="196" y="-9"/>
    </contour>
    <contour>
      <point x="246" y="16" type="curve" smooth="yes"/>
      <point x="214" y="16"/>
      <point x="199" y="43"/>
      <point x="199" y="86" type="curve" smooth="yes"/>
      <point x="199" y="136"/>
      <point x="218" y="180"/>
      <point x="250" y="235" type="curve"/>
      <point x="277" y="183"/>
      <point x="295" y="136"/>
      <point x="295" y="88" type="curve" smooth="yes"/>
      <point x="295" y="42"/>
      <point x="278" y="16"/>
    </contour>
  </outline>
</glyph>
<glyph name="uni0271" format="2">
  <advance width="500"/>
  <unicode hex="0271"/>
  <anchor x="391" y="-240" name="bottom"/>
  <anchor x="250" y="528" name="top"/>
  <outline>
    <contour>
      <point x="365" y="-242" type="curve" smooth="yes"/>
      <point x="417" y="-242"/>
      <point x="444" y="-213"/>
      <point x="444" y="-145" type="curve" smooth="yes"/>
      <point x="444" y="403" type="line" smooth="yes"/>
      <point x="444" y="505"/>
      <point x="410" y="537"/>
      <point x="354" y="537" type="curve" smooth="yes"/>
      <point x="299" y="537"/>
      <point x="271" y="501"/>
      <point x="258" y="460" type="curve"/>
      <point x="255" y="460" type="line"/>
      <point x="250" y="496"/>
      <point x="229" y="537"/>
      <point x="174" y="537" type="curve" smooth="yes"/>
      <point x="114" y="537"/>
      <point x="90" y="492"/>
      <point x="80" y="457" type="curve"/>
      <point x="78" y="457" type="line"/>
      <point x="75" y="528" type="line"/>
      <point x="56" y="528" type="line"/>
      <point x="56" y="0" type="line"/>
      <point x="82" y="0" type="line"/>
      <point x="82" y="366" type="line" smooth="yes"/>
      <point x="82" y="440"/>
      <point x="113" y="513"/>
      <point x="172" y="513" type="curve" smooth="yes"/>
      <point x="208" y="513"/>
      <point x="238" y="497"/>
      <point x="238" y="384" type="curve" smooth="yes"/>
      <point x="238" y="0" type="line"/>
      <point x="264" y="0" type="line"/>
      <point x="264" y="366" type="line" smooth="yes"/>
      <point x="264" y="458"/>
      <point x="298" y="513"/>
      <point x="351" y="513" type="curve" smooth="yes"/>
      <point x="388" y="513"/>
      <point x="418" y="493"/>
      <point x="418" y="401" type="curve" smooth="yes"/>
      <point x="418" y="-142" type="line" smooth="yes"/>
      <point x="418" y="-193"/>
      <point x="405" y="-217"/>
      <point x="363" y="-217" type="curve" smooth="yes"/>
      <point x="349" y="-217"/>
      <point x="335" y="-213"/>
      <point x="324" y="-208" type="curve"/>
      <point x="324" y="-234" type="line"/>
      <point x="332" y="-237"/>
      <point x="347" y="-242"/>
    </contour>
  </outline>
</glyph>
<glyph name="uni0272" format="2">
  <advance width="500"/>
  <unicode hex="0272"/>
  <anchor x="255" y="-240" name="bottom"/>
  <anchor x="247" y="528" name="top"/>
  <outline>
    <contour>
      <point x="42" y="-242" type="curve" smooth="yes"/>
      <point x="84" y="-242"/>
      <point x="111" y="-217"/>
      <point x="111" y="-145" type="curve" smooth="yes"/>
      <point x="111" y="307" type="line" smooth="yes"/>
      <point x="111" y="446"/>
      <point x="179" y="512"/>
      <point x="270" y="512" type="curve" smooth="yes"/>
      <point x="348" y="512"/>
      <point x="394" y="467"/>
      <point x="394" y="355" type="curve" smooth="yes"/>
      <point x="394" y="0" type="line"/>
      <point x="420" y="0" type="line"/>
      <point x="420" y="361" type="line" smooth="yes"/>
      <point x="420" y="483"/>
      <point x="366" y="537"/>
      <point x="270" y="537" type="curve" smooth="yes"/>
      <point x="175" y="537"/>
      <point x="128" y="476"/>
      <point x="110" y="416" type="curve"/>
      <point x="108" y="416" type="line"/>
      <point x="105" y="528" type="line"/>
      <point x="85" y="528" type="line"/>
      <point x="85" y="-142" type="line" smooth="yes"/>
      <point x="85" y="-193"/>
      <point x="72" y="-217"/>
      <point x="40" y="-217" type="curve" smooth="yes"/>
      <point x="29" y="-217"/>
      <point x="20" y="-215"/>
      <point x="9" y="-210" type="curve"/>
      <point x="9" y="-236" type="line"/>
      <point x="17" y="-239"/>
      <point x="27" y="-242"/>
    </contour>
  </outline>
</glyph>
<glyph name="uni0273" format="2">
  <advance width="500"/>
  <unicode hex="0273"/>
  <anchor x="260" y="-242" name="bottom"/>
  <anchor x="255" y="528" name="top"/>
  <outline>
    <contour>
      <point x="463" y="-242" type="curve" smooth="yes"/>
      <point x="478" y="-242"/>
      <point x="488" y="-239"/>
      <point x="496" y="-236" type="curve"/>
      <point x="496" y="-210" type="line"/>
      <point x="485" y="-215"/>
      <point x="476" y="-217"/>
      <point x="465" y="-217" type="curve" smooth="yes"/>
      <point x="433" y="-217"/>
      <point x="420" y="-193"/>
      <point x="420" y="-142" type="curve" smooth="yes"/>
      <point x="420" y="361" type="line" smooth="yes"/>
      <point x="420" y="483"/>
      <point x="366" y="537"/>
      <point x="270" y="537" type="curve" smooth="yes"/>
      <point x="175" y="537"/>
      <point x="128" y="476"/>
      <point x="110" y="416" type="curve"/>
      <point x="108" y="416" type="line"/>
      <point x="105" y="528" type="line"/>
      <point x="85" y="528" type="line"/>
      <point x="85" y="0" type="line"/>
      <point x="111" y="0" type="line"/>
      <point x="111" y="307" type="line" smooth="yes"/>
      <point x="111" y="446"/>
      <point x="179" y="512"/>
      <point x="270" y="512" type="curve" smooth="yes"/>
      <point x="348" y="512"/>
      <point x="394" y="467"/>
      <point x="394" y="355" type="curve" smooth="yes"/>
      <point x="394" y="-145" type="line" smooth="yes"/>
      <point x="394" y="-217"/>
      <point x="421" y="-242"/>
    </contour>
  </outline>
</glyph>
<glyph name="uni0274" format="2">
  <advance width="500"/>
  <unicode hex="0274"/>
  <anchor x="250" y="0" name="bottom"/>
  <anchor x="250" y="528" name="top"/>
  <outline>
    <contour>
      <point x="77" y="0" type="line"/>
      <point x="103" y="0" type="line"/>
      <point x="103" y="386" type="line" smooth="yes"/>
      <point x="103" y="417"/>
      <point x="103" y="452"/>
      <point x="102" y="487" type="curve"/>
      <point x="380" y="0" type="line"/>
      <point x="408" y="0" type="line"/>
      <point x="408" y="532" type="line"/>
      <point x="382" y="532" type="line"/>
      <point x="382" y="144" type="line" smooth="yes"/>
      <point x="382" y="111"/>
      <point x="382" y="80"/>
      <point x="383" y="46" type="curve"/>
      <point x="105" y="532" type="line"/>
      <point x="77" y="532" type="line"/>
    </contour>
  </outline>
</glyph>
<glyph name="omegaclosed" format="2">
  <advance width="500"/>
  <unicode hex="0277"/>
  <anchor x="251" y="0" name="bottom"/>
  <anchor x="252" y="528" name="top"/>
  <outline>
    <contour>
      <point x="160" y="-10" type="curve" smooth="yes"/>
      <point x="217" y="-10"/>
      <point x="237" y="35"/>
      <point x="248" y="82" type="curve"/>
      <point x="250" y="82" type="line"/>
      <point x="261" y="33"/>
      <point x="282" y="-10"/>
      <point x="341" y="-10" type="curve" smooth="yes"/>
      <point x="418" y="-10"/>
      <point x="455" y="57"/>
      <point x="455" y="230" type="curve" smooth="yes"/>
      <point x="455" y="429"/>
      <point x="400" y="537"/>
      <point x="254" y="537" type="curve" smooth="yes"/>
      <point x="113" y="537"/>
      <point x="46" y="436"/>
      <point x="46" y="230" type="curve" smooth="yes"/>
      <point x="46" y="59"/>
      <point x="85" y="-10"/>
    </contour>
    <contour>
      <point x="160" y="15" type="curve" smooth="yes"/>
      <point x="102" y="15"/>
      <point x="72" y="78"/>
      <point x="72" y="229" type="curve" smooth="yes"/>
      <point x="72" y="414"/>
      <point x="130" y="512"/>
      <point x="254" y="512" type="curve" smooth="yes"/>
      <point x="383" y="512"/>
      <point x="429" y="409"/>
      <point x="429" y="230" type="curve" smooth="yes"/>
      <point x="429" y="68"/>
      <point x="397" y="15"/>
      <point x="341" y="15" type="curve" smooth="yes"/>
      <point x="285" y="15"/>
      <point x="262" y="82"/>
      <point x="262" y="186" type="curve" smooth="yes"/>
      <point x="262" y="342" type="line"/>
      <point x="236" y="342" type="line"/>
      <point x="236" y="186" type="line" smooth="yes"/>
      <point x="236" y="80"/>
      <point x="214" y="15"/>
    </contour>
  </outline>
</glyph>
<glyph name="uni027A" format="2">
  <advance width="500"/>
  <unicode hex="027A"/>
  <anchor x="243" y="0" name="bottom"/>
  <anchor x="276" y="760" name="top"/>
  <outline>
    <contour>
      <point x="119" y="-8" type="curve" smooth="yes"/>
      <point x="200" y="-8"/>
      <point x="243" y="44"/>
      <point x="260" y="101" type="curve"/>
      <point x="262" y="101" type="line"/>
      <point x="266" y="0" type="line"/>
      <point x="417" y="0" type="line"/>
      <point x="417" y="21" type="line"/>
      <point x="288" y="25" type="line"/>
      <point x="288" y="760" type="line"/>
      <point x="262" y="760" type="line"/>
      <point x="262" y="225" type="line" smooth="yes"/>
      <point x="262" y="94"/>
      <point x="212" y="18"/>
      <point x="119" y="18" type="curve" smooth="yes"/>
      <point x="95" y="18"/>
      <point x="66" y="23"/>
      <point x="44" y="31" type="curve"/>
      <point x="38" y="5" type="line"/>
      <point x="57" y="-2"/>
      <point x="91" y="-8"/>
    </contour>
  </outline>
</glyph>
<glyph name="uni0280" format="2">
  <advance width="500"/>
  <unicode hex="0280"/>
  <anchor x="264" y="0" name="bottom"/>
  <anchor x="250" y="528" name="top"/>
  <outline>
    <contour>
      <point x="106" y="0" type="line"/>
      <point x="132" y="0" type="line"/>
      <point x="132" y="233" type="line"/>
      <point x="266" y="233" type="line"/>
      <point x="398" y="0" type="line"/>
      <point x="427" y="0" type="line"/>
      <point x="294" y="236" type="line"/>
      <point x="355" y="248"/>
      <point x="407" y="298"/>
      <point x="407" y="385" type="curve" smooth="yes"/>
      <point x="407" y="478"/>
      <point x="352" y="528"/>
      <point x="245" y="528" type="curve" smooth="yes"/>
      <point x="106" y="528" type="line"/>
    </contour>
    <contour>
      <point x="132" y="258" type="line"/>
      <point x="132" y="503" type="line"/>
      <point x="241" y="503" type="line" smooth="yes"/>
      <point x="337" y="503"/>
      <point x="381" y="463"/>
      <point x="381" y="384" type="curve" smooth="yes"/>
      <point x="381" y="303"/>
      <point x="331" y="258"/>
      <point x="256" y="258" type="curve" smooth="yes"/>
    </contour>
  </outline>
</glyph>
<glyph name="uni0283" format="2">
  <advance width="500"/>
  <unicode hex="0283"/>
  <anchor x="151" y="-240" name="bottom"/>
  <anchor x="366" y="763" name="top"/>
  <outline>
    <contour>
      <point x="121" y="-240" type="curve" smooth="yes"/>
      <point x="206" y="-240"/>
      <point x="265" y="-184"/>
      <point x="265" y="-66" type="curve" smooth="yes"/>
      <point x="265" y="575" type="line" smooth="yes"/>
      <point x="265" y="687"/>
      <point x="308" y="738"/>
      <point x="389" y="738" type="curve" smooth="yes"/>
      <point x="421" y="738"/>
      <point x="451" y="731"/>
      <point x="466" y="724" type="curve"/>
      <point x="466" y="749" type="line"/>
      <point x="450" y="756"/>
      <point x="424" y="763"/>
      <point x="390" y="763" type="curve" smooth="yes"/>
      <point x="292" y="763"/>
      <point x="239" y="697"/>
      <point x="239" y="578" type="curve" smooth="yes"/>
      <point x="239" y="-63" type="line" smooth="yes"/>
      <point x="239" y="-174"/>
      <point x="191" y="-215"/>
      <point x="121" y="-215" type="curve" smooth="yes"/>
      <point x="80" y="-215"/>
      <point x="50" y="-202"/>
      <point x="33" y="-193" type="curve"/>
      <point x="33" y="-221" type="line"/>
      <point x="48" y="-229"/>
      <point x="78" y="-240"/>
    </contour>
  </outline>
</glyph>
<glyph name="eshcurl" format="2">
  <advance width="500"/>
  <unicode hex="0286"/>
  <anchor x="156" y="-232" name="bottom"/>
  <anchor x="368" y="763" name="top"/>
  <outline>
    <contour>
      <point x="156" y="-232" type="curve" smooth="yes"/>
      <point x="232" y="-232"/>
      <point x="265" y="-176"/>
      <point x="265" y="-76" type="curve"/>
      <point x="332" y="-76" type="line"/>
      <point x="332" y="-51" type="line"/>
      <point x="265" y="-51" type="line"/>
      <point x="265" y="575" type="line" smooth="yes"/>
      <point x="265" y="687"/>
      <point x="308" y="738"/>
      <point x="389" y="738" type="curve" smooth="yes"/>
      <point x="421" y="738"/>
      <point x="451" y="731"/>
      <point x="466" y="724" type="curve"/>
      <point x="466" y="749" type="line"/>
      <point x="450" y="756"/>
      <point x="424" y="763"/>
      <point x="390" y="763" type="curve" smooth="yes"/>
      <point x="292" y="763"/>
      <point x="239" y="697"/>
      <point x="239" y="578" type="curve" smooth="yes"/>
      <point x="239" y="-51" type="line"/>
      <point x="179" y="-51" type="line" smooth="yes"/>
      <point x="105" y="-51"/>
      <point x="64" y="-87"/>
      <point x="64" y="-144" type="curve" smooth="yes"/>
      <point x="64" y="-203"/>
      <point x="103" y="-232"/>
    </contour>
    <contour>
      <point x="158" y="-209" type="curve" smooth="yes"/>
      <point x="114" y="-209"/>
      <point x="88" y="-186"/>
      <point x="88" y="-144" type="curve" smooth="yes"/>
      <point x="88" y="-99"/>
      <point x="118" y="-76"/>
      <point x="181" y="-76" type="curve" smooth="yes"/>
      <point x="239" y="-76" type="line"/>
      <point x="239" y="-81" type="line" smooth="yes"/>
      <point x="239" y="-153"/>
      <point x="224" y="-209"/>
    </contour>
  </outline>
</glyph>
<glyph name="uni0290" format="2">
  <advance width="500"/>
  <unicode hex="0290"/>
  <anchor x="270" y="-240" name="bottom"/>
  <anchor x="250" y="528" name="top"/>
  <anchor x="480" y="528" name="topright"/>
  <outline>
    <contour>
      <point x="452" y="-241" type="curve" smooth="yes"/>
      <point x="469" y="-241"/>
      <point x="482" y="-238"/>
      <point x="491" y="-234" type="curve"/>
      <point x="491" y="-209" type="line"/>
      <point x="480" y="-214"/>
      <point x="467" y="-217"/>
      <point x="454" y="-217" type="curve" smooth="yes"/>
      <point x="420" y="-217"/>
      <point x="404" y="-194"/>
      <point x="404" y="-149" type="curve" smooth="yes"/>
      <point x="404" y="25" type="line"/>
      <point x="378" y="0" type="line"/>
      <point x="378" y="-153" type="line" smooth="yes"/>
      <point x="378" y="-212"/>
      <point x="404" y="-241"/>
    </contour>
    <component base="z"/>
  </outline>
</glyph>
<glyph name="uni02A7" format="2">
  <advance width="500"/>
  <unicode hex="02A7"/>
  <anchor x="250" y="-240" name="bottom"/>
  <anchor x="250" y="765" name="top"/>
  <outline>
    <contour>
      <point x="286" y="-242" type="curve" smooth="yes"/>
      <point x="348" y="-242"/>
      <point x="387" y="-208"/>
      <point x="387" y="-126" type="curve" smooth="yes"/>
      <point x="387" y="652" type="line" smooth="yes"/>
      <point x="387" y="716"/>
      <point x="413" y="740"/>
      <point x="461" y="740" type="curve" smooth="yes"/>
      <point x="478" y="740"/>
      <point x="494" y="737"/>
      <point x="509" y="730" type="curve"/>
      <point x="509" y="758" type="line"/>
      <point x="497" y="761"/>
      <point x="480" y="765"/>
      <point x="459" y="765" type="curve" smooth="yes"/>
      <point x="402" y="765"/>
      <point x="361" y="736"/>
      <point x="361" y="655" type="curve" smooth="yes"/>
      <point x="361" y="527" type="line"/>
      <point x="137" y="527" type="line"/>
      <point x="137" y="656" type="line"/>
      <point x="116" y="656" type="line"/>
      <point x="109" y="528" type="line"/>
      <point x="31" y="521" type="line"/>
      <point x="31" y="502" type="line"/>
      <point x="111" y="502" type="line"/>
      <point x="111" y="155" type="line" smooth="yes"/>
      <point x="111" y="58"/>
      <point x="135" y="-10"/>
      <point x="253" y="-10" type="curve" smooth="yes"/>
      <point x="296" y="-10"/>
      <point x="332" y="-1"/>
      <point x="361" y="11" type="curve"/>
      <point x="361" y="-123" type="line" smooth="yes"/>
      <point x="361" y="-190"/>
      <point x="336" y="-217"/>
      <point x="284" y="-217" type="curve" smooth="yes"/>
      <point x="263" y="-217"/>
      <point x="245" y="-210"/>
      <point x="234" y="-205" type="curve"/>
      <point x="234" y="-231" type="line"/>
      <point x="242" y="-234"/>
      <point x="261" y="-242"/>
    </contour>
    <contour>
      <point x="254" y="15" type="curve" smooth="yes"/>
      <point x="153" y="15"/>
      <point x="137" y="72"/>
      <point x="137" y="158" type="curve" smooth="yes"/>
      <point x="137" y="502" type="line"/>
      <point x="361" y="502" type="line"/>
      <point x="361" y="37" type="line"/>
      <point x="337" y="25"/>
      <point x="298" y="15"/>
    </contour>
  </outline>
</glyph>
<glyph name="tcligcurl" format="2">
  <advance width="500"/>
  <unicode hex="02A8"/>
  <anchor x="268" y="0" name="bottom"/>
  <anchor x="268" y="659" name="top"/>
  <outline>
    <contour>
      <point x="111" y="-10" type="curve" smooth="yes"/>
      <point x="288" y="-10"/>
      <point x="354" y="176"/>
      <point x="532" y="176" type="curve" smooth="yes"/>
      <point x="605" y="176"/>
      <point x="643" y="145"/>
      <point x="643" y="100" type="curve" smooth="yes"/>
      <point x="643" y="53"/>
      <point x="601" y="15"/>
      <point x="522" y="15" type="curve" smooth="yes"/>
      <point x="373" y="15"/>
      <point x="309" y="148"/>
      <point x="309" y="274" type="curve" smooth="yes"/>
      <point x="309" y="414"/>
      <point x="388" y="512"/>
      <point x="517" y="512" type="curve" smooth="yes"/>
      <point x="552" y="512"/>
      <point x="601" y="505"/>
      <point x="641" y="487" type="curve"/>
      <point x="646" y="513" type="line"/>
      <point x="608" y="529"/>
      <point x="562" y="537"/>
      <point x="520" y="537" type="curve" smooth="yes"/>
      <point x="369" y="537"/>
      <point x="282" y="431"/>
      <point x="282" y="271" type="curve" smooth="yes"/>
      <point x="282" y="111"/>
      <point x="370" y="-10"/>
      <point x="522" y="-10" type="curve" smooth="yes"/>
      <point x="616" y="-10"/>
      <point x="670" y="37"/>
      <point x="670" y="101" type="curve" smooth="yes"/>
      <point x="670" y="160"/>
      <point x="623" y="201"/>
      <point x="532" y="201" type="curve" smooth="yes"/>
      <point x="338" y="201"/>
      <point x="276" y="15"/>
      <point x="115" y="15" type="curve" smooth="yes"/>
      <point x="22" y="15"/>
      <point x="-13" y="77"/>
      <point x="-13" y="183" type="curve" smooth="yes"/>
      <point x="-13" y="503" type="line"/>
      <point x="164" y="503" type="line"/>
      <point x="164" y="528" type="line"/>
      <point x="-13" y="528" type="line"/>
      <point x="-13" y="659" type="line"/>
      <point x="-35" y="659" type="line"/>
      <point x="-40" y="528" type="line"/>
      <point x="-170" y="524" type="line"/>
      <point x="-170" y="503" type="line"/>
      <point x="-39" y="503" type="line"/>
      <point x="-39" y="180" type="line" smooth="yes"/>
      <point x="-39" y="74"/>
      <point x="-8" y="-10"/>
    </contour>
  </outline>
</glyph>
<glyph name="uni02A9" format="2">
  <advance width="500"/>
  <unicode hex="02A9"/>
  <anchor x="250" y="-240" name="bottom"/>
  <anchor x="250" y="766" name="top"/>
  <outline>
    <contour>
      <point x="362" y="-240" type="curve" smooth="yes"/>
      <point x="402" y="-240"/>
      <point x="443" y="-204"/>
      <point x="443" y="-120" type="curve" smooth="yes"/>
      <point x="443" y="386" type="line" smooth="yes"/>
      <point x="443" y="500"/>
      <point x="403" y="539"/>
      <point x="335" y="539" type="curve" smooth="yes"/>
      <point x="269" y="539"/>
      <point x="241" y="497"/>
      <point x="228" y="459" type="curve"/>
      <point x="226" y="459" type="line"/>
      <point x="224" y="529" type="line"/>
      <point x="92" y="529" type="line"/>
      <point x="92" y="634" type="line" smooth="yes"/>
      <point x="92" y="710"/>
      <point x="125" y="741"/>
      <point x="177" y="741" type="curve" smooth="yes"/>
      <point x="200" y="741"/>
      <point x="223" y="737"/>
      <point x="241" y="728" type="curve"/>
      <point x="245" y="754" type="line"/>
      <point x="226" y="761"/>
      <point x="206" y="766"/>
      <point x="177" y="766" type="curve" smooth="yes"/>
      <point x="110" y="766"/>
      <point x="66" y="721"/>
      <point x="66" y="642" type="curve" smooth="yes"/>
      <point x="66" y="529" type="line"/>
      <point x="10" y="526" type="line"/>
      <point x="10" y="504" type="line"/>
      <point x="66" y="504" type="line"/>
      <point x="66" y="0" type="line"/>
      <point x="92" y="0" type="line"/>
      <point x="92" y="504" type="line"/>
      <point x="202" y="504" type="line"/>
      <point x="202" y="0" type="line"/>
      <point x="228" y="0" type="line"/>
      <point x="228" y="352" type="line" smooth="yes"/>
      <point x="228" y="441"/>
      <point x="258" y="514"/>
      <point x="333" y="514" type="curve" smooth="yes"/>
      <point x="382" y="514"/>
      <point x="417" y="483"/>
      <point x="417" y="385" type="curve" smooth="yes"/>
      <point x="417" y="-116" type="line" smooth="yes"/>
      <point x="417" y="-184"/>
      <point x="394" y="-215"/>
      <point x="361" y="-215" type="curve" smooth="yes"/>
      <point x="346" y="-215"/>
      <point x="331" y="-213"/>
      <point x="316" y="-204" type="curve"/>
      <point x="316" y="-230" type="line"/>
      <point x="328" y="-236"/>
      <point x="343" y="-240"/>
    </contour>
  </outline>
</glyph>
<glyph name="uni02AA" format="2">
  <advance width="500"/>
  <unicode hex="02AA"/>
  <anchor x="250" y="0" name="bottom"/>
  <anchor x="250" y="760" name="top"/>
  <outline>
    <contour>
      <point x="293" y="-10" type="curve" smooth="yes"/>
      <point x="398" y="-10"/>
      <point x="456" y="43"/>
      <point x="456" y="128" type="curve" smooth="yes"/>
      <point x="456" y="220"/>
      <point x="389" y="249"/>
      <point x="311" y="283" type="curve" smooth="yes"/>
      <point x="240" y="314"/>
      <point x="186" y="333"/>
      <point x="186" y="406" type="curve" smooth="yes"/>
      <point x="186" y="476"/>
      <point x="237" y="513"/>
      <point x="317" y="513" type="curve" smooth="yes"/>
      <point x="360" y="513"/>
      <point x="406" y="502"/>
      <point x="435" y="485" type="curve"/>
      <point x="448" y="509" type="line"/>
      <point x="414" y="526"/>
      <point x="368" y="538"/>
      <point x="319" y="538" type="curve" smooth="yes"/>
      <point x="215" y="538"/>
      <point x="159" y="484"/>
      <point x="159" y="404" type="curve" smooth="yes"/>
      <point x="159" y="316"/>
      <point x="228" y="291"/>
      <point x="297" y="261" type="curve" smooth="yes"/>
      <point x="372" y="229"/>
      <point x="428" y="203"/>
      <point x="428" y="127" type="curve" smooth="yes"/>
      <point x="428" y="59"/>
      <point x="384" y="16"/>
      <point x="294" y="16" type="curve" smooth="yes"/>
      <point x="215" y="16"/>
      <point x="146" y="49"/>
      <point x="100" y="80" type="curve"/>
      <point x="100" y="760" type="line"/>
      <point x="74" y="760" type="line"/>
      <point x="74" y="0" type="line"/>
      <point x="100" y="0" type="line"/>
      <point x="100" y="50" type="line"/>
      <point x="138" y="25"/>
      <point x="208" y="-10"/>
    </contour>
  </outline>
</glyph>
<glyph name="uni02AC" format="2">
  <advance width="500"/>
  <unicode hex="02AC"/>
  <anchor x="250" y="0" name="bottom"/>
  <anchor x="250" y="714" name="top"/>
  <outline>
    <contour>
      <point x="141" y="380" type="line"/>
      <point x="170" y="380" type="line"/>
      <point x="252" y="679" type="line"/>
      <point x="331" y="380" type="line"/>
      <point x="360" y="380" type="line"/>
      <point x="446" y="714" type="line"/>
      <point x="421" y="714" type="line"/>
      <point x="345" y="412" type="line"/>
      <point x="266" y="714" type="line"/>
      <point x="240" y="714" type="line"/>
      <point x="156" y="412" type="line"/>
      <point x="79" y="714" type="line"/>
      <point x="53" y="714" type="line"/>
    </contour>
    <contour>
      <point x="141" y="0" type="line"/>
      <point x="170" y="0" type="line"/>
      <point x="252" y="300" type="line"/>
      <point x="331" y="0" type="line"/>
      <point x="360" y="0" type="line"/>
      <point x="446" y="335" type="line"/>
      <point x="421" y="335" type="line"/>
      <point x="345" y="33" type="line"/>
      <point x="266" y="335" type="line"/>
      <point x="240" y="335" type="line"/>
      <point x="156" y="33" type="line"/>
      <point x="79" y="335" type="line"/>
      <point x="53" y="335" type="line"/>
    </contour>
  </outline>
</glyph>
<glyph name="breve" format="2">
  <advance width="500"/>
  <unicode hex="02D8"/>
  <anchor x="249" y="528" name="_top"/>
  <anchor x="251" y="765" name="top"/>
  <outline>
    <contour>
      <point x="250" y="608" type="curve" smooth="yes"/>
      <point x="315" y="608"/>
      <point x="356" y="648"/>
      <point x="361" y="716" type="curve"/>
      <point x="337" y="716" type="line"/>
      <point x="333" y="666"/>
      <point x="306" y="632"/>
      <point x="250" y="632" type="curve" smooth="yes"/>
      <point x="196" y="632"/>
      <point x="167" y="665"/>
      <point x="163" y="716" type="curve"/>
      <point x="139" y="716" type="line"/>
      <point x="143" y="645"/>
      <point x="187" y="608"/>
    </contour>
  </outline>
</glyph>
<glyph name="dotaccent" format="2">
  <advance width="500"/>
  <unicode hex="02D9"/>
  <outline>
    <contour>
      <point x="251" y="660" type="curve" smooth="yes"/>
      <point x="277" y="660"/>
      <point x="281" y="679"/>
      <point x="281" y="697" type="curve" smooth="yes"/>
      <point x="281" y="716"/>
      <point x="275" y="734"/>
      <point x="251" y="734" type="curve" smooth="yes"/>
      <point x="225" y="734"/>
      <point x="219" y="716"/>
      <point x="219" y="697" type="curve" smooth="yes"/>
      <point x="219" y="677"/>
      <point x="226" y="660"/>
    </contour>
  </outline>
</glyph>
<glyph name="ring" format="2">
  <advance width="500"/>
  <unicode hex="02DA"/>
  <outline>
    <contour>
      <point x="251" y="614" type="curve" smooth="yes"/>
      <point x="303" y="614"/>
      <point x="344" y="650"/>
      <point x="344" y="706" type="curve" smooth="yes"/>
      <point x="344" y="763"/>
      <point x="302" y="800"/>
      <point x="250" y="800" type="curve" smooth="yes"/>
      <point x="198" y="800"/>
      <point x="156" y="764"/>
      <point x="156" y="707" type="curve" smooth="yes"/>
      <point x="156" y="648"/>
      <point x="200" y="614"/>
    </contour>
    <contour>
      <point x="251" y="636" type="curve" smooth="yes"/>
      <point x="207" y="636"/>
      <point x="180" y="667"/>
      <point x="180" y="707" type="curve" smooth="yes"/>
      <point x="180" y="748"/>
      <point x="208" y="777"/>
      <point x="249" y="777" type="curve" smooth="yes"/>
      <point x="290" y="777"/>
      <point x="320" y="749"/>
      <point x="320" y="706" type="curve" smooth="yes"/>
      <point x="320" y="665"/>
      <point x="293" y="636"/>
    </contour>
  </outline>
</glyph>
<glyph name="rhotichookmod" format="2">
  <advance width="500"/>
  <unicode hex="02DE"/>
  <outline>
    <contour>
      <point x="187" y="241" type="curve" smooth="yes"/>
      <point x="214" y="241"/>
      <point x="229" y="249"/>
      <point x="249" y="261" type="curve"/>
      <point x="242" y="283" type="line"/>
      <point x="226" y="273"/>
      <point x="209" y="264"/>
      <point x="187" y="264" type="curve" smooth="yes"/>
      <point x="147" y="264"/>
      <point x="133" y="294"/>
      <point x="112" y="378" type="curve" smooth="yes"/>
      <point x="106" y="402" type="line"/>
      <point x="-108" y="315" type="line"/>
      <point x="-106" y="293" type="line"/>
      <point x="91" y="374" type="line"/>
      <point x="113" y="282"/>
      <point x="134" y="241"/>
    </contour>
  </outline>
</glyph>
<glyph name="uni02E5" format="2">
  <advance width="500"/>
  <unicode hex="02E5"/>
  <outline>
    <contour>
      <point x="304" y="0" type="line"/>
      <point x="359" y="0" type="line"/>
      <point x="359" y="688" type="line"/>
      <point x="141" y="688" type="line"/>
      <point x="141" y="634" type="line"/>
      <point x="304" y="634" type="line"/>
    </contour>
  </outline>
</glyph>
<glyph name="uni02E7" format="2">
  <advance width="500"/>
  <unicode hex="02E7"/>
  <outline>
    <contour>
      <point x="304" y="0" type="line"/>
      <point x="359" y="0" type="line"/>
      <point x="359" y="688" type="line"/>
      <point x="304" y="688" type="line"/>
      <point x="304" y="391" type="line"/>
      <point x="141" y="391" type="line"/>
      <point x="141" y="336" type="line"/>
      <point x="304" y="336" type="line"/>
    </contour>
  </outline>
</glyph>
<glyph name="uni02E8" format="2">
  <advance width="500"/>
  <unicode hex="02E8"/>
  <outline>
    <contour>
      <point x="304" y="0" type="line"/>
      <point x="359" y="0" type="line"/>
      <point x="359" y="688" type="line"/>
      <point x="304" y="688" type="line"/>
      <point x="304" y="222" type="line"/>
      <point x="141" y="222" type="line"/>
      <point x="141" y="167" type="line"/>
      <point x="304" y="167" type="line"/>
    </contour>
  </outline>
</glyph>
<glyph name="uni02F2" format="2">
  <advance width="500"/>
  <unicode hex="02F2"/>
  <outline>
    <contour>
      <point x="178" y="-217" type="line"/>
      <point x="323" y="-120" type="line"/>
      <point x="323" y="-97" type="line"/>
      <point x="178" y="-1" type="line"/>
      <point x="178" y="-27" type="line"/>
      <point x="302" y="-108" type="line"/>
      <point x="178" y="-190" type="line"/>
    </contour>
  </outline>
</glyph>
<glyph name="uni02FD" format="2">
  <advance width="500"/>
  <unicode hex="02FD"/>
  <outline>
    <contour>
      <point x="138" y="-187" type="line"/>
      <point x="363" y="-187" type="line"/>
      <point x="363" y="-48" type="line"/>
      <point x="337" y="-48" type="line"/>
      <point x="337" y="-162" type="line"/>
      <point x="164" y="-162" type="line"/>
      <point x="164" y="-48" type="line"/>
      <point x="138" y="-48" type="line"/>
    </contour>
  </outline>
</glyph>
<glyph name="uni02FF" format="2">
  <advance width="500"/>
  <unicode hex="02FF"/>
  <outline>
    <contour>
      <point x="253" y="-207" type="line"/>
      <point x="253" y="-176" type="line"/>
      <point x="163" y="-95" type="line"/>
      <point x="378" y="-95" type="line"/>
      <point x="378" y="-70" type="line"/>
      <point x="163" y="-70" type="line"/>
      <point x="253" y="11" type="line"/>
      <point x="253" y="43" type="line"/>
      <point x="123" y="-73" type="line"/>
      <point x="123" y="-90" type="line"/>
    </contour>
  </outline>
</glyph>
<glyph name="candraBinducomb" format="2">
  <unicode hex="0310"/>
  <anchor x="0" y="527" name="_top"/>
  <anchor x="0" y="771" name="top"/>
  <outline>
    <contour>
      <point x="-1" y="610" type="curve" smooth="yes"/>
      <point x="59" y="610"/>
      <point x="98" y="651"/>
      <point x="100" y="714" type="curve"/>
      <point x="78" y="714" type="line"/>
      <point x="76" y="667"/>
      <point x="48" y="633"/>
      <point x="1" y="633" type="curve" smooth="yes"/>
      <point x="-47" y="633"/>
      <point x="-76" y="665"/>
      <point x="-78" y="714" type="curve"/>
      <point x="-100" y="714" type="line"/>
      <point x="-98" y="645"/>
      <point x="-55" y="610"/>
    </contour>
    <contour>
      <point x="-1" y="700" type="curve" smooth="yes"/>
      <point x="18" y="700"/>
      <point x="26" y="713"/>
      <point x="26" y="736" type="curve" smooth="yes"/>
      <point x="26" y="759"/>
      <point x="19" y="771"/>
      <point x="-1" y="771" type="curve" smooth="yes"/>
      <point x="-21" y="771"/>
      <point x="-26" y="755"/>
      <point x="-26" y="736" type="curve" smooth="yes"/>
      <point x="-26" y="715"/>
      <point x="-21" y="700"/>
    </contour>
  </outline>
</glyph>
<glyph name="ringhalfrightbelowcomb" format="2">
  <unicode hex="0339"/>
  <anchor x="0" y="0" name="_bottom"/>
  <anchor x="0" y="-231" name="bottom"/>
  <outline>
    <contour>
      <point x="-54" y="-231" type="line"/>
      <point x="13" y="-231"/>
      <point x="54" y="-194"/>
      <point x="54" y="-126" type="curve" smooth="yes"/>
      <point x="54" y="-63"/>
      <point x="14" y="-25"/>
      <point x="-54" y="-25" type="curve"/>
      <point x="-54" y="-47" type="line"/>
      <point x="4" y="-47"/>
      <point x="30" y="-78"/>
      <point x="30" y="-126" type="curve" smooth="yes"/>
      <point x="30" y="-181"/>
      <point x="-4" y="-209"/>
      <point x="-54" y="-209" type="curve"/>
    </contour>
  </outline>
</glyph>
<glyph name="gbridgeabovecomb" format="2">
  <unicode hex="0346"/>
  <anchor x="0" y="527" name="_top"/>
  <anchor x="0" y="739" name="top"/>
  <outline>
    <contour>
      <point x="-100" y="601" type="line"/>
      <point x="-75" y="601" type="line"/>
      <point x="-75" y="715" type="line"/>
      <point x="75" y="715" type="line"/>
      <point x="75" y="601" type="line"/>
      <point x="100" y="601" type="line"/>
      <point x="100" y="739" type="line"/>
      <point x="-100" y="739" type="line"/>
    </contour>
  </outline>
</glyph>
<glyph name="homotheticabovecomb" format="2">
  <unicode hex="034B"/>
  <anchor x="0" y="527" name="_top"/>
  <anchor x="0" y="902" name="top"/>
  <outline>
    <contour>
      <point x="-130" y="705" type="curve"/>
      <point x="-107" y="705" type="line"/>
      <point x="-104" y="750"/>
      <point x="-84" y="770"/>
      <point x="-61" y="770" type="curve" smooth="yes"/>
      <point x="-19" y="770"/>
      <point x="5" y="705"/>
      <point x="60" y="705" type="curve" smooth="yes"/>
      <point x="97" y="705"/>
      <point x="129" y="733"/>
      <point x="130" y="794" type="curve"/>
      <point x="108" y="794" type="line"/>
      <point x="105" y="752"/>
      <point x="87" y="728"/>
      <point x="60" y="728" type="curve" smooth="yes"/>
      <point x="16" y="728"/>
      <point x="-6" y="793"/>
      <point x="-61" y="793" type="curve" smooth="yes"/>
      <point x="-96" y="793"/>
      <point x="-125" y="768"/>
    </contour>
    <contour>
      <point x="1" y="595" type="curve" smooth="yes"/>
      <point x="16" y="595"/>
      <point x="23" y="608"/>
      <point x="23" y="632" type="curve" smooth="yes"/>
      <point x="23" y="654"/>
      <point x="17" y="666"/>
      <point x="1" y="666" type="curve" smooth="yes"/>
      <point x="-16" y="666"/>
      <point x="-20" y="650"/>
      <point x="-20" y="630" type="curve" smooth="yes"/>
      <point x="-20" y="610"/>
      <point x="-16" y="595"/>
    </contour>
    <contour>
      <point x="1" y="831" type="curve" smooth="yes"/>
      <point x="16" y="831"/>
      <point x="23" y="844"/>
      <point x="23" y="868" type="curve" smooth="yes"/>
      <point x="23" y="890"/>
      <point x="17" y="902"/>
      <point x="1" y="902" type="curve" smooth="yes"/>
      <point x="-16" y="902"/>
      <point x="-20" y="886"/>
      <point x="-20" y="866" type="curve" smooth="yes"/>
      <point x="-20" y="846"/>
      <point x="-16" y="831"/>
    </contour>
  </outline>
</glyph>
<glyph name="fermatacomb" format="2">
  <unicode hex="0352"/>
  <anchor x="0" y="527" name="_top"/>
  <anchor x="0" y="772" name="top"/>
  <outline>
    <contour>
      <point x="-100" y="668" type="curve"/>
      <point x="-78" y="668" type="line"/>
      <point x="-76" y="717"/>
      <point x="-47" y="749"/>
      <point x="1" y="749" type="curve" smooth="yes"/>
      <point x="48" y="749"/>
      <point x="76" y="715"/>
      <point x="78" y="668" type="curve"/>
      <point x="100" y="668" type="line"/>
      <point x="98" y="731"/>
      <point x="59" y="772"/>
      <point x="-1" y="772" type="curve" smooth="yes"/>
      <point x="-55" y="772"/>
      <point x="-98" y="737"/>
    </contour>
    <contour>
      <point x="-1" y="615" type="curve" smooth="yes"/>
      <point x="18" y="615"/>
      <point x="26" y="628"/>
      <point x="26" y="651" type="curve" smooth="yes"/>
      <point x="26" y="674"/>
      <point x="19" y="686"/>
      <point x="-1" y="686" type="curve" smooth="yes"/>
      <point x="-21" y="686"/>
      <point x="-26" y="670"/>
      <point x="-26" y="651" type="curve" smooth="yes"/>
      <point x="-26" y="630"/>
      <point x="-21" y="615"/>
    </contour>
  </outline>
</glyph>
<glyph name="arrowheadleftbelowcomb" format="2">
  <unicode hex="0354"/>
  <anchor x="0" y="0" name="_bottom"/>
  <anchor x="0" y="-239" name="bottom"/>
  <outline>
    <contour>
      <point x="43" y="-239" type="curve"/>
      <point x="49" y="-239" type="line"/>
      <point x="49" y="-219" type="line"/>
      <point x="29" y="-193"/>
      <point x="1" y="-163"/>
      <point x="-22" y="-139" type="curve"/>
      <point x="0" y="-117"/>
      <point x="27" y="-88"/>
      <point x="49" y="-60" type="curve"/>
      <point x="49" y="-38" type="line"/>
      <point x="43" y="-38" type="line"/>
      <point x="2" y="-80"/>
      <point x="-23" y="-105"/>
      <point x="-50" y="-128" type="curve"/>
      <point x="-50" y="-150" type="line"/>
      <point x="-23" y="-173"/>
      <point x="18" y="-213"/>
    </contour>
  </outline>
</glyph>
<glyph name="arrowheadrightbelowcomb" format="2">
  <unicode hex="0355"/>
  <anchor x="0" y="0" name="_bottom"/>
  <anchor x="0" y="-240" name="bottom"/>
  <outline>
    <contour>
      <point x="-50" y="-240" type="line"/>
      <point x="-44" y="-240" type="line"/>
      <point x="-19" y="-214"/>
      <point x="22" y="-174"/>
      <point x="49" y="-151" type="curve"/>
      <point x="49" y="-129" type="line"/>
      <point x="22" y="-106"/>
      <point x="-3" y="-81"/>
      <point x="-44" y="-39" type="curve"/>
      <point x="-50" y="-39" type="line"/>
      <point x="-50" y="-61" type="line"/>
      <point x="-28" y="-89"/>
      <point x="-1" y="-118"/>
      <point x="21" y="-140" type="curve"/>
      <point x="-2" y="-164"/>
      <point x="-30" y="-194"/>
      <point x="-50" y="-220" type="curve"/>
    </contour>
  </outline>
</glyph>
<glyph name="asteriskbelowcomb" format="2">
  <unicode hex="0359"/>
  <anchor x="0" y="0" name="_bottom"/>
  <anchor x="0" y="-211" name="bottom"/>
  <outline>
    <contour>
      <point x="-35" y="-211" type="line"/>
      <point x="0" y="-160" type="line"/>
      <point x="34" y="-211" type="line"/>
      <point x="61" y="-192" type="line"/>
      <point x="19" y="-147" type="line"/>
      <point x="80" y="-129" type="line"/>
      <point x="70" y="-101" type="line"/>
      <point x="12" y="-126" type="line"/>
      <point x="17" y="-62" type="line"/>
      <point x="-15" y="-62" type="line"/>
      <point x="-12" y="-126" type="line"/>
      <point x="-70" y="-100" type="line"/>
      <point x="-81" y="-129" type="line"/>
      <point x="-18" y="-147" type="line"/>
      <point x="-60" y="-192" type="line"/>
    </contour>
  </outline>
</glyph>
<glyph name="arrowdoublerightbelowcomb" format="2">
  <unicode hex="0362"/>
  <anchor x="0" y="0" name="_bottom"/>
  <anchor x="0" y="-191" name="bottom"/>
  <outline>
    <contour>
      <point x="180" y="-191" type="line"/>
      <point x="239" y="-128" type="line"/>
      <point x="180" y="-64" type="line"/>
      <point x="180" y="-115" type="line"/>
      <point x="-240" y="-115" type="line"/>
      <point x="-240" y="-140" type="line"/>
      <point x="180" y="-140" type="line"/>
    </contour>
  </outline>
</glyph>
<glyph name="uni0375" format="2">
  <advance width="500"/>
  <unicode hex="0375"/>
  <outline>
    <contour>
      <point x="193" y="-220" type="line"/>
      <point x="224" y="-220" type="line"/>
      <point x="247" y="-162"/>
      <point x="271" y="-121"/>
      <point x="308" y="-71" type="curve"/>
      <point x="308" y="-60" type="line"/>
      <point x="292" y="-60" type="line"/>
      <point x="256" y="-102"/>
      <point x="215" y="-159"/>
      <point x="193" y="-213" type="curve"/>
    </contour>
  </outline>
</glyph>
<glyph name="tonos" format="2">
  <advance width="500"/>
  <unicode hex="0384"/>
  <anchor x="250" y="528" name="_top"/>
  <anchor x="267" y="760" name="top"/>
  <outline>
    <contour>
      <point x="237" y="606" type="line"/>
      <point x="255" y="606" type="line"/>
      <point x="273" y="655"/>
      <point x="298" y="732"/>
      <point x="308" y="789" type="curve"/>
      <point x="308" y="797" type="line"/>
      <point x="280" y="797" type="line"/>
      <point x="274" y="744"/>
      <point x="252" y="658"/>
      <point x="237" y="614" type="curve"/>
    </contour>
  </outline>
</glyph>
<glyph name="Delta" format="2">
  <advance width="500"/>
  <unicode hex="0394"/>
  <anchor x="250" y="0" name="bottom"/>
  <anchor x="250" y="714" name="top"/>
  <outline>
    <contour>
      <point x="20" y="0" type="line"/>
      <point x="480" y="0" type="line"/>
      <point x="480" y="19" type="line"/>
      <point x="264" y="714" type="line"/>
      <point x="236" y="714" type="line"/>
      <point x="20" y="19" type="line"/>
    </contour>
    <contour>
      <point x="49" y="25" type="line"/>
      <point x="207" y="536" type="line" smooth="yes"/>
      <point x="222" y="585"/>
      <point x="241" y="646"/>
      <point x="250" y="686" type="curve"/>
      <point x="258" y="652"/>
      <point x="278" y="586"/>
      <point x="294" y="534" type="curve" smooth="yes"/>
      <point x="450" y="25" type="line"/>
    </contour>
  </outline>
</glyph>
<glyph name="Xi" format="2">
  <advance width="500"/>
  <unicode hex="039E"/>
  <anchor x="250" y="0" name="bottom"/>
  <anchor x="250" y="714" name="top"/>
  <outline>
    <contour>
      <point x="60" y="0" type="line"/>
      <point x="430" y="0" type="line"/>
      <point x="430" y="25" type="line"/>
      <point x="60" y="25" type="line"/>
    </contour>
    <contour>
      <point x="110" y="363" type="line"/>
      <point x="380" y="363" type="line"/>
      <point x="380" y="388" type="line"/>
      <point x="110" y="388" type="line"/>
    </contour>
    <contour>
      <point x="80" y="689" type="line"/>
      <point x="410" y="689" type="line"/>
      <point x="410" y="714" type="line"/>
      <point x="80" y="714" type="line"/>
    </contour>
  </outline>
</glyph>
<glyph name="Sigma" format="2">
  <advance width="500"/>
  <unicode hex="03A3"/>
  <anchor x="250" y="0" name="bottom"/>
  <anchor x="250" y="714" name="top"/>
  <outline>
    <contour>
      <point x="95" y="0" type="line"/>
      <point x="431" y="0" type="line"/>
      <point x="431" y="26" type="line"/>
      <point x="165" y="26" type="line"/>
      <point x="152" y="26"/>
      <point x="140" y="26"/>
      <point x="127" y="26" type="curve"/>
      <point x="310" y="374" type="line"/>
      <point x="135" y="688" type="line"/>
      <point x="147" y="688"/>
      <point x="158" y="688"/>
      <point x="170" y="688" type="curve"/>
      <point x="402" y="688" type="line"/>
      <point x="402" y="714" type="line"/>
      <point x="101" y="714" type="line"/>
      <point x="101" y="695" type="line"/>
      <point x="279" y="372" type="line"/>
      <point x="95" y="21" type="line"/>
    </contour>
  </outline>
</glyph>
<glyph name="Phi" format="2">
  <advance width="500"/>
  <unicode hex="03A6"/>
  <anchor x="250" y="0" name="bottom"/>
  <anchor x="250" y="714" name="top"/>
  <outline>
    <contour>
      <point x="237" y="-10" type="line"/>
      <point x="263" y="-10" type="line"/>
      <point x="263" y="99" type="line"/>
      <point x="382" y="103"/>
      <point x="470" y="192"/>
      <point x="470" y="375" type="curve" smooth="yes"/>
      <point x="470" y="557"/>
      <point x="383" y="635"/>
      <point x="263" y="637" type="curve"/>
      <point x="263" y="724" type="line"/>
      <point x="237" y="724" type="line"/>
      <point x="237" y="637" type="line"/>
      <point x="114" y="633"/>
      <point x="30" y="545"/>
      <point x="30" y="373" type="curve" smooth="yes"/>
      <point x="30" y="189"/>
      <point x="124" y="101"/>
      <point x="237" y="99" type="curve"/>
    </contour>
    <contour>
      <point x="237" y="125" type="line"/>
      <point x="135" y="127"/>
      <point x="57" y="206"/>
      <point x="57" y="372" type="curve" smooth="yes"/>
      <point x="57" y="532"/>
      <point x="131" y="610"/>
      <point x="237" y="612" type="curve"/>
    </contour>
    <contour>
      <point x="263" y="125" type="curve"/>
      <point x="263" y="612" type="line"/>
      <point x="372" y="610"/>
      <point x="443" y="541"/>
      <point x="443" y="376" type="curve" smooth="yes"/>
      <point x="443" y="206"/>
      <point x="367" y="128"/>
    </contour>
  </outline>
</glyph>
<glyph name="Omega" format="2">
  <advance width="500"/>
  <unicode hex="03A9"/>
  <anchor x="250" y="0" name="bottom"/>
  <anchor x="249" y="714" name="top"/>
  <anchor x="20" y="714" name="topleft"/>
  <outline>
    <contour>
      <point x="30" y="0" type="line"/>
      <point x="214" y="0" type="line"/>
      <point x="214" y="20" type="line"/>
      <point x="135" y="78"/>
      <point x="77" y="188"/>
      <point x="77" y="383" type="curve" smooth="yes"/>
      <point x="77" y="605"/>
      <point x="145" y="700"/>
      <point x="251" y="700" type="curve" smooth="yes"/>
      <point x="356" y="700"/>
      <point x="423" y="611"/>
      <point x="423" y="378" type="curve" smooth="yes"/>
      <point x="423" y="194"/>
      <point x="380" y="79"/>
      <point x="284" y="20" type="curve"/>
      <point x="284" y="0" type="line"/>
      <point x="470" y="0" type="line"/>
      <point x="470" y="25" type="line"/>
      <point x="328" y="25" type="line"/>
      <point x="400" y="81"/>
      <point x="450" y="185"/>
      <point x="450" y="377" type="curve" smooth="yes"/>
      <point x="450" y="630"/>
      <point x="374" y="725"/>
      <point x="251" y="725" type="curve" smooth="yes"/>
      <point x="125" y="725"/>
      <point x="50" y="620"/>
      <point x="50" y="380" type="curve" smooth="yes"/>
      <point x="50" y="189"/>
      <point x="104" y="84"/>
      <point x="173" y="25" type="curve"/>
      <point x="30" y="25" type="line"/>
    </contour>
  </outline>
</glyph>
<glyph name="alpha" format="2">
  <advance width="500"/>
  <unicode hex="03B1"/>
  <anchor x="254" y="0" name="bottom"/>
  <anchor x="250" y="528" name="top"/>
  <outline>
    <contour>
      <point x="223" y="-10" type="curve" smooth="yes"/>
      <point x="309" y="-10"/>
      <point x="347" y="52"/>
      <point x="365" y="108" type="curve"/>
      <point x="367" y="108" type="line"/>
      <point x="367" y="24"/>
      <point x="387" y="-10"/>
      <point x="439" y="-10" type="curve" smooth="yes"/>
      <point x="455" y="-10"/>
      <point x="469" y="-7"/>
      <point x="477" y="-3" type="curve"/>
      <point x="477" y="22" type="line"/>
      <point x="466" y="17"/>
      <point x="452" y="15"/>
      <point x="442" y="15" type="curve" smooth="yes"/>
      <point x="407" y="15"/>
      <point x="392" y="39"/>
      <point x="392" y="123" type="curve" smooth="yes"/>
      <point x="392" y="358" type="line" smooth="yes"/>
      <point x="392" y="447"/>
      <point x="398" y="489"/>
      <point x="408" y="528" type="curve"/>
      <point x="386" y="528" type="line"/>
      <point x="375" y="498"/>
      <point x="367" y="469"/>
      <point x="366" y="438" type="curve"/>
      <point x="363" y="438" type="line"/>
      <point x="344" y="501"/>
      <point x="298" y="538"/>
      <point x="232" y="538" type="curve" smooth="yes"/>
      <point x="127" y="538"/>
      <point x="60" y="447"/>
      <point x="60" y="258" type="curve" smooth="yes"/>
      <point x="60" y="85"/>
      <point x="116" y="-10"/>
    </contour>
    <contour>
      <point x="224" y="15" type="curve" smooth="yes"/>
      <point x="134" y="15"/>
      <point x="87" y="100"/>
      <point x="87" y="258" type="curve" smooth="yes"/>
      <point x="87" y="421"/>
      <point x="137" y="513"/>
      <point x="233" y="513" type="curve" smooth="yes"/>
      <point x="317" y="513"/>
      <point x="366" y="444"/>
      <point x="366" y="300" type="curve" smooth="yes"/>
      <point x="366" y="240" type="line" smooth="yes"/>
      <point x="366" y="115"/>
      <point x="322" y="15"/>
    </contour>
  </outline>
</glyph>
<glyph name="gamma" format="2">
  <advance width="500"/>
  <unicode hex="03B3"/>
  <anchor x="252" y="-236" name="bottom"/>
  <anchor x="254" y="553" name="top"/>
  <anchor x="480" y="528" name="topright"/>
  <outline>
    <contour>
      <point x="208" y="-236" type="curve"/>
      <point x="233" y="-236" type="line"/>
      <point x="234" y="-155"/>
      <point x="246" y="-55"/>
      <point x="280" y="50" type="curve" smooth="yes"/>
      <point x="435" y="528" type="line"/>
      <point x="407" y="528" type="line"/>
      <point x="290" y="169" type="line" smooth="yes"/>
      <point x="273" y="116"/>
      <point x="265" y="86"/>
      <point x="255" y="45" type="curve"/>
      <point x="254" y="45" type="line"/>
      <point x="245" y="83"/>
      <point x="234" y="122"/>
      <point x="218" y="167" type="curve" smooth="yes"/>
      <point x="92" y="528" type="line"/>
      <point x="65" y="528" type="line"/>
      <point x="241" y="10" type="line"/>
      <point x="227" y="-49"/>
      <point x="208" y="-152"/>
    </contour>
  </outline>
</glyph>
<glyph name="zeta" format="2">
  <advance width="500"/>
  <unicode hex="03B6"/>
  <anchor x="323" y="-202" name="bottom"/>
  <anchor x="325" y="760" name="top"/>
  <outline>
    <contour>
      <point x="326" y="-202" type="curve"/>
      <point x="359" y="-202" type="line"/>
      <point x="392" y="-162"/>
      <point x="413" y="-122"/>
      <point x="413" y="-77" type="curve" smooth="yes"/>
      <point x="413" y="-4"/>
      <point x="364" y="14"/>
      <point x="292" y="36" type="curve" smooth="yes"/>
      <point x="179" y="70"/>
      <point x="142" y="126"/>
      <point x="142" y="228" type="curve" smooth="yes"/>
      <point x="142" y="406"/>
      <point x="234" y="520"/>
      <point x="419" y="738" type="curve"/>
      <point x="419" y="760" type="line"/>
      <point x="142" y="760" type="line"/>
      <point x="142" y="735" type="line"/>
      <point x="303" y="735" type="line" smooth="yes"/>
      <point x="330" y="735"/>
      <point x="358" y="736"/>
      <point x="387" y="737" type="curve"/>
      <point x="191" y="515"/>
      <point x="115" y="395"/>
      <point x="115" y="230" type="curve" smooth="yes"/>
      <point x="115" y="104"/>
      <point x="164" y="47"/>
      <point x="281" y="14" type="curve" smooth="yes"/>
      <point x="339" y="-2"/>
      <point x="386" y="-19"/>
      <point x="386" y="-78" type="curve" smooth="yes"/>
      <point x="386" y="-119"/>
      <point x="359" y="-164"/>
    </contour>
  </outline>
</glyph>
<glyph name="lambda" format="2">
  <advance width="500"/>
  <unicode hex="03BB"/>
  <anchor x="292" y="0" name="bottom"/>
  <anchor x="294" y="766" name="top"/>
  <outline>
    <contour>
      <point x="488" y="-9" type="curve" smooth="yes"/>
      <point x="501" y="-9"/>
      <point x="507" y="-7"/>
      <point x="514" y="-5" type="curve"/>
      <point x="514" y="20" type="line"/>
      <point x="509" y="18"/>
      <point x="500" y="16"/>
      <point x="490" y="16" type="curve" smooth="yes"/>
      <point x="466" y="16"/>
      <point x="451" y="30"/>
      <point x="438" y="79" type="curve" smooth="yes"/>
      <point x="277" y="662" type="line" smooth="yes"/>
      <point x="254" y="744"/>
      <point x="227" y="766"/>
      <point x="180" y="766" type="curve" smooth="yes"/>
      <point x="160" y="766"/>
      <point x="147" y="762"/>
      <point x="138" y="758" type="curve"/>
      <point x="138" y="733" type="line"/>
      <point x="148" y="737"/>
      <point x="160" y="741"/>
      <point x="175" y="741" type="curve" smooth="yes"/>
      <point x="213" y="741"/>
      <point x="235" y="719"/>
      <point x="252" y="655" type="curve" smooth="yes"/>
      <point x="283" y="535" type="line"/>
      <point x="99" y="0" type="line"/>
      <point x="128" y="0" type="line"/>
      <point x="274" y="429" type="line" smooth="yes"/>
      <point x="281" y="450"/>
      <point x="287" y="470"/>
      <point x="293" y="490" type="curve"/>
      <point x="296" y="490" type="line"/>
      <point x="302" y="467"/>
      <point x="308" y="440"/>
      <point x="318" y="406" type="curve" smooth="yes"/>
      <point x="412" y="75" type="line" smooth="yes"/>
      <point x="429" y="16"/>
      <point x="446" y="-9"/>
    </contour>
  </outline>
</glyph>
<glyph name="nu" format="2">
  <advance width="500"/>
  <unicode hex="03BD"/>
  <anchor x="272" y="0" name="bottom"/>
  <anchor x="268" y="528" name="top"/>
  <outline>
    <contour>
      <point x="216" y="0" type="line"/>
      <point x="237" y="0" type="line"/>
      <point x="363" y="138"/>
      <point x="439" y="305"/>
      <point x="439" y="528" type="curve"/>
      <point x="412" y="528" type="line"/>
      <point x="412" y="315"/>
      <point x="340" y="158"/>
      <point x="233" y="36" type="curve"/>
      <point x="231" y="36" type="line"/>
      <point x="226" y="62"/>
      <point x="218" y="91"/>
      <point x="212" y="110" type="curve" smooth="yes"/>
      <point x="89" y="528" type="line"/>
      <point x="61" y="528" type="line"/>
    </contour>
  </outline>
</glyph>
<glyph name="xi" format="2">
  <advance width="500"/>
  <unicode hex="03BE"/>
  <anchor x="273" y="-202" name="bottom"/>
  <anchor x="275" y="760" name="top"/>
  <outline>
    <contour>
      <point x="322" y="-202" type="curve"/>
      <point x="353" y="-202" type="line"/>
      <point x="382" y="-159"/>
      <point x="405" y="-120"/>
      <point x="405" y="-73" type="curve" smooth="yes"/>
      <point x="405" y="-1"/>
      <point x="351" y="17"/>
      <point x="279" y="40" type="curve" smooth="yes"/>
      <point x="184" y="71"/>
      <point x="121" y="93"/>
      <point x="121" y="206" type="curve" smooth="yes"/>
      <point x="121" y="336"/>
      <point x="205" y="392"/>
      <point x="326" y="392" type="curve" smooth="yes"/>
      <point x="376" y="392" type="line"/>
      <point x="376" y="417" type="line"/>
      <point x="326" y="417" type="line" smooth="yes"/>
      <point x="214" y="417"/>
      <point x="145" y="461"/>
      <point x="145" y="562" type="curve" smooth="yes"/>
      <point x="145" y="690"/>
      <point x="257" y="735"/>
      <point x="375" y="735" type="curve" smooth="yes"/>
      <point x="400" y="735" type="line"/>
      <point x="400" y="760" type="line"/>
      <point x="128" y="760" type="line"/>
      <point x="128" y="735" type="line"/>
      <point x="188" y="735" type="line" smooth="yes"/>
      <point x="226" y="735"/>
      <point x="254" y="736"/>
      <point x="274" y="737" type="curve"/>
      <point x="185" y="718"/>
      <point x="118" y="669"/>
      <point x="118" y="564" type="curve" smooth="yes"/>
      <point x="118" y="459"/>
      <point x="184" y="411"/>
      <point x="262" y="405" type="curve"/>
      <point x="262" y="403" type="line"/>
      <point x="159" y="389"/>
      <point x="94" y="322"/>
      <point x="94" y="206" type="curve" smooth="yes"/>
      <point x="94" y="76"/>
      <point x="176" y="47"/>
      <point x="268" y="18" type="curve" smooth="yes"/>
      <point x="342" y="-5"/>
      <point x="378" y="-20"/>
      <point x="378" y="-76" type="curve" smooth="yes"/>
      <point x="378" y="-111"/>
      <point x="364" y="-145"/>
    </contour>
  </outline>
</glyph>
<glyph name="rho" format="2">
  <advance width="500"/>
  <unicode hex="03C1"/>
  <anchor x="250" y="-240" name="bottom"/>
  <anchor x="260" y="528" name="top"/>
  <outline>
    <contour>
      <point x="85" y="-240" type="line"/>
      <point x="111" y="-240" type="line"/>
      <point x="111" y="-73" type="line" smooth="yes"/>
      <point x="111" y="-37"/>
      <point x="111" y="-5"/>
      <point x="109" y="43" type="curve"/>
      <point x="111" y="43" type="line"/>
      <point x="143" y="13"/>
      <point x="190" y="-10"/>
      <point x="250" y="-10" type="curve" smooth="yes"/>
      <point x="376" y="-10"/>
      <point x="440" y="92"/>
      <point x="440" y="270" type="curve" smooth="yes"/>
      <point x="440" y="449"/>
      <point x="382" y="538"/>
      <point x="259" y="538" type="curve" smooth="yes"/>
      <point x="140" y="538"/>
      <point x="85" y="449"/>
      <point x="85" y="284" type="curve" smooth="yes"/>
    </contour>
    <contour>
      <point x="251" y="15" type="curve" smooth="yes"/>
      <point x="195" y="15"/>
      <point x="142" y="40"/>
      <point x="111" y="72" type="curve"/>
      <point x="111" y="276" type="line" smooth="yes"/>
      <point x="111" y="425"/>
      <point x="155" y="512"/>
      <point x="259" y="512" type="curve" smooth="yes"/>
      <point x="366" y="512"/>
      <point x="413" y="426"/>
      <point x="413" y="270" type="curve" smooth="yes"/>
      <point x="413" y="103"/>
      <point x="354" y="15"/>
    </contour>
  </outline>
</glyph>
<glyph name="upsilon" format="2">
  <advance width="500"/>
  <unicode hex="03C5"/>
  <anchor x="247" y="0" name="bottom"/>
  <anchor x="250" y="528" name="top"/>
  <outline>
    <contour>
      <point x="250" y="-10" type="curve" smooth="yes"/>
      <point x="377" y="-10"/>
      <point x="441" y="84"/>
      <point x="441" y="282" type="curve" smooth="yes"/>
      <point x="441" y="370"/>
      <point x="431" y="444"/>
      <point x="412" y="528" type="curve"/>
      <point x="385" y="528" type="line"/>
      <point x="407" y="444"/>
      <point x="415" y="355"/>
      <point x="415" y="278" type="curve" smooth="yes"/>
      <point x="415" y="106"/>
      <point x="362" y="15"/>
      <point x="252" y="15" type="curve" smooth="yes"/>
      <point x="156" y="15"/>
      <point x="111" y="80"/>
      <point x="111" y="226" type="curve" smooth="yes"/>
      <point x="111" y="528" type="line"/>
      <point x="85" y="528" type="line"/>
      <point x="85" y="219" type="line" smooth="yes"/>
      <point x="85" y="62"/>
      <point x="140" y="-10"/>
    </contour>
  </outline>
</glyph>
<glyph name="phi" format="2">
  <advance width="500"/>
  <unicode hex="03C6"/>
  <anchor x="246" y="-240" name="bottom"/>
  <anchor x="246" y="528" name="top"/>
  <outline>
    <contour>
      <point x="234" y="-240" type="line"/>
      <point x="261" y="-240" type="line"/>
      <point x="261" y="-11" type="line"/>
      <point x="385" y="-1"/>
      <point x="440" y="115"/>
      <point x="440" y="298" type="curve" smooth="yes"/>
      <point x="440" y="437"/>
      <point x="408" y="538"/>
      <point x="330" y="538" type="curve" smooth="yes"/>
      <point x="265" y="538"/>
      <point x="234" y="469"/>
      <point x="234" y="351" type="curve" smooth="yes"/>
      <point x="234" y="14" type="line"/>
      <point x="124" y="18"/>
      <point x="87" y="131"/>
      <point x="87" y="261" type="curve" smooth="yes"/>
      <point x="87" y="374"/>
      <point x="115" y="447"/>
      <point x="182" y="521" type="curve"/>
      <point x="162" y="536" type="line"/>
      <point x="98" y="463"/>
      <point x="60" y="390"/>
      <point x="60" y="259" type="curve" smooth="yes"/>
      <point x="60" y="114"/>
      <point x="107" y="-5"/>
      <point x="234" y="-11" type="curve"/>
    </contour>
    <contour>
      <point x="260" y="14" type="curve"/>
      <point x="260" y="345" type="line" smooth="yes"/>
      <point x="260" y="440"/>
      <point x="275" y="513"/>
      <point x="329" y="513" type="curve" smooth="yes"/>
      <point x="386" y="513"/>
      <point x="413" y="433"/>
      <point x="413" y="300" type="curve" smooth="yes"/>
      <point x="413" y="121"/>
      <point x="364" y="21"/>
    </contour>
  </outline>
</glyph>
<glyph name="psi" format="2">
  <advance width="500"/>
  <unicode hex="03C8"/>
  <anchor x="250" y="-240" name="bottom"/>
  <anchor x="250" y="760" name="top"/>
  <outline>
    <contour>
      <point x="243" y="-240" type="line"/>
      <point x="269" y="-240" type="line"/>
      <point x="269" y="-6" type="line"/>
      <point x="397" y="1"/>
      <point x="440" y="115"/>
      <point x="440" y="294" type="curve" smooth="yes"/>
      <point x="440" y="392"/>
      <point x="427" y="455"/>
      <point x="406" y="528" type="curve"/>
      <point x="379" y="528" type="line"/>
      <point x="401" y="456"/>
      <point x="413" y="391"/>
      <point x="413" y="296" type="curve" smooth="yes"/>
      <point x="413" y="127"/>
      <point x="375" y="24"/>
      <point x="269" y="19" type="curve"/>
      <point x="269" y="760" type="line"/>
      <point x="243" y="760" type="line"/>
      <point x="243" y="19" type="line"/>
      <point x="141" y="25"/>
      <point x="110" y="118"/>
      <point x="110" y="264" type="curve" smooth="yes"/>
      <point x="110" y="528" type="line"/>
      <point x="85" y="528" type="line"/>
      <point x="85" y="258" type="line" smooth="yes"/>
      <point x="85" y="98"/>
      <point x="126" y="-1"/>
      <point x="243" y="-6" type="curve"/>
    </contour>
  </outline>
</glyph>
<glyph name="omega" format="2">
  <advance width="500"/>
  <unicode hex="03C9"/>
  <anchor x="250" y="0" name="bottom"/>
  <anchor x="250" y="528" name="top"/>
  <outline>
    <contour>
      <point x="165" y="-10" type="curve" smooth="yes"/>
      <point x="209" y="-10"/>
      <point x="241" y="30"/>
      <point x="250" y="92" type="curve"/>
      <point x="252" y="92" type="line"/>
      <point x="261" y="30"/>
      <point x="287" y="-10"/>
      <point x="333" y="-10" type="curve" smooth="yes"/>
      <point x="418" y="-10"/>
      <point x="440" y="119"/>
      <point x="440" y="241" type="curve" smooth="yes"/>
      <point x="440" y="355"/>
      <point x="419" y="433"/>
      <point x="376" y="528" type="curve"/>
      <point x="349" y="528" type="line"/>
      <point x="391" y="434"/>
      <point x="413" y="361"/>
      <point x="413" y="238" type="curve" smooth="yes"/>
      <point x="413" y="104"/>
      <point x="387" y="15"/>
      <point x="333" y="15" type="curve" smooth="yes"/>
      <point x="286" y="15"/>
      <point x="264" y="80"/>
      <point x="264" y="171" type="curve" smooth="yes"/>
      <point x="264" y="338" type="line"/>
      <point x="238" y="338" type="line"/>
      <point x="238" y="171" type="line" smooth="yes"/>
      <point x="238" y="80"/>
      <point x="212" y="15"/>
      <point x="167" y="15" type="curve" smooth="yes"/>
      <point x="116" y="15"/>
      <point x="87" y="97"/>
      <point x="87" y="238" type="curve" smooth="yes"/>
      <point x="87" y="364"/>
      <point x="110" y="434"/>
      <point x="151" y="528" type="curve"/>
      <point x="124" y="528" type="line"/>
      <point x="83" y="438"/>
      <point x="60" y="366"/>
      <point x="60" y="242" type="curve" smooth="yes"/>
      <point x="60" y="79"/>
      <point x="97" y="-10"/>
    </contour>
  </outline>
</glyph>
<glyph name="uni03D7" format="2">
  <advance width="500"/>
  <unicode hex="03D7"/>
  <outline>
    <contour>
      <point x="447" y="-3" type="curve" smooth="yes"/>
      <point x="463" y="-3"/>
      <point x="477" y="0"/>
      <point x="488" y="6" type="curve"/>
      <point x="488" y="31" type="line"/>
      <point x="477" y="26"/>
      <point x="463" y="23"/>
      <point x="449" y="23" type="curve" smooth="yes"/>
      <point x="399" y="23"/>
      <point x="366" y="60"/>
      <point x="366" y="185" type="curve" smooth="yes"/>
      <point x="366" y="320"/>
      <point x="406" y="452"/>
      <point x="447" y="528" type="curve"/>
      <point x="411" y="528" type="line"/>
      <point x="119" y="100" type="line"/>
      <point x="139" y="155"/>
      <point x="165" y="246"/>
      <point x="165" y="352" type="curve" smooth="yes"/>
      <point x="165" y="483"/>
      <point x="126" y="538"/>
      <point x="61" y="538" type="curve" smooth="yes"/>
      <point x="42" y="538"/>
      <point x="24" y="534"/>
      <point x="11" y="526" type="curve"/>
      <point x="14" y="502" type="line"/>
      <point x="27" y="510"/>
      <point x="43" y="513"/>
      <point x="59" y="513" type="curve" smooth="yes"/>
      <point x="109" y="513"/>
      <point x="138" y="468"/>
      <point x="138" y="351" type="curve" smooth="yes"/>
      <point x="138" y="216"/>
      <point x="98" y="79"/>
      <point x="46" y="0" type="curve"/>
      <point x="82" y="0" type="line"/>
      <point x="386" y="446" type="line"/>
      <point x="365" y="387"/>
      <point x="339" y="291"/>
      <point x="339" y="178" type="curve" smooth="yes"/>
      <point x="339" y="39"/>
      <point x="384" y="-3"/>
    </contour>
    <contour>
      <point x="419" y="-242" type="curve" smooth="yes"/>
      <point x="461" y="-242"/>
      <point x="488" y="-217"/>
      <point x="488" y="-145" type="curve" smooth="yes"/>
      <point x="488" y="20" type="line"/>
      <point x="462" y="5" type="line"/>
      <point x="462" y="-142" type="line" smooth="yes"/>
      <point x="462" y="-193"/>
      <point x="449" y="-217"/>
      <point x="417" y="-217" type="curve" smooth="yes"/>
      <point x="406" y="-217"/>
      <point x="397" y="-215"/>
      <point x="386" y="-210" type="curve"/>
      <point x="386" y="-236" type="line"/>
      <point x="394" y="-239"/>
      <point x="404" y="-242"/>
    </contour>
  </outline>
</glyph>
<glyph name="uni03DC" format="2">
  <advance width="500"/>
  <unicode hex="03DC"/>
  <anchor x="270" y="0" name="bottom"/>
  <anchor x="270" y="714" name="top"/>
  <outline>
    <contour>
      <point x="101" y="0" type="line"/>
      <point x="127" y="0" type="line"/>
      <point x="127" y="329" type="line"/>
      <point x="380" y="329" type="line"/>
      <point x="380" y="205" type="line"/>
      <point x="406" y="205" type="line"/>
      <point x="406" y="354" type="line"/>
      <point x="127" y="354" type="line"/>
      <point x="127" y="689" type="line"/>
      <point x="422" y="689" type="line"/>
      <point x="422" y="714" type="line"/>
      <point x="101" y="714" type="line"/>
    </contour>
  </outline>
</glyph>
<glyph name="uni03DE" format="2">
  <advance width="500"/>
  <unicode hex="03DE"/>
  <anchor x="260" y="0" name="bottom"/>
  <anchor x="260" y="714" name="top"/>
  <outline>
    <contour>
      <point x="382" y="-9" type="curve" smooth="yes"/>
      <point x="406" y="-9"/>
      <point x="418" y="-7"/>
      <point x="427" y="-2" type="curve"/>
      <point x="427" y="24" type="line"/>
      <point x="419" y="20"/>
      <point x="406" y="16"/>
      <point x="385" y="16" type="curve" smooth="yes"/>
      <point x="343" y="16"/>
      <point x="322" y="40"/>
      <point x="322" y="85" type="curve" smooth="yes"/>
      <point x="322" y="115"/>
      <point x="331" y="146"/>
      <point x="338" y="170" type="curve" smooth="yes"/>
      <point x="401" y="377" type="line"/>
      <point x="111" y="377" type="line"/>
      <point x="171" y="549" type="line" smooth="yes"/>
      <point x="181" y="579"/>
      <point x="187" y="606"/>
      <point x="187" y="634" type="curve" smooth="yes"/>
      <point x="187" y="683"/>
      <point x="163" y="723"/>
      <point x="106" y="723" type="curve" smooth="yes"/>
      <point x="81" y="723"/>
      <point x="67" y="720"/>
      <point x="58" y="715" type="curve"/>
      <point x="60" y="691" type="line"/>
      <point x="69" y="696"/>
      <point x="82" y="700"/>
      <point x="103" y="700" type="curve" smooth="yes"/>
      <point x="143" y="700"/>
      <point x="162" y="675"/>
      <point x="162" y="633" type="curve" smooth="yes"/>
      <point x="162" y="606"/>
      <point x="157" y="581"/>
      <point x="147" y="552" type="curve" smooth="yes"/>
      <point x="79" y="352" type="line"/>
      <point x="368" y="352" type="line"/>
      <point x="313" y="176" type="line" smooth="yes"/>
      <point x="305" y="150"/>
      <point x="296" y="119"/>
      <point x="296" y="85" type="curve" smooth="yes"/>
      <point x="296" y="29"/>
      <point x="323" y="-9"/>
    </contour>
  </outline>
</glyph>
<glyph name="uni03F0" format="2">
  <advance width="500"/>
  <unicode hex="03F0"/>
  <anchor x="250" y="0" name="bottom"/>
  <anchor x="250" y="528" name="top"/>
  <outline>
    <contour>
      <point x="447" y="-3" type="curve" smooth="yes"/>
      <point x="463" y="-3"/>
      <point x="477" y="0"/>
      <point x="488" y="6" type="curve"/>
      <point x="488" y="31" type="line"/>
      <point x="477" y="26"/>
      <point x="463" y="23"/>
      <point x="449" y="23" type="curve" smooth="yes"/>
      <point x="399" y="23"/>
      <point x="366" y="60"/>
      <point x="366" y="185" type="curve" smooth="yes"/>
      <point x="366" y="320"/>
      <point x="406" y="452"/>
      <point x="447" y="528" type="curve"/>
      <point x="411" y="528" type="line"/>
      <point x="119" y="100" type="line"/>
      <point x="139" y="155"/>
      <point x="165" y="246"/>
      <point x="165" y="352" type="curve" smooth="yes"/>
      <point x="165" y="483"/>
      <point x="126" y="538"/>
      <point x="61" y="538" type="curve" smooth="yes"/>
      <point x="42" y="538"/>
      <point x="24" y="534"/>
      <point x="11" y="526" type="curve"/>
      <point x="14" y="502" type="line"/>
      <point x="27" y="510"/>
      <point x="43" y="513"/>
      <point x="59" y="513" type="curve" smooth="yes"/>
      <point x="109" y="513"/>
      <point x="138" y="468"/>
      <point x="138" y="351" type="curve" smooth="yes"/>
      <point x="138" y="216"/>
      <point x="98" y="79"/>
      <point x="46" y="0" type="curve"/>
      <point x="82" y="0" type="line"/>
      <point x="386" y="446" type="line"/>
      <point x="365" y="387"/>
      <point x="339" y="291"/>
      <point x="339" y="178" type="curve" smooth="yes"/>
      <point x="339" y="39"/>
      <point x="384" y="-3"/>
    </contour>
  </outline>
</glyph>
<glyph name="uni03FB" format="2">
  <advance width="500"/>
  <unicode hex="03FB"/>
  <anchor x="250" y="-236" name="bottom"/>
  <anchor x="250" y="528" name="top"/>
  <outline>
    <contour>
      <point x="76" y="-236" type="line"/>
      <point x="102" y="-236" type="line"/>
      <point x="102" y="402" type="line" smooth="yes"/>
      <point x="102" y="424"/>
      <point x="102" y="460"/>
      <point x="100" y="475" type="curve"/>
      <point x="238" y="189" type="line"/>
      <point x="262" y="189" type="line"/>
      <point x="400" y="476" type="line"/>
      <point x="399" y="460"/>
      <point x="398" y="421"/>
      <point x="398" y="401" type="curve" smooth="yes"/>
      <point x="398" y="0" type="line"/>
      <point x="424" y="0" type="line"/>
      <point x="424" y="528" type="line"/>
      <point x="400" y="528" type="line"/>
      <point x="250" y="216" type="line"/>
      <point x="100" y="528" type="line"/>
      <point x="76" y="528" type="line"/>
    </contour>
  </outline>
</glyph>
<glyph name="uni03FC" format="2">
  <advance width="500"/>
  <unicode hex="03FC"/>
  <anchor x="250" y="-240" name="bottom"/>
  <anchor x="250" y="528" name="top"/>
  <outline>
    <contour>
      <point x="5" y="-127" type="line"/>
      <point x="216" y="-127" type="line"/>
      <point x="216" y="-102" type="line"/>
      <point x="5" y="-102" type="line"/>
    </contour>
    <component base="rho"/>
  </outline>
</glyph>
<glyph name="afii10053" format="2">
  <advance width="500"/>
  <unicode hex="0404"/>
  <anchor x="318" y="0" name="bottom"/>
  <anchor x="324" y="714" name="top"/>
  <outline>
    <contour>
      <point x="321" y="-10" type="curve" smooth="yes"/>
      <point x="371" y="-10"/>
      <point x="420" y="2"/>
      <point x="454" y="19" type="curve"/>
      <point x="454" y="45" type="line"/>
      <point x="421" y="30"/>
      <point x="375" y="15"/>
      <point x="322" y="15" type="curve" smooth="yes"/>
      <point x="155" y="15"/>
      <point x="79" y="161"/>
      <point x="77" y="359" type="curve"/>
      <point x="392" y="359" type="line"/>
      <point x="392" y="384" type="line"/>
      <point x="77" y="384" type="line"/>
      <point x="84" y="549"/>
      <point x="158" y="699"/>
      <point x="332" y="699" type="curve" smooth="yes"/>
      <point x="367" y="699"/>
      <point x="413" y="693"/>
      <point x="456" y="668" type="curve"/>
      <point x="468" y="691" type="line"/>
      <point x="425" y="714"/>
      <point x="376" y="724"/>
      <point x="329" y="724" type="curve" smooth="yes"/>
      <point x="141" y="724"/>
      <point x="50" y="562"/>
      <point x="50" y="354" type="curve" smooth="yes"/>
      <point x="50" y="142"/>
      <point x="144" y="-10"/>
    </contour>
  </outline>
</glyph>
<glyph name="afii10058" format="2">
  <advance width="500"/>
  <unicode hex="0409"/>
  <anchor x="250" y="0" name="bottom"/>
  <anchor x="236" y="714" name="top"/>
  <outline>
    <contour>
      <point x="48" y="-9" type="curve" smooth="yes"/>
      <point x="120" y="-9"/>
      <point x="144" y="58"/>
      <point x="161" y="168" type="curve" smooth="yes"/>
      <point x="178" y="277"/>
      <point x="181" y="447"/>
      <point x="190" y="689" type="curve"/>
      <point x="293" y="689" type="line"/>
      <point x="293" y="714" type="line"/>
      <point x="166" y="714" type="line"/>
      <point x="157" y="482"/>
      <point x="154" y="299"/>
      <point x="136" y="172" type="curve" smooth="yes"/>
      <point x="123" y="80"/>
      <point x="105" y="17"/>
      <point x="48" y="17" type="curve" smooth="yes"/>
      <point x="35" y="17"/>
      <point x="22" y="20"/>
      <point x="10" y="25" type="curve"/>
      <point x="10" y="-1" type="line"/>
      <point x="21" y="-6"/>
      <point x="33" y="-9"/>
    </contour>
    <contour>
      <point x="304" y="25" type="line"/>
      <point x="304" y="366" type="line"/>
      <point x="346" y="366" type="line" smooth="yes"/>
      <point x="425" y="366"/>
      <point x="464" y="320"/>
      <point x="464" y="200" type="curve" smooth="yes"/>
      <point x="464" y="83"/>
      <point x="427" y="25"/>
      <point x="351" y="25" type="curve" smooth="yes"/>
    </contour>
    <contour>
      <point x="278" y="0" type="line"/>
      <point x="356" y="0" type="line" smooth="yes"/>
      <point x="442" y="0"/>
      <point x="491" y="68"/>
      <point x="491" y="201" type="curve" smooth="yes"/>
      <point x="491" y="339"/>
      <point x="438" y="391"/>
      <point x="351" y="391" type="curve" smooth="yes"/>
      <point x="304" y="391" type="line"/>
      <point x="304" y="714" type="line"/>
      <point x="278" y="714" type="line"/>
    </contour>
  </outline>
</glyph>
<glyph name="afii10018" format="2">
  <advance width="500"/>
  <unicode hex="0411"/>
  <anchor x="260" y="0" name="bottom"/>
  <anchor x="260" y="714" name="top"/>
  <outline>
    <contour>
      <point x="95" y="0" type="line"/>
      <point x="253" y="0" type="line" smooth="yes"/>
      <point x="383" y="0"/>
      <point x="455" y="67"/>
      <point x="455" y="203" type="curve" smooth="yes"/>
      <point x="455" y="349"/>
      <point x="373" y="393"/>
      <point x="242" y="393" type="curve" smooth="yes"/>
      <point x="121" y="393" type="line"/>
      <point x="121" y="689" type="line"/>
      <point x="430" y="689" type="line"/>
      <point x="430" y="714" type="line"/>
      <point x="95" y="714" type="line"/>
    </contour>
    <contour>
      <point x="121" y="25" type="line"/>
      <point x="121" y="368" type="line"/>
      <point x="237" y="368" type="line" smooth="yes"/>
      <point x="355" y="368"/>
      <point x="428" y="335"/>
      <point x="428" y="203" type="curve" smooth="yes"/>
      <point x="428" y="78"/>
      <point x="368" y="25"/>
      <point x="246" y="25" type="curve" smooth="yes"/>
    </contour>
  </outline>
</glyph>
<glyph name="afii10024" format="2">
  <advance width="500"/>
  <unicode hex="0416"/>
  <anchor x="250" y="0" name="bottom"/>
  <anchor x="480" y="0" name="bottomright"/>
  <anchor x="250" y="714" name="top"/>
  <outline>
    <contour>
      <point x="30" y="0" type="line"/>
      <point x="60" y="0" type="line"/>
      <point x="237" y="363" type="line"/>
      <point x="237" y="0" type="line"/>
      <point x="263" y="0" type="line"/>
      <point x="263" y="363" type="line"/>
      <point x="441" y="0" type="line"/>
      <point x="470" y="0" type="line"/>
      <point x="289" y="366" type="line"/>
      <point x="459" y="714" type="line"/>
      <point x="430" y="714" type="line"/>
      <point x="263" y="368" type="line"/>
      <point x="263" y="714" type="line"/>
      <point x="237" y="714" type="line"/>
      <point x="237" y="368" type="line"/>
      <point x="70" y="714" type="line"/>
      <point x="40" y="714" type="line"/>
      <point x="211" y="366" type="line"/>
    </contour>
  </outline>
</glyph>
<glyph name="afii10025" format="2">
  <advance width="500"/>
  <unicode hex="0417"/>
  <anchor x="250" y="0" name="bottom"/>
  <anchor x="240" y="714" name="top"/>
  <outline>
    <contour>
      <point x="226" y="-10" type="curve" smooth="yes"/>
      <point x="356" y="-10"/>
      <point x="431" y="65"/>
      <point x="431" y="191" type="curve" smooth="yes"/>
      <point x="431" y="297"/>
      <point x="382" y="356"/>
      <point x="294" y="372" type="curve"/>
      <point x="294" y="375" type="line"/>
      <point x="369" y="395"/>
      <point x="419" y="452"/>
      <point x="419" y="550" type="curve" smooth="yes"/>
      <point x="419" y="656"/>
      <point x="353" y="724"/>
      <point x="245" y="724" type="curve" smooth="yes"/>
      <point x="174" y="724"/>
      <point x="123" y="699"/>
      <point x="79" y="661" type="curve"/>
      <point x="96" y="642" type="line"/>
      <point x="136" y="675"/>
      <point x="179" y="699"/>
      <point x="244" y="699" type="curve" smooth="yes"/>
      <point x="334" y="699"/>
      <point x="392" y="643"/>
      <point x="392" y="550" type="curve" smooth="yes"/>
      <point x="392" y="446"/>
      <point x="328" y="386"/>
      <point x="216" y="386" type="curve" smooth="yes"/>
      <point x="134" y="386" type="line"/>
      <point x="134" y="360" type="line"/>
      <point x="211" y="360" type="line" smooth="yes"/>
      <point x="340" y="360"/>
      <point x="404" y="306"/>
      <point x="404" y="192" type="curve" smooth="yes"/>
      <point x="404" y="75"/>
      <point x="335" y="15"/>
      <point x="226" y="15" type="curve" smooth="yes"/>
      <point x="171" y="15"/>
      <point x="111" y="30"/>
      <point x="69" y="55" type="curve"/>
      <point x="69" y="25" type="line"/>
      <point x="111" y="3"/>
      <point x="167" y="-10"/>
    </contour>
  </outline>
</glyph>
<glyph name="afii10026" format="2">
  <advance width="500"/>
  <unicode hex="0418"/>
  <anchor x="280" y="0" name="bottom"/>
  <anchor x="480" y="0" name="bottomright"/>
  <anchor x="250" y="714" name="top"/>
  <outline>
    <contour>
      <point x="65" y="0" type="line"/>
      <point x="88" y="0" type="line"/>
      <point x="408" y="649" type="line"/>
      <point x="410" y="649" type="line"/>
      <point x="409" y="614"/>
      <point x="409" y="595"/>
      <point x="409" y="554" type="curve" smooth="yes"/>
      <point x="409" y="0" type="line"/>
      <point x="435" y="0" type="line"/>
      <point x="435" y="714" type="line"/>
      <point x="413" y="714" type="line"/>
      <point x="92" y="63" type="line"/>
      <point x="90" y="63" type="line"/>
      <point x="91" y="99"/>
      <point x="91" y="114"/>
      <point x="91" y="147" type="curve" smooth="yes"/>
      <point x="91" y="714" type="line"/>
      <point x="65" y="714" type="line"/>
    </contour>
  </outline>
</glyph>
<glyph name="afii10033" format="2">
  <advance width="500"/>
  <unicode hex="041F"/>
  <anchor x="250" y="0" name="bottom"/>
  <anchor x="480" y="0" name="bottomright"/>
  <anchor x="250" y="714" name="top"/>
  <outline>
    <contour>
      <point x="65" y="0" type="line"/>
      <point x="91" y="0" type="line"/>
      <point x="91" y="689" type="line"/>
      <point x="409" y="689" type="line"/>
      <point x="409" y="0" type="line"/>
      <point x="435" y="0" type="line"/>
      <point x="435" y="714" type="line"/>
      <point x="65" y="714" type="line"/>
    </contour>
  </outline>
</glyph>
<glyph name="afii10037" format="2">
  <advance width="500"/>
  <unicode hex="0423"/>
  <anchor x="150" y="0" name="bottom"/>
  <anchor x="254" y="714" name="top"/>
  <outline>
    <contour>
      <point x="105" y="-10" type="curve" smooth="yes"/>
      <point x="180" y="-10"/>
      <point x="212" y="38"/>
      <point x="261" y="170" type="curve" smooth="yes"/>
      <point x="465" y="714" type="line"/>
      <point x="437" y="714" type="line"/>
      <point x="281" y="291" type="line" smooth="yes"/>
      <point x="274" y="271"/>
      <point x="265" y="252"/>
      <point x="258" y="231" type="curve"/>
      <point x="256" y="231" type="line"/>
      <point x="246" y="256"/>
      <point x="237" y="279"/>
      <point x="232" y="291" type="curve" smooth="yes"/>
      <point x="64" y="714" type="line"/>
      <point x="35" y="714" type="line"/>
      <point x="242" y="202" type="line"/>
      <point x="203" y="86"/>
      <point x="173" y="16"/>
      <point x="102" y="16" type="curve" smooth="yes"/>
      <point x="85" y="16"/>
      <point x="66" y="20"/>
      <point x="48" y="28" type="curve"/>
      <point x="48" y="2" type="line"/>
      <point x="62" y="-5"/>
      <point x="81" y="-10"/>
    </contour>
  </outline>
</glyph>
<glyph name="afii10045" format="2">
  <advance width="500"/>
  <unicode hex="042B"/>
  <anchor x="250" y="0" name="bottom"/>
  <anchor x="250" y="714" name="top"/>
  <outline>
    <contour>
      <point x="40" y="0" type="line"/>
      <point x="147" y="0" type="line" smooth="yes"/>
      <point x="270" y="0"/>
      <point x="339" y="67"/>
      <point x="339" y="204" type="curve" smooth="yes"/>
      <point x="339" y="349"/>
      <point x="261" y="393"/>
      <point x="136" y="393" type="curve" smooth="yes"/>
      <point x="66" y="393" type="line"/>
      <point x="66" y="714" type="line"/>
      <point x="40" y="714" type="line"/>
    </contour>
    <contour>
      <point x="66" y="25" type="line"/>
      <point x="66" y="368" type="line"/>
      <point x="131" y="368" type="line" smooth="yes"/>
      <point x="244" y="368"/>
      <point x="312" y="335"/>
      <point x="312" y="201" type="curve" smooth="yes"/>
      <point x="312" y="78"/>
      <point x="255" y="25"/>
      <point x="140" y="25" type="curve" smooth="yes"/>
    </contour>
    <contour>
      <point x="434" y="0" type="line"/>
      <point x="460" y="0" type="line"/>
      <point x="460" y="714" type="line"/>
      <point x="434" y="714" type="line"/>
    </contour>
  </outline>
</glyph>
<glyph name="afii10066" format="2">
  <advance width="500"/>
  <unicode hex="0431"/>
  <anchor x="250" y="0" name="bottom"/>
  <anchor x="250" y="764" name="top"/>
  <outline>
    <contour>
      <point x="253" y="-10" type="curve" smooth="yes"/>
      <point x="383" y="-10"/>
      <point x="440" y="91"/>
      <point x="440" y="245" type="curve" smooth="yes"/>
      <point x="440" y="405"/>
      <point x="378" y="489"/>
      <point x="264" y="489" type="curve" smooth="yes"/>
      <point x="188" y="489"/>
      <point x="125" y="448"/>
      <point x="90" y="381" type="curve"/>
      <point x="87" y="381" type="line"/>
      <point x="93" y="522"/>
      <point x="119" y="613"/>
      <point x="180" y="665" type="curve" smooth="yes"/>
      <point x="233" y="711"/>
      <point x="312" y="729"/>
      <point x="424" y="740" type="curve"/>
      <point x="420" y="764" type="line"/>
      <point x="294" y="753"/>
      <point x="209" y="726"/>
      <point x="159" y="681" type="curve" smooth="yes"/>
      <point x="86" y="616"/>
      <point x="60" y="498"/>
      <point x="60" y="330" type="curve" smooth="yes"/>
      <point x="60" y="129"/>
      <point x="106" y="-10"/>
    </contour>
    <contour>
      <point x="254" y="15" type="curve" smooth="yes"/>
      <point x="121" y="15"/>
      <point x="87" y="163"/>
      <point x="87" y="332" type="curve"/>
      <point x="124" y="412"/>
      <point x="180" y="464"/>
      <point x="262" y="464" type="curve" smooth="yes"/>
      <point x="361" y="464"/>
      <point x="413" y="389"/>
      <point x="413" y="247" type="curve" smooth="yes"/>
      <point x="413" y="104"/>
      <point x="362" y="15"/>
    </contour>
  </outline>
</glyph>
<glyph name="afii10067" format="2">
  <advance width="500"/>
  <unicode hex="0432"/>
  <anchor x="250" y="0" name="bottom"/>
  <anchor x="250" y="528" name="top"/>
  <outline>
    <contour>
      <point x="105" y="0" type="line"/>
      <point x="260" y="0" type="line" smooth="yes"/>
      <point x="378" y="0"/>
      <point x="436" y="54"/>
      <point x="436" y="147" type="curve" smooth="yes"/>
      <point x="436" y="224"/>
      <point x="396" y="268"/>
      <point x="325" y="280" type="curve"/>
      <point x="325" y="282" type="line"/>
      <point x="378" y="296"/>
      <point x="413" y="335"/>
      <point x="413" y="402" type="curve" smooth="yes"/>
      <point x="413" y="475"/>
      <point x="370" y="528"/>
      <point x="251" y="528" type="curve" smooth="yes"/>
      <point x="105" y="528" type="line"/>
    </contour>
    <contour>
      <point x="131" y="25" type="line"/>
      <point x="131" y="267" type="line"/>
      <point x="248" y="267" type="line" smooth="yes"/>
      <point x="354" y="267"/>
      <point x="409" y="232"/>
      <point x="409" y="147" type="curve" smooth="yes"/>
      <point x="409" y="66"/>
      <point x="359" y="25"/>
      <point x="252" y="25" type="curve" smooth="yes"/>
    </contour>
    <contour>
      <point x="131" y="292" type="line"/>
      <point x="131" y="503" type="line"/>
      <point x="247" y="503" type="line" smooth="yes"/>
      <point x="349" y="503"/>
      <point x="386" y="462"/>
      <point x="386" y="402" type="curve" smooth="yes"/>
      <point x="386" y="330"/>
      <point x="346" y="292"/>
      <point x="248" y="292" type="curve" smooth="yes"/>
    </contour>
  </outline>
</glyph>
<glyph name="afii10068" format="2">
  <advance width="500"/>
  <unicode hex="0433"/>
  <anchor x="250" y="0" name="bottom"/>
  <anchor x="480" y="0" name="bottomright"/>
  <anchor x="289" y="528" name="top"/>
  <outline>
    <contour>
      <point x="160" y="0" type="line"/>
      <point x="186" y="0" type="line"/>
      <point x="186" y="503" type="line"/>
      <point x="437" y="503" type="line"/>
      <point x="437" y="528" type="line"/>
      <point x="160" y="528" type="line"/>
    </contour>
  </outline>
</glyph>
<glyph name="afii10073" format="2">
  <advance width="500"/>
  <unicode hex="0437"/>
  <anchor x="250" y="0" name="bottom"/>
  <anchor x="250" y="528" name="top"/>
  <outline>
    <contour>
      <point x="224" y="-9" type="curve" smooth="yes"/>
      <point x="362" y="-9"/>
      <point x="428" y="61"/>
      <point x="428" y="149" type="curve" smooth="yes"/>
      <point x="428" y="244"/>
      <point x="372" y="273"/>
      <point x="306" y="283" type="curve"/>
      <point x="306" y="286" type="line"/>
      <point x="368" y="301"/>
      <point x="411" y="342"/>
      <point x="411" y="408" type="curve" smooth="yes"/>
      <point x="411" y="489"/>
      <point x="353" y="538"/>
      <point x="239" y="538" type="curve" smooth="yes"/>
      <point x="163" y="538"/>
      <point x="115" y="516"/>
      <point x="76" y="498" type="curve"/>
      <point x="88" y="475" type="line"/>
      <point x="127" y="496"/>
      <point x="180" y="513"/>
      <point x="239" y="513" type="curve" smooth="yes"/>
      <point x="329" y="513"/>
      <point x="384" y="477"/>
      <point x="384" y="408" type="curve" smooth="yes"/>
      <point x="384" y="330"/>
      <point x="310" y="295"/>
      <point x="221" y="295" type="curve" smooth="yes"/>
      <point x="146" y="295" type="line"/>
      <point x="146" y="270" type="line"/>
      <point x="218" y="270" type="line" smooth="yes"/>
      <point x="335" y="270"/>
      <point x="401" y="241"/>
      <point x="401" y="147" type="curve" smooth="yes"/>
      <point x="401" y="66"/>
      <point x="340" y="16"/>
      <point x="225" y="16" type="curve" smooth="yes"/>
      <point x="156" y="16"/>
      <point x="101" y="33"/>
      <point x="57" y="55" type="curve"/>
      <point x="57" y="25" type="line"/>
      <point x="90" y="11"/>
      <point x="142" y="-9"/>
    </contour>
  </outline>
</glyph>
<glyph name="afii10076" format="2">
  <advance width="500"/>
  <unicode hex="043A"/>
  <anchor x="286" y="0" name="bottom"/>
  <anchor x="480" y="0" name="bottomright"/>
  <anchor x="280" y="528" name="top"/>
  <outline>
    <contour>
      <point x="121" y="0" type="line"/>
      <point x="147" y="0" type="line"/>
      <point x="147" y="267" type="line"/>
      <point x="422" y="0" type="line"/>
      <point x="458" y="0" type="line"/>
      <point x="180" y="270" type="line"/>
      <point x="447" y="528" type="line"/>
      <point x="411" y="528" type="line"/>
      <point x="147" y="271" type="line"/>
      <point x="147" y="528" type="line"/>
      <point x="121" y="528" type="line"/>
    </contour>
  </outline>
</glyph>
<glyph name="afii10084" format="2">
  <advance width="500"/>
  <unicode hex="0442"/>
  <anchor x="253" y="0" name="bottom"/>
  <anchor x="480" y="0" name="bottomright"/>
  <anchor x="253" y="528" name="top"/>
  <outline>
    <contour>
      <point x="237" y="0" type="line"/>
      <point x="263" y="0" type="line"/>
      <point x="263" y="503" type="line"/>
      <point x="435" y="503" type="line"/>
      <point x="435" y="528" type="line"/>
      <point x="65" y="528" type="line"/>
      <point x="65" y="503" type="line"/>
      <point x="237" y="503" type="line"/>
    </contour>
  </outline>
</glyph>
<glyph name="afii10097" format="2">
  <advance width="500"/>
  <unicode hex="044F"/>
  <anchor x="250" y="0" name="bottom"/>
  <anchor x="272" y="528" name="top"/>
  <outline>
    <contour>
      <point x="62" y="0" type="line"/>
      <point x="95" y="0" type="line"/>
      <point x="247" y="236" type="line"/>
      <point x="389" y="236" type="line"/>
      <point x="389" y="0" type="line"/>
      <point x="415" y="0" type="line"/>
      <point x="415" y="528" type="line"/>
      <point x="248" y="528" type="line" smooth="yes"/>
      <point x="147" y="528"/>
      <point x="81" y="478"/>
      <point x="81" y="379" type="curve" smooth="yes"/>
      <point x="81" y="298"/>
      <point x="122" y="246"/>
      <point x="218" y="237" type="curve"/>
    </contour>
    <contour>
      <point x="246" y="261" type="line" smooth="yes"/>
      <point x="151" y="261"/>
      <point x="108" y="301"/>
      <point x="108" y="380" type="curve" smooth="yes"/>
      <point x="108" y="458"/>
      <point x="156" y="503"/>
      <point x="252" y="503" type="curve" smooth="yes"/>
      <point x="389" y="503" type="line"/>
      <point x="389" y="261" type="line"/>
    </contour>
  </outline>
</glyph>
<glyph name="afii10099" format="2">
  <advance width="500"/>
  <unicode hex="0452"/>
  <anchor x="250" y="-241" name="bottom"/>
  <anchor x="250" y="760" name="top"/>
  <anchor x="250" y="264" name="center"/>
  <outline>
    <contour>
      <point x="333" y="-241" type="curve" smooth="yes"/>
      <point x="383" y="-241"/>
      <point x="420" y="-209"/>
      <point x="420" y="-133" type="curve" smooth="yes"/>
      <point x="404" y="275" type="line" smooth="yes"/>
      <point x="404" y="273" type="line"/>
      <point x="395" y="-129" type="line" smooth="yes"/>
      <point x="393" y="-186"/>
      <point x="375" y="-216"/>
      <point x="332" y="-216" type="curve" smooth="yes"/>
      <point x="317" y="-216"/>
      <point x="302" y="-214"/>
      <point x="286" y="-207" type="curve"/>
      <point x="286" y="-233" type="line"/>
      <point x="298" y="-238"/>
      <point x="313" y="-241"/>
    </contour>
    <component base="afii10108"/>
  </outline>
</glyph>
<glyph name="afii10101" format="2">
  <advance width="500"/>
  <unicode hex="0454"/>
  <anchor x="250" y="0" name="bottom"/>
  <anchor x="250" y="528" name="top"/>
  <anchor x="480" y="528" name="topright"/>
  <outline>
    <contour>
      <point x="115" y="259" type="line"/>
      <point x="338" y="259" type="line"/>
      <point x="338" y="284" type="line"/>
      <point x="116" y="284" type="line"/>
    </contour>
    <component base="c"/>
  </outline>
</glyph>
<glyph name="afii10107" format="2">
  <advance width="500"/>
  <unicode hex="045A"/>
  <anchor x="250" y="0" name="bottom"/>
  <anchor x="163" y="528" name="top"/>
  <outline>
    <contour>
      <point x="245" y="0" type="line"/>
      <point x="324" y="0" type="line" smooth="yes"/>
      <point x="418" y="0"/>
      <point x="465" y="56"/>
      <point x="465" y="156" type="curve" smooth="yes"/>
      <point x="465" y="244"/>
      <point x="426" y="302"/>
      <point x="338" y="302" type="curve" smooth="yes"/>
      <point x="271" y="302" type="line"/>
      <point x="271" y="528" type="line"/>
      <point x="245" y="528" type="line"/>
    </contour>
    <contour>
      <point x="56" y="0" type="line"/>
      <point x="82" y="0" type="line"/>
      <point x="82" y="277" type="line"/>
      <point x="261" y="277" type="line"/>
      <point x="261" y="302" type="line"/>
      <point x="82" y="302" type="line"/>
      <point x="82" y="528" type="line"/>
      <point x="56" y="528" type="line"/>
    </contour>
    <contour>
      <point x="271" y="25" type="line"/>
      <point x="271" y="277" type="line"/>
      <point x="334" y="277" type="line" smooth="yes"/>
      <point x="405" y="277"/>
      <point x="438" y="233"/>
      <point x="438" y="157" type="curve" smooth="yes"/>
      <point x="438" y="72"/>
      <point x="407" y="25"/>
      <point x="320" y="25" type="curve" smooth="yes"/>
    </contour>
  </outline>
</glyph>
<glyph name="uni0462" format="2">
  <advance width="500"/>
  <unicode hex="0462"/>
  <anchor x="250" y="0" name="bottom"/>
  <anchor x="250" y="714" name="top"/>
  <outline>
    <contour>
      <point x="147" y="0" type="line"/>
      <point x="271" y="0" type="line" smooth="yes"/>
      <point x="397" y="0"/>
      <point x="466" y="70"/>
      <point x="466" y="203" type="curve" smooth="yes"/>
      <point x="466" y="339"/>
      <point x="391" y="391"/>
      <point x="266" y="391" type="curve" smooth="yes"/>
      <point x="173" y="391" type="line"/>
      <point x="173" y="572" type="line"/>
      <point x="347" y="572" type="line"/>
      <point x="347" y="597" type="line"/>
      <point x="173" y="597" type="line"/>
      <point x="173" y="714" type="line"/>
      <point x="147" y="714" type="line"/>
      <point x="147" y="597" type="line"/>
      <point x="12" y="597" type="line"/>
      <point x="12" y="572" type="line"/>
      <point x="147" y="572" type="line"/>
    </contour>
    <contour>
      <point x="173" y="25" type="line"/>
      <point x="173" y="366" type="line"/>
      <point x="262" y="366" type="line" smooth="yes"/>
      <point x="375" y="366"/>
      <point x="439" y="323"/>
      <point x="439" y="201" type="curve" smooth="yes"/>
      <point x="439" y="81"/>
      <point x="379" y="25"/>
      <point x="265" y="25" type="curve" smooth="yes"/>
    </contour>
  </outline>
</glyph>
<glyph name="uni0463" format="2">
  <advance width="500"/>
  <unicode hex="0463"/>
  <anchor x="250" y="0" name="bottom"/>
  <anchor x="149" y="640" name="top"/>
  <outline>
    <contour>
      <point x="134" y="0" type="line"/>
      <point x="275" y="0" type="line" smooth="yes"/>
      <point x="375" y="0"/>
      <point x="428" y="55"/>
      <point x="428" y="144" type="curve" smooth="yes"/>
      <point x="428" y="233"/>
      <point x="376" y="288"/>
      <point x="281" y="288" type="curve" smooth="yes"/>
      <point x="160" y="288" type="line"/>
      <point x="160" y="502" type="line"/>
      <point x="287" y="502" type="line"/>
      <point x="287" y="527" type="line"/>
      <point x="160" y="527" type="line"/>
      <point x="160" y="640" type="line"/>
      <point x="134" y="640" type="line"/>
      <point x="134" y="527" type="line"/>
      <point x="55" y="527" type="line"/>
      <point x="55" y="502" type="line"/>
      <point x="134" y="502" type="line"/>
    </contour>
    <contour>
      <point x="160" y="25" type="line"/>
      <point x="160" y="263" type="line"/>
      <point x="278" y="263" type="line" smooth="yes"/>
      <point x="359" y="263"/>
      <point x="401" y="221"/>
      <point x="401" y="144" type="curve" smooth="yes"/>
      <point x="401" y="69"/>
      <point x="360" y="25"/>
      <point x="272" y="25" type="curve" smooth="yes"/>
    </contour>
  </outline>
</glyph>
<glyph name="uni0466" format="2">
  <advance width="500"/>
  <unicode hex="0466"/>
  <anchor x="250" y="0" name="bottom"/>
  <anchor x="250" y="714" name="top"/>
  <outline>
    <contour>
      <point x="5" y="0" type="line"/>
      <point x="33" y="0" type="line"/>
      <point x="142" y="341" type="line"/>
      <point x="240" y="341" type="line"/>
      <point x="240" y="0" type="line"/>
      <point x="266" y="0" type="line"/>
      <point x="266" y="341" type="line"/>
      <point x="356" y="341" type="line"/>
      <point x="467" y="0" type="line"/>
      <point x="495" y="0" type="line"/>
      <point x="265" y="714" type="line"/>
      <point x="235" y="714" type="line"/>
    </contour>
    <contour>
      <point x="151" y="366" type="line"/>
      <point x="217" y="573" type="line" smooth="yes"/>
      <point x="231" y="618"/>
      <point x="241" y="647"/>
      <point x="249" y="677" type="curve"/>
      <point x="258" y="647"/>
      <point x="270" y="611"/>
      <point x="282" y="573" type="curve" smooth="yes"/>
      <point x="349" y="366" type="line"/>
    </contour>
  </outline>
</glyph>
